
  <svg xmlns="http://www.w3.org/2000/svg" width="24" height="24" viewBox="0 0 24 24"><path d="M8.04,14.09c-.54.48-.59,1.42.04,2.05.01.01.02.03.04.04.48.54,1.42.59,2.05-.04h0s0,0,0,0l7.2-7.1c1.41-1.41,1.41-3.57,0-4.98-1.41-1.41-3.58-1.41-4.99,0l-7.8,7.8c-2.11,2.11-2.11,5.68,0,7.79,2.11,2.11,5.68,2.11,7.79,0l8.8-8.8c.39-.39,1.02-.39,1.41,0s.39,1.02,0,1.41l-8.8,8.8c-2.89,2.89-7.72,2.89-10.61,0-2.89-2.89-2.89-7.72,0-10.61l7.8-7.8c2.19-2.19,5.62-2.19,7.81,0s2.19,5.62,0,7.81h0s0,0,0,0l-7.2,7.1s0,0,0,0c-1.36,1.36-3.61,1.42-4.93-.02-1.34-1.36-1.4-3.6.04-4.91l5.98-5.98c.39-.39,1.02-.39,1.41,0s.39,1.02,0,1.41l-6,6s-.03.02-.04.04Z"/></svg>
