
  <svg xmlns="http://www.w3.org/2000/svg" width="24" height="24" viewBox="0 0 24 24"><path d="M10.23,23.42c-.51-.38-.89-.91-1.08-1.52.89.07,1.84.1,2.85.1s1.96-.03,2.85-.1c-.19.61-.57,1.14-1.08,1.52-.51.38-1.13.58-1.77.58s-1.26-.2-1.77-.58ZM22.34,15.14c.35.49.66,1.09.66,1.86,0,.85-.49,1.51-1.09,1.97-.59.47-1.4.83-2.33,1.12-1.87.58-4.48.91-7.58.91s-5.72-.33-7.58-.91c-.93-.29-1.73-.65-2.33-1.12-.59-.47-1.09-1.13-1.09-1.97,0-.76.31-1.37.66-1.86.24-.34.56-.68.83-.99.09-.1.18-.2.26-.29.69-.79,1.25-1.58,1.25-2.86v-3c0-2.12.84-4.16,2.34-5.66S9.88,0,12,0s4.16.84,5.66,2.34c1.5,1.5,2.34,3.54,2.34,5.66v3c0,1.29.56,2.08,1.25,2.86.08.09.17.19.26.29.28.31.59.65.83.99ZM21,17c0-.19-.07-.39-.28-.69-.17-.24-.36-.45-.61-.72h0c-.11-.12-.23-.25-.36-.4-.81-.91-1.75-2.17-1.75-4.19v-3c0-1.59-.63-3.12-1.76-4.24-1.13-1.13-2.65-1.76-4.24-1.76s-3.12.63-4.24,1.76-1.76,2.65-1.76,4.24v3c0,2.01-.94,3.27-1.75,4.19-.13.15-.25.28-.36.4-.25.27-.44.49-.61.72-.22.3-.28.51-.28.69h0s0,.14.32.4c.33.26.88.53,1.69.78,1.61.5,4,.82,6.99.82s5.38-.32,6.99-.82c.81-.25,1.36-.53,1.69-.78.32-.25.32-.39.32-.4h0Z"/></svg>
