
  <svg xmlns="http://www.w3.org/2000/svg" width="24" height="24" viewBox="0 0 24 24"><path d="M23.29,3.04L13.29.04c-.3-.09-.63-.03-.88.16-.25.19-.4.49-.4.8v4c0,.55.45,1,1,1s1-.45,1-1v-2.66l8,2.4v16.26h-6v-13c0-.55-.45-1-1-1H5c-.55,0-1,.45-1,1v3H1c-.55,0-1,.45-1,1v10c0,.55.45,1,1,1h22c.55,0,1-.45,1-1V4c0-.44-.29-.83-.71-.96ZM4,21h-2v-8h2v8ZM14,21H6v-12h8v12ZM8,15c0-.55.45-1,1-1h2c.55,0,1,.45,1,1s-.45,1-1,1h-2c-.55,0-1-.45-1-1ZM8,12c0-.55.45-1,1-1h2c.55,0,1,.45,1,1s-.45,1-1,1h-2c-.55,0-1-.45-1-1ZM8,18c0-.55.45-1,1-1h2c.55,0,1,.45,1,1s-.45,1-1,1h-2c-.55,0-1-.45-1-1ZM19,19c-.55,0-1-.45-1-1v-10c0-.55.45-1,1-1s1,.45,1,1v10c0,.55-.45,1-1,1Z"/></svg>
