
  <svg xmlns="http://www.w3.org/2000/svg" width="24" height="24" viewBox="0 0 24 24"><path d="M10,18v-1c0-.55.45-1,1-1h2c.55,0,1,.45,1,1v1c0,.55-.45,1-1,1h-2c-.55,0-1-.45-1-1ZM11,14h2c.55,0,1-.45,1-1v-1c0-.55-.45-1-1-1h-2c-.55,0-1,.45-1,1v1c0,.55.45,1,1,1ZM5,14h2c.55,0,1-.45,1-1v-1c0-.55-.45-1-1-1h-2c-.55,0-1,.45-1,1v1c0,.55.45,1,1,1ZM5,19h2c.55,0,1-.45,1-1v-1c0-.55-.45-1-1-1h-2c-.55,0-1,.45-1,1v1c0,.55.45,1,1,1ZM24,6v14c0,1.66-1.34,3-3,3H3c-1.66,0-3-1.34-3-3V6c0-1.66,1.34-3,3-3h2V1c0-.55.45-1,1-1s1,.45,1,1v2h10V1c0-.55.45-1,1-1s1,.45,1,1v2h2c1.66,0,3,1.34,3,3ZM22,9H2v11c0,.55.45,1,1,1h18c.55,0,1-.45,1-1v-11ZM22,6c0-.55-.45-1-1-1H3c-.55,0-1,.45-1,1v1h20v-1ZM17,14h2c.55,0,1-.45,1-1v-1c0-.55-.45-1-1-1h-2c-.55,0-1,.45-1,1v1c0,.55.45,1,1,1Z"/></svg>
