
  <svg xmlns="http://www.w3.org/2000/svg" width="24" height="24" viewBox="0 0 24 24"><path d="M1.48,14.69L.02,6.83c-.1-.54.26-1.07.8-1.17s1.07.26,1.17.8l1.46,7.86c.1.54-.26,1.07-.8,1.17-.54.1-1.07-.26-1.17-.8ZM21.46,1.82l1.83,9.83c.1.54-.26,1.07-.8,1.17l-15.73,2.93c-.54.1-1.07-.26-1.17-.8l-1.83-9.83c-.1-.54.26-1.07.8-1.17l15.73-2.93c.54-.1,1.07.26,1.17.8ZM21.14,11.03l-1.46-7.86-13.76,2.56,1.46,7.86,13.76-2.56ZM9.38,6.76c-.54.1-.9.62-.8,1.17.1.54.62.9,1.17.8.54-.1.9-.62.8-1.17-.1-.54-.62-.9-1.17-.8ZM22.56,22.75c.55,0,1-.45,1-1s-.45-1-1-1h-4v-4c0-.55-.45-1-1-1s-1,.45-1,1v4h-4c-.55,0-1,.45-1,1s.45,1,1,1h10Z"/></svg>
