
  <svg xmlns="http://www.w3.org/2000/svg" width="24" height="24" viewBox="0 0 24 24"><path d="M0,1.01C0,.45.45,0,1,0h7c.55,0,1,.45,1,1.01s-.45,1.01-1,1.01H1c-.55,0-1-.45-1-1.01ZM19,17.96c-.55,0-1,.45-1,1.01s.45,1.01,1,1.01,1-.45,1-1.01-.45-1.01-1-1.01ZM15,17.97H5c-.55,0-1,.45-1,1.01s.45,1.01,1,1.01h10c.55,0,1-.45,1-1.01s-.45-1.01-1-1.01ZM8,4.02h-3c-.55,0-1,.45-1,1.01s.45,1.01,1,1.01h3c.55,0,1-.45,1-1.01s-.45-1.01-1-1.01ZM0,22.99v-13.95c0-.55.45-1.01,1-1.01s1,.45,1,1.01v4.9h20V2.02h-10c-.55,0-1-.45-1-1.01S11.45.01,12,.01h11c.55,0,1,.45,1,1.01v21.98c0,.55-.45,1.01-1,1.01H1c-.55,0-1-.45-1-1.01ZM2,21.99h20v-6.03H2v6.03Z"/></svg>
