
  <svg xmlns="http://www.w3.org/2000/svg" width="24" height="24" viewBox="0 0 24 24"><path d="M18.89,11.95c0,.51-.41.92-.92.92s-.92-.41-.92-.92.41-.92.92-.92.92.41.92.92ZM23.01,0H1C.45,0,0,.45,0,1v15.88c0,.55.45,1,1,1h7.93c.55,0,1-.45,1-1s-.45-1-1-1H2V2h20.01v3.13c0,.55.45,1,1,1s1-.45,1-1V1c0-.55-.45-1-1-1ZM8.93,19.84h-1.93c-.55,0-1,.45-1,1s.45,1,1,1h1.93c.55,0,1-.45,1-1s-.45-1-1-1ZM24.01,10.39v11.34c0,1.25-1.01,2.26-2.26,2.26h-7.56c-1.25,0-2.26-1.01-2.26-2.26v-11.34c0-1.25,1.01-2.26,2.26-2.26h7.56c1.25,0,2.26,1.01,2.26,2.26ZM22.01,10.39c0-.14-.12-.26-.26-.26h-7.56c-.14,0-.26.12-.26.26v11.34c0,.14.12.26.26.26h7.56c.14,0,.26-.12.26-.26v-11.34Z"/></svg>
