
  <svg xmlns="http://www.w3.org/2000/svg" width="24" height="24" viewBox="0 0 24 24"><path d="M11,21.5c0,.41-.34.75-.75.75s-.75-.34-.75-.75.34-.75.75-.75.75.34.75.75ZM7.25,12.37v1.52l3.47,2.77c.18.14.28.36.28.59v1.75c0,.41-.34.75-.75.75s-.75-.34-.75-.75v-1.39l-3.47-2.77c-.18-.14-.28-.36-.28-.59v-1.88c-.87-.31-1.5-1.14-1.5-2.12,0-1.24,1.01-2.25,2.25-2.25s2.25,1.01,2.25,2.25c0,.98-.63,1.81-1.5,2.12ZM7.25,10.25c0-.41-.34-.75-.75-.75s-.75.34-.75.75.34.75.75.75.75-.34.75-.75ZM1,10.75c0,1.74.77,3.3,1.99,4.35.31.27.79.24,1.06-.08.27-.31.24-.79-.08-1.06-.9-.78-1.47-1.93-1.47-3.21,0-2.12,1.57-3.91,3.67-4.19.28-.04.52-.23.61-.5.72-2.13,2.72-3.56,4.97-3.56v-1.5c-2.74,0-5.19,1.65-6.23,4.15-2.61.56-4.52,2.88-4.52,5.6h0ZM13.25,20.75c-.41,0-.75.34-.75.75s.34.75.75.75.75-.34.75-.75-.34-.75-.75-.75ZM11,10.88v-1.76c-.87-.31-1.5-1.14-1.5-2.12,0-1.24,1.01-2.25,2.25-2.25s2.25,1.01,2.25,2.25c0,.98-.63,1.81-1.5,2.12v1.76c.87.31,1.5,1.14,1.5,2.12,0,1.24-1.01,2.25-2.25,2.25s-2.25-1.01-2.25-2.25c0-.98.63-1.81,1.5-2.12ZM11,7c0,.41.34.75.75.75s.75-.34.75-.75-.34-.75-.75-.75-.75.34-.75.75ZM11,13c0,.41.34.75.75.75s.75-.34.75-.75-.34-.75-.75-.75-.75.34-.75.75ZM16.25,14.8v-1.18c-.87-.31-1.5-1.14-1.5-2.12,0-1.24,1.01-2.25,2.25-2.25s2.25,1.01,2.25,2.25c0,.98-.63,1.81-1.5,2.12v1.63c0,.28-.15.53-.4.66l-3.35,1.79v1.3c0,.41-.34.75-.75.75s-.75-.34-.75-.75v-1.75c0-.28.15-.53.4-.66l3.35-1.79ZM16.25,11.5c0,.41.34.75.75.75s.75-.34.75-.75-.34-.75-.75-.75-.75.34-.75.75ZM17,7.75c0,.41.34.75.75.75,1.79,0,3.25,1.46,3.25,3.25,0,1.05-.5,1.98-1.27,2.58,0,0-.02.01-.03.02l-.15.13c-.32.27-.36.74-.09,1.06.27.32.74.36,1.06.09l.14-.11c1.12-.87,1.84-2.23,1.84-3.76,0-2.38-1.75-4.35-4.04-4.7-.35-3.4-3.22-6.05-6.71-6.05h0v1.5c2.9,0,5.25,2.35,5.25,5.25Z"/></svg>
