
  <svg xmlns="http://www.w3.org/2000/svg" width="24" height="24" viewBox="0 0 24 24"><path d="M18,10.5c0,.83-.67,1.5-1.5,1.5s-1.5-.67-1.5-1.5.67-1.5,1.5-1.5,1.5.67,1.5,1.5ZM24,12c0,6.63-5.37,12-12,12S0,18.63,0,12,5.37,0,12,0s12,5.37,12,12ZM22,12c0-5.52-4.48-10-10-10S2,6.48,2,12s4.48,10,10,10,10-4.48,10-10ZM15,14c-.55,0-1,.45-1,1s-.21,1.04-.59,1.41c-.38.38-.88.59-1.41.59s-1.04-.21-1.41-.59c-.38-.38-.59-.88-.59-1.41s-.45-1-1-1-1,.45-1,1c0,1.06.42,2.08,1.17,2.83.75.75,1.77,1.17,2.83,1.17s2.08-.42,2.83-1.17c.75-.75,1.17-1.77,1.17-2.83,0-.55-.45-1-1-1ZM9,10.5c0-.83-.67-1.5-1.5-1.5s-1.5.67-1.5,1.5.67,1.5,1.5,1.5,1.5-.67,1.5-1.5Z"/></svg>
