
  <svg xmlns="http://www.w3.org/2000/svg" width="24" height="24" viewBox="0 0 24 24"><path d="M19,10H5c-1.7,0-3,1.3-3,3v8c0,1.7,1.3,3,3,3h14c1.7,0,3-1.3,3-3v-8c0-1.7-1.3-3-3-3ZM20,21c0,.6-.4,1-1,1H5c-.6,0-1-.4-1-1v-8c0-.6.4-1,1-1h14c.6,0,1,.4,1,1v8ZM16,7v-1c0-1-.4-2.1-1.1-2.8-.8-.8-1.8-1.2-2.8-1.2h-.1c-1,0-2.1.4-2.8,1.1-.8.8-1.2,1.8-1.2,2.8v1.1c0,.6-.4,1-1,1s-1-.4-1-1v-1.1c0-1.6.7-3.1,1.8-4.2s2.6-1.7,4.2-1.7h.1c1.6,0,3.1.7,4.2,1.8,1.1,1.1,1.7,2.6,1.7,4.2v1c0,.6-.4,1-1,1s-1-.4-1-1ZM12,14c-1.7,0-3,1.3-3,3s1.3,3,3,3,3-1.3,3-3-1.3-3-3-3ZM12,18c-.6,0-1-.4-1-1s.4-1,1-1,1,.4,1,1-.4,1-1,1Z"/></svg>
