
  <svg xmlns="http://www.w3.org/2000/svg" width="24" height="24" viewBox="0 0 24 24"><path d="M16.85,23.72L7.9,14.76c-.38-.38-.38-1,0-1.38.38-.38,1-.38,1.38,0l8.95,8.95c.38.38.38,1,0,1.38-.19.19-.44.28-.69.28-.25,0-.49-.1-.69-.28ZM.98,18.51c.25,0,.5-.09.69-.28l8.94-8.96c.38-.38.38-1,0-1.38-.38-.38-1-.38-1.38,0L.29,16.85c-.38.38-.38,1,0,1.38.2.19.44.28.69.28ZM5.77.29c-.38.38-.38,1,0,1.38l8.95,8.95c.19.18.44.28.69.28.25,0,.49-.09.69-.28.38-.38.38-1,0-1.38L7.15.29c-.38-.38-1-.38-1.38,0ZM14.76,5.13l3.47-3.47c.38-.38.38-1,0-1.38s-1-.38-1.38,0l-3.47,3.47c-.38.38-.38,1,0,1.38.19.18.44.28.69.28.25,0,.49-.09.69-.28ZM3.75,10.61c.19.18.44.28.69.28.25,0,.49-.09.69-.28.38-.38.38-1,0-1.38l-3.47-3.47c-.38-.38-1-.38-1.38,0-.38.38-.38,1,0,1.38l3.47,3.47ZM20.25,13.39c-.38-.38-1-.38-1.38,0-.38.38-.38,1,0,1.38l3.47,3.47c.19.18.44.28.69.28.25,0,.49-.09.69-.28.38-.38.38-1,0-1.38l-3.47-3.47ZM22.34,5.78l-8.95,8.95c-.38.38-.38,1,0,1.38.19.18.44.28.69.28.25,0,.49-.09.69-.28l8.95-8.95c.38-.38.38-1,0-1.38-.38-.38-1-.38-1.38,0ZM9.24,18.87l-3.47,3.47c-.38.38-.38,1,0,1.38.19.18.44.28.69.28.25,0,.49-.09.69-.28l3.47-3.47c.38-.38.38-1,0-1.38-.38-.38-1-.38-1.38,0Z"/></svg>
