
  <svg xmlns="http://www.w3.org/2000/svg" width="24" height="24" viewBox="0 0 24 24"><path d="M18,12c0,.55-.45,1-1,1H7c-.55,0-1-.45-1-1s.45-1,1-1h10c.55,0,1,.45,1,1ZM3,24c-.55,0-1-.45-1-1V1c0-.55.45-1,1-1h12c.17,0,.33.04.47.12.02,0,.03.02.05.03.02.01.04.02.06.04.05.03.09.07.13.11l6,6c.19.19.29.44.29.71v16c0,.55-.45,1-1,1H3ZM4,22h16v-14h-5c-.55,0-1-.45-1-1V2H4v20ZM7,8h4c.55,0,1-.45,1-1s-.45-1-1-1h-4c-.55,0-1,.45-1,1s.45,1,1,1ZM17,16H7c-.55,0-1,.45-1,1s.45,1,1,1h10c.55,0,1-.45,1-1s-.45-1-1-1Z"/></svg>
