
  <svg xmlns="http://www.w3.org/2000/svg" width="24" height="24" viewBox="0 0 24 24"><path d="M6.71.29l-.71.71-.71-.71c.39-.39,1.02-.39,1.41,0ZM24,1v21c0,.55-.45,1-1,1H1c-.55,0-1-.45-1-1v-3c0-.55.45-1,1-1s1,.45,1,1v2h5v-2c0-.55.45-1,1-1s1,.45,1,1v2h6v-5h-1c-.55,0-1-.45-1-1s.45-1,1-1h8v-5h-8c-.55,0-1-.45-1-1s.45-1,1-1h1V2h-4c-.55,0-1-.45-1-1s.45-1,1-1h12c.55,0,1,.45,1,1ZM22,16h-5v5h5v-5ZM22,2h-5v5h5V2ZM0,10c0-2.34,1.43-4.82,2.69-6.58.65-.91,1.3-1.69,1.78-2.24.24-.28.45-.49.59-.65.07-.08.13-.14.17-.18l.05-.05h.01s0-.02,0-.02h0s0,0,0,0t.71.71q.71-.71.71-.71h0s0,0,0,0h0s.01.02.01.02l.05.05s.1.1.17.18c.14.15.35.37.59.65.48.55,1.13,1.33,1.78,2.24,1.26,1.76,2.69,4.24,2.69,6.58,0,3.31-2.69,6-6,6S0,13.31,0,10ZM2,10c0,2.21,1.79,4,4,4s4-1.79,4-4c0-1.66-1.07-3.68-2.31-5.42-.6-.84-1.2-1.56-1.65-2.08l-.03-.04-.03.04c-.45.51-1.05,1.24-1.65,2.08-1.24,1.74-2.31,3.76-2.31,5.42Z"/></svg>
