
  <svg xmlns="http://www.w3.org/2000/svg" width="24" height="24" viewBox="0 0 24 24"><path d="M12.02,0s-.02,0-.02,0-.02,0-.02,0C5.36.01,0,5.38,0,12s5.36,11.99,11.98,12c0,0,.02,0,.02,0s.02,0,.02,0c6.62-.01,11.98-5.38,11.98-12S18.64.01,12.02,0ZM8.08,2.8c-1.85,2.17-2.88,5.06-3.06,8.2h-2.98c.37-3.7,2.75-6.81,6.04-8.2ZM2.05,13h2.98c.18,3.15,1.21,6.04,3.06,8.2-3.28-1.4-5.67-4.51-6.04-8.2ZM11,21.22c-2.35-1.78-3.75-4.71-3.97-8.22h3.97v8.22ZM11,11h-3.97c.22-3.51,1.62-6.44,3.97-8.22v8.22ZM13,2.78c2.35,1.78,3.75,4.71,3.97,8.22h-3.97V2.78ZM13,21.22v-8.22h3.97c-.22,3.51-1.62,6.44-3.97,8.22ZM15.92,21.2c1.85-2.17,2.88-5.06,3.06-8.2h2.98c-.37,3.7-2.75,6.81-6.04,8.2ZM18.97,11c-.18-3.15-1.21-6.04-3.06-8.2,3.28,1.4,5.67,4.51,6.04,8.2h-2.98Z"/></svg>
