
  <svg xmlns="http://www.w3.org/2000/svg" width="24" height="24" viewBox="0 0 24 24"><path d="M21.5,3c-.22,0-.44.03-.64.08-.14-.45-.39-.86-.74-1.21-.56-.56-1.33-.88-2.12-.88-.52,0-1.03.14-1.47.39-.12-.18-.25-.35-.41-.51-.56-.56-1.33-.88-2.12-.88s-1.56.32-2.12.88c-.15.15-.29.33-.41.51-.45-.25-.95-.39-1.47-.39-.8,0-1.56.32-2.12.88-.56.56-.88,1.33-.88,2.12v9.52l-2.54-1.02h0c-.5-.2-1.06-.25-1.59-.14-.53.11-1.02.37-1.4.76-.5.5-.79,1.17-.81,1.87-.02.7.22,1.39.68,1.92h0s3.22,3.68,3.22,3.68h0c.94,1.07,2.1,1.93,3.39,2.52,1.3.59,2.71.89,4.13.89h1.92c2.65,0,5.2-1.05,7.07-2.93s2.93-4.42,2.93-7.07V5.5c0-.66-.26-1.3-.73-1.77-.47-.47-1.1-.73-1.77-.73ZM22,14c0,2.12-.84,4.16-2.34,5.66s-3.54,2.34-5.66,2.34h-1.92c-1.14,0-2.27-.24-3.31-.71-1.04-.47-1.96-1.16-2.72-2.02h0s-3.22-3.68-3.22-3.68h0c-.13-.15-.2-.34-.19-.54,0-.2.09-.38.23-.52h0c.11-.11.24-.18.39-.21.15-.03.3-.02.44.04h0s2.54,1.02,2.54,1.02h0c.3.12.63.17.96.13.32-.04.64-.15.91-.33s.49-.43.65-.72c.15-.29.23-.61.23-.94h0V4c0-.27.11-.52.29-.71.19-.19.44-.29.71-.29s.52.11.71.29c.19.19.29.44.29.71v7c0,.55.45,1,1,1s1-.45,1-1V3c0-.27.11-.52.29-.71.19-.19.44-.29.71-.29s.52.11.71.29c.19.19.29.44.29.71v8c0,.55.45,1,1,1s1-.45,1-1v-7c0-.27.11-.52.29-.71.19-.19.44-.29.71-.29s.52.11.71.29c.19.19.29.44.29.71v7c0,.55.45,1,1,1s1-.45,1-1v-5h0v-.5c0-.13.05-.26.15-.35s.22-.15.35-.15.26.05.35.15c.09.09.15.22.15.35v8.5Z"/></svg>
