
  <svg xmlns="http://www.w3.org/2000/svg" width="24" height="24" viewBox="0 0 24 24"><path d="M13,18c0,.55-.45,1-1,1s-1-.45-1-1,.45-1,1-1,1,.45,1,1ZM13.07,5.03c-1.18-.11-2.49.12-3.62.62-.51.22-.73.81-.51,1.32.22.51.81.73,1.32.51.84-.37,1.81-.53,2.63-.46.84.08,1.33.38,1.54.71.5.8.3,1.92-1.02,3.05-1.48,1.26-2.39,2.22-2.39,3.72,0,.55.45,1,1,1s1-.45,1-1c0-.49.17-.91,1.69-2.2,1.67-1.42,2.69-3.59,1.43-5.62-.67-1.08-1.9-1.54-3.05-1.65ZM24,12c0,6.63-5.37,12-12,12S0,18.63,0,12,5.37,0,12,0s12,5.37,12,12ZM22,12c0-5.52-4.48-10-10-10S2,6.48,2,12s4.48,10,10,10,10-4.48,10-10Z"/></svg>
