
  <svg xmlns="http://www.w3.org/2000/svg" width="24" height="24" viewBox="0 0 24 24"><path d="M23,2H1c-.55,0-1,.45-1,1v16.99h0v1.01c0,.55.45,1,1,1h22c.55,0,1-.45,1-1v-3.99h0V3c0-.55-.45-1-1-1ZM22,20H2.3l3.77-4.52,3.23,3.23c.2.2.46.3.74.29.28,0,.54-.13.72-.34l6.24-7.13,5.01,5.84v2.63ZM22,14.3l-4.24-4.95c-.19-.22-.46-.35-.75-.35s-.57.12-.76.34l-6.3,7.2-3.24-3.24c-.2-.2-.47-.3-.75-.29-.28.01-.54.14-.72.36l-3.23,3.88V4h20v10.3ZM9,11c1.66,0,3-1.34,3-3s-1.34-3-3-3-3,1.34-3,3,1.34,3,3,3ZM9,7c.55,0,1,.45,1,1s-.45,1-1,1-1-.45-1-1,.45-1,1-1Z"/></svg>
