
  <svg xmlns="http://www.w3.org/2000/svg" width="24" height="24" viewBox="0 0 24 24"><path d="M13,2c0-.55.45-1,1-1h3c.55,0,1,.45,1,1s-.45,1-1,1h-3c-.55,0-1-.45-1-1ZM4.04,4.71L1.04,14.71c-.03.09-.04.19-.04.29v4c0,.55.45,1,1,1s1-.45,1-1v-3.85l2.74-9.15h3.26v3h-2c-.55,0-1,.45-1,1s.45,1,1,1h2v8c0,.55.45,1,1,1s1-.45,1-1v-8h2v8c0,.55.45,1,1,1s1-.45,1-1v-8h1c.55,0,1-.45,1-1s-.45-1-1-1h-1v-3h3.26l2.74,9.15v3.85c0,.55.45,1,1,1s1-.45,1-1v-4c0-.1-.01-.19-.04-.29l-3-10c-.13-.42-.52-.71-.96-.71h-5c-.55,0-1,.45-1,1v4h-2v-4c0-.55-.45-1-1-1h-5c-.44,0-.83.29-.96.71ZM23,21h-9c-.55,0-1,.45-1,1s.45,1,1,1h9c.55,0,1-.45,1-1s-.45-1-1-1ZM10,3c.55,0,1-.45,1-1s-.45-1-1-1h-3c-.55,0-1,.45-1,1s.45,1,1,1h3ZM0,22c0,.55.45,1,1,1h9c.55,0,1-.45,1-1s-.45-1-1-1H1c-.55,0-1,.45-1,1Z"/></svg>
