
  <svg xmlns="http://www.w3.org/2000/svg" width="24" height="24" viewBox="0 0 24 24"><path d="M14.57,13.34c0,.55-.45,1-1,1h-1.87l.26.26c.39.39.39,1.02,0,1.41-.2.2-.45.29-.71.29h.02c-.26.01-.51-.09-.71-.28l-1.97-1.97c-.29-.29-.37-.72-.22-1.09s.52-.62.92-.62h4.28c.55,0,1,.45,1,1ZM12.49,7.24c-.39-.39-1.02-.39-1.41,0-.39.39-.39,1.02,0,1.41l.26.26h-1.87c-.55,0-1,.45-1,1s.45,1,1,1h4.29c.4.01.77-.24.92-.61.15-.37.07-.8-.22-1.09l-1.97-1.97ZM24,15c0,2.76-2.24,5-5,5H5c-2.76,0-5-2.24-5-5,0-2.05,1.25-3.9,3.07-4.65.57-4.11,4.21-7.35,8.43-7.35s7.68,2.99,8.39,7.08c2.33.42,4.11,2.47,4.11,4.92ZM22,15c0-1.65-1.35-3-3-3-.52,0-.96-.4-1-.92-.27-3.46-3.06-6.08-6.5-6.08s-6.33,2.76-6.5,6.15c-.02.45-.34.82-.77.92-1.29.3-2.23,1.53-2.23,2.93,0,1.65,1.35,3,3,3h14c1.65,0,3-1.35,3-3Z"/></svg>
