
  <svg xmlns="http://www.w3.org/2000/svg" width="24" height="24" viewBox="0 0 24 24"><path d="M20,13V5c0-.27-.11-.52-.29-.71-.19-.19-.44-.29-.71-.29H5c-.27,0-.52.11-.71.29s-.29.44-.29.71v8c0,.55-.45,1-1,1s-1-.45-1-1V5c0-.8.32-1.56.88-2.12s1.33-.88,2.12-.88h14c.8,0,1.56.32,2.12.88.56.56.88,1.33.88,2.12v8c0,.55-.45,1-1,1s-1-.45-1-1ZM24,17c0,1.33-.53,2.6-1.46,3.54-.94.94-2.21,1.46-3.54,1.46H5c-1.33,0-2.6-.53-3.54-1.46-.94-.94-1.46-2.21-1.46-3.54,0-.27.11-.52.29-.71.19-.19.44-.29.71-.29h22c.55,0,1,.45,1,1ZM21.83,18H2.17c.15.42.39.8.71,1.12.56.56,1.33.88,2.12.88h14c.8,0,1.56-.32,2.12-.88.32-.32.56-.7.71-1.12ZM11,7c0,.55.45,1,1,1s1-.45,1-1-.45-1-1-1-1,.45-1,1Z"/></svg>
