
  <svg xmlns="http://www.w3.org/2000/svg" width="24" height="24" viewBox="0 0 24 24"><path d="M1.49,7.86l10,6c.32.19.71.19,1.03,0l10-6c.3-.18.49-.51.49-.86s-.18-.68-.49-.86L12.51.14c-.32-.19-.71-.19-1.03,0L1.49,6.14c-.3.18-.49.51-.49.86s.18.68.49.86ZM12,2.17l8.06,4.83-8.06,4.83L3.94,7,12,2.17ZM22.51,17.86l-10,6c-.32.19-.71.19-1.03,0L1.49,17.86c-.47-.28-.63-.9-.34-1.37.28-.47.9-.63,1.37-.34l9.49,5.69,9.49-5.69c.47-.28,1.09-.13,1.37.34.28.47.13,1.09-.34,1.37ZM22.51,12.86l-10,6c-.32.19-.71.19-1.03,0L1.49,12.86c-.47-.28-.63-.9-.34-1.37.28-.47.9-.63,1.37-.34l9.49,5.69,9.49-5.69c.47-.28,1.09-.13,1.37.34.28.47.13,1.09-.34,1.37Z"/></svg>
