
  <svg xmlns="http://www.w3.org/2000/svg" width="24" height="24" viewBox="0 0 24 24"><path d="M15.35,14.99c-.28,0-.55-.12-.76-.33-.42-.45-.42-1.17,0-1.62l1.57-1.68c.42-.45,1.1-.45,1.52,0,.42.45.42,1.17,0,1.62l-1.57,1.68c-.21.23-.48.33-.76.33ZM9.41,13.05l-1.57-1.68c-.42-.45-1.1-.45-1.52,0-.42.45-.42,1.17,0,1.62l1.57,1.68c.21.22.48.33.76.33.28,0,.55-.11.76-.33.42-.45.42-1.17,0-1.62ZM10.93,12.52c0,.63.49,1.15,1.08,1.15s1.08-.52,1.08-1.15v-2.37c0-.63-.49-1.15-1.08-1.15s-1.08.52-1.08,1.15v2.37Z"/></svg>
