
  <svg xmlns="http://www.w3.org/2000/svg" width="24" height="24" viewBox="0 0 24 24"><path d="M23,4c0,.55-.45,1-1,1h-12c-.55,0-1-.45-1-1s.45-1,1-1h12c.55,0,1,.45,1,1ZM1,2c0-.55.45-1,1-1h4c.55,0,1,.45,1,1v4c0,.55-.45,1-1,1H2c-.55,0-1-.45-1-1V2ZM3,5h2v-2h-2v2ZM1,10c0-.55.45-1,1-1h4c.55,0,1,.45,1,1v4c0,.55-.45,1-1,1H2c-.55,0-1-.45-1-1v-4ZM3,13h2v-2h-2v2ZM1,18c0-.55.45-1,1-1h4c.55,0,1,.45,1,1v4c0,.55-.45,1-1,1H2c-.55,0-1-.45-1-1v-4ZM3,21h2v-2h-2v2ZM23,20c0-.55-.45-1-1-1h-12c-.55,0-1,.45-1,1s.45,1,1,1h12c.55,0,1-.45,1-1ZM22,11h-12c-.55,0-1,.45-1,1s.45,1,1,1h12c.55,0,1-.45,1-1s-.45-1-1-1Z"/></svg>
