
  <svg xmlns="http://www.w3.org/2000/svg" width="24" height="24" viewBox="0 0 24 24"><path d="M1.29,21.29l6.29-6.29H3c-.55,0-1-.45-1-1s.45-1,1-1h7c.13,0,.26.03.38.08.12.05.23.12.32.21h0c.19.2.29.45.29.71h0v7c0,.55-.45,1-1,1s-1-.45-1-1v-4.59l-6.29,6.29c-.39.39-1.02.39-1.41,0-.39-.39-.39-1.02,0-1.41ZM14,2c-.55,0-1,.45-1,1v7h0c0,.14.03.27.08.38.05.12.12.23.21.32h0c.19.2.45.29.7.3h7c.55,0,1-.45,1-1s-.45-1-1-1h-4.59l6.29-6.29c.39-.39.39-1.02,0-1.41-.39-.39-1.02-.39-1.41,0l-6.29,6.29V3c0-.55-.45-1-1-1Z"/></svg>
