
  <svg xmlns="http://www.w3.org/2000/svg" width="24" height="24" viewBox="0 0 24 24"><path d="M5.63,12.7h0c.11.46.22.91.36,1.39h.04c.09-.35.17-.68.25-1.02.09-.36.17-.71.27-1.07l.81-3.04h1.5l-2,6.52h-1.77l-1.93-6.52h1.56l.74,3.04c.06.24.12.47.17.7h0ZM20.81,17.74c.26-.49.08-1.09-.41-1.35-.48-.26-1.09-.08-1.35.41-1.4,2.59-4.1,4.21-7.05,4.21s-5.65-1.61-7.05-4.21c-.26-.49-.87-.67-1.35-.41-.49.26-.67.87-.41,1.35,1.75,3.24,5.12,5.26,8.81,5.26s7.06-2.01,8.81-5.26ZM12.2,8.96c1.43,0,2.59.57,2.59,2.1s-1.17,2.21-2.55,2.21h-.81v2.21h-1.47v-6.52h2.24ZM12.11,10.13h-.68v1.97h.72c.81,0,1.2-.36,1.2-1.04s-.44-.93-1.24-.93ZM17.62,12.27l1.67,3.21h1.54v-6.52h-1.41v2.31c0,.61.07,1.3.14,1.9.02.16.03.32.05.47h-.04c-.2-.51-.41-1.03-.64-1.47l-1.67-3.21h-1.54v6.52h1.41v-2.31c0-.64-.08-1.36-.16-2-.01-.13-.03-.25-.04-.37h.04c.2.51.42,1.03.65,1.47ZM2,3v3.96c0,.55.45,1,1,1s1-.45,1-1v-3.16l8-1.78,8,1.78v3.16c0,.55.45,1,1,1s1-.45,1-1v-3.96c0-.47-.33-.87-.78-.98L12.22.02c-.14-.03-.29-.03-.43,0L2.78,2.02c-.46.1-.78.51-.78.98Z"/></svg>
