
  <svg xmlns="http://www.w3.org/2000/svg" width="24" height="24" viewBox="0 0 24 24"><path d="M20,7v-3H4v10c0,.55-.45,1-1,1s-1-.45-1-1V4c0-1.1.9-2,2-2h16c1.1,0,2,.9,2,2v3c0,.55-.45,1-1,1s-1-.45-1-1ZM24,16v5c0,.55-.45,1-1,1h-8c-.55,0-1-.45-1-1v-5c0-.55.45-1,1-1h1v-2c0-1.65,1.35-3,3-3s3,1.35,3,3v2h1c.55,0,1,.45,1,1ZM18,15h2v-2c0-.55-.45-1-1-1s-1,.45-1,1v2ZM22,17h-6v3h6v-3ZM0,18c0,2.21,1.79,4,4,4h7c.55,0,1-.45,1-1s-.45-1-1-1h-7c-.74,0-1.39-.4-1.73-1h8.73c.55,0,1-.45,1-1s-.45-1-1-1H1c-.55,0-1,.45-1,1Z"/></svg>
