
  <svg xmlns="http://www.w3.org/2000/svg" width="24" height="24" viewBox="0 0 24 24"><path d="M21.22,2.02L12.22.02c-.14-.03-.29-.03-.43,0L2.78,2.02c-.46.1-.78.51-.78.98v10c0,2.65,1.05,5.2,2.93,7.07,1.88,1.88,4.42,2.93,7.07,2.93s5.2-1.05,7.07-2.93c1.88-1.88,2.93-4.42,2.93-7.07V3c0-.47-.33-.87-.78-.98ZM20,13c0,2.12-.84,4.16-2.34,5.66-1.5,1.5-3.54,2.34-5.66,2.34s-4.16-.84-5.66-2.34-2.34-3.54-2.34-5.66V3.8l8-1.78,8,1.78v9.2Z"/><path d="M9.88,5.88c-.56.56-.88,1.32-.88,2.12h0v2h-1c-.55,0-1,.45-1,1v5c0,.55.45,1,1,1h8c.55,0,1-.45,1-1v-5c0-.55-.45-1-1-1h-1v-2h0c0-.8-.32-1.56-.88-2.12-.56-.56-1.32-.88-2.12-.88h0c-.79,0-1.55.32-2.12.88ZM15,12v3h-6v-3h6ZM12.71,7.29c.19.19.29.44.29.71v2h-2v-2c0-.27.11-.52.29-.71.19-.19.44-.29.71-.29.26,0,.52.11.71.29Z"/></svg>
