
  <svg xmlns="http://www.w3.org/2000/svg" width="24" height="24" viewBox="0 0 24 24"><path d="M13.89,11.26l2.68-2.68c.39-.39,1.02-.39,1.41,0,.39.39.39,1.02,0,1.41l-1.02,1.02h3.52c.55,0,1,.45,1,1s-.45,1-1,1h-3.52l1.02,1.02c.39.39.39,1.02,0,1.41-.2.2-.45.29-.71.29h.01c-.26.01-.51-.09-.71-.28l-2.73-2.73c-.33-.33-.38-.82-.16-1.21.05-.09.12-.18.2-.25ZM14,16.06l-1.01,1.01v-3.51c0-.55-.45-1-1-1s-1,.45-1,1v3.53l-1.03-1.03c-.39-.39-1.02-.39-1.41,0-.39.39-.39,1.02,0,1.41l2.73,2.73c.18.17.41.27.64.29.02,0,.04,0,.06,0h0c.32,0,.61-.16.79-.39l2.63-2.63c.39-.39.39-1.02,0-1.41-.39-.39-1.02-.39-1.41,0ZM9.97,7.96l1.02-1.02v3.51c0,.55.45,1,1,1s1-.45,1-1v-3.51l1.02,1.02c.2.19.45.29.71.29s.51-.09.71-.29c.39-.39.39-1.02,0-1.41l-2.69-2.69c-.18-.21-.45-.34-.75-.34-.32,0-.61.16-.79.39l-2.64,2.64c-.39.39-.39,1.02,0,1.41.39.39,1.02.39,1.41,0ZM3.51,20.48C1.24,18.21,0,15.2,0,11.99,0,5.38,5.38,0,12,0c3.21,0,6.23,1.25,8.49,3.52,2.27,2.27,3.51,5.28,3.51,8.49,0,6.61-5.38,11.99-12,11.99-3.21,0-6.22-1.25-8.49-3.52ZM2,12c0,2.67,1.04,5.18,2.93,7.07,1.89,1.89,4.4,2.93,7.07,2.93,5.52,0,10-4.48,10-9.99,0-2.67-1.04-5.18-2.93-7.07-1.89-1.89-4.4-2.93-7.07-2.93C6.48,2.01,2,6.49,2,12ZM6,14.04c-.39.39-.39,1.02,0,1.41.2.19.45.29.71.29h-.01c.26.01.51-.08.71-.28l2.73-2.73c.08-.08.15-.18.2-.28.06-.13.1-.28.1-.44,0-.34-.17-.64-.43-.82l-2.6-2.6c-.39-.39-1.02-.39-1.41,0-.39.39-.39,1.02,0,1.41l1.01,1.01h-3.5c-.55,0-1,.45-1,1s.45,1,1,1h3.52l-1.03,1.03Z"/></svg>
