
  <svg xmlns="http://www.w3.org/2000/svg" width="24" height="24" viewBox="0 0 24 24"><path d="M23.7,11.93c.4.4.4,1.06,0,1.46l-8.3,8.3c-.2.2-.46.3-.73.3-.27,0-.52-.11-.73-.3l-4.46-4.46c-.4-.4-.4-1.06,0-1.46.4-.4,1.06-.4,1.46,0l3.72,3.73,7.56-7.57c.4-.4,1.06-.4,1.46,0ZM1.77,8.04c2.55-2.55,5.95-3.96,9.56-3.96s7.01,1.41,9.56,3.96c.21.2.46.3.73.3.27,0,.53-.09.73-.3.4-.4.4-1.06,0-1.46-2.95-2.96-6.86-4.58-11.03-4.58S3.24,3.62.3,6.58c-.4.4-.4,1.06,0,1.46.4.4,1.06.4,1.46,0ZM4.7,10.99c-.4.4-.4,1.06,0,1.46s1.06.4,1.46,0c1.38-1.38,3.22-2.14,5.17-2.14s3.79.76,5.17,2.14c.21.2.47.3.74.3h.01c.27,0,.53-.09.74-.3.4-.4.4-1.06,0-1.46-1.77-1.77-4.13-2.75-6.64-2.75s-4.87.98-6.64,2.75Z"/></svg>
