
  <svg xmlns="http://www.w3.org/2000/svg" width="24" height="24" viewBox="0 0 24 24"><path d="M13.84,0v4h.04l1.54-1.95h1.61l-1.72,2.06,1.85,2.9h-1.59l-1.12-1.93-.61.69v1.24h-1.45V0h1.45ZM15,20h4c.55,0,1-.45,1-1s-.45-1-1-1h-4c-.55,0-1,.45-1,1s.45,1,1,1ZM10.96.66v3.71h.73v1.12h-.73v1.52h-1.37v-1.52h-2.75v-1.01l2.32-3.82h1.8ZM9.65,1.92h-.04c-.16.35-.34.71-.52,1.07l-.84,1.38h1.34v-1.03c0-.32.02-.75.04-1.12v-.16s.01-.1.02-.14ZM23.98,14.8c.02.07.02.13.02.2v8c0,.55-.45,1-1,1H1c-.55,0-1-.45-1-1v-8c0-.07.01-.14.02-.2l1.07-5.4c.11-.55.63-.91,1.18-.79.55.11.9.64.79,1.18l-.84,4.21h19.56l-.84-4.2c-.11-.55.24-1.07.78-1.18.54-.12,1.07.24,1.18.78l1.08,5.4ZM22,16H2v6h20v-6ZM5,20c.55,0,1-.45,1-1s-.45-1-1-1-1,.45-1,1,.45,1,1,1Z"/></svg>
