
  <svg xmlns="http://www.w3.org/2000/svg" width="24" height="24" viewBox="0 0 24 24"><path d="M13.72,0v4h.04l1.54-1.95h1.61l-1.72,2.06,1.85,2.9h-1.59l-1.12-1.93-.61.69v1.24h-1.45V0h1.45ZM5,20c.55,0,1-.45,1-1s-.45-1-1-1-1,.45-1,1,.45,1,1,1ZM23.98,14.81c.02.07.02.13.02.2v7.99c0,.55-.45,1-1,1H1c-.55,0-1-.45-1-1v-7.99c0-.07.01-.14.02-.2l1.07-5.4c.11-.55.63-.91,1.18-.79.55.11.9.64.79,1.18l-.84,4.21h19.56l-.84-4.2c-.11-.55.24-1.07.78-1.18.54-.12,1.07.24,1.18.78l1.08,5.4ZM22,16.01H2v5.99h20v-5.99ZM9,5.94c-.54,0-.99-.28-1.37-.63l-.66.93c.5.5,1.2.89,2.24.89,1.24,0,2.33-.87,2.33-2.22s-.93-1.97-2.02-1.97c-.26,0-.47.04-.71.15l.11-1.19h2.33V.66h-3.6l-.18,3.21.66.42c.38-.24.57-.32.94-.32.59,0,1,.33,1,.98s-.42.99-1.07.99ZM15,20h4c.55,0,1-.45,1-1s-.45-1-1-1h-4c-.55,0-1,.45-1,1s.45,1,1,1Z"/></svg>
