
  <svg xmlns="http://www.w3.org/2000/svg" width="24" height="24" viewBox="0 0 24 24"><path d="M11.39,13.02c0-.55.45-1,1-1s1,.45,1,1-.45,1-1,1-1-.45-1-1ZM15.39,20c.55,0,1-.45,1-1s-.45-1-1-1-1,.45-1,1,.45,1,1,1ZM12.39,11.03c.55,0,1-.45,1-1s-.45-1-1-1-1,.45-1,1,.45,1,1,1ZM15.39,14.02c.55,0,1-.45,1-1s-.45-1-1-1-1,.45-1,1,.45,1,1,1ZM12.39,17.01c.55,0,1-.45,1-1s-.45-1-1-1-1,.45-1,1,.45,1,1,1ZM15.39,17.01c.55,0,1-.45,1-1s-.45-1-1-1-1,.45-1,1,.45,1,1,1ZM12.39,20c.55,0,1-.45,1-1s-.45-1-1-1-1,.45-1,1,.45,1,1,1ZM19.39,24H5c-.55,0-1-.45-1-1V6.03c0-.13.02-.25.07-.37L6.07.63c.15-.38.52-.63.93-.63h10.39c.41,0,.78.25.93.63l2,5.03c.05.12.07.24.07.37v16.97c0,.55-.45,1-1,1ZM6.47,5.03h11.44l-1.21-3.03H7.68l-1.21,3.03ZM18.39,7.03H6v14.97h12.39V7.03ZM15.39,11.03c.55,0,1-.45,1-1s-.45-1-1-1-1,.45-1,1,.45,1,1,1Z"/></svg>
