
  <svg xmlns="http://www.w3.org/2000/svg" width="24" height="24" viewBox="0 0 24 24"><path d="M14,19c0-.55.45-1,1-1h4c.55,0,1,.45,1,1s-.45,1-1,1h-4c-.55,0-1-.45-1-1ZM5,20c.55,0,1-.45,1-1s-.45-1-1-1-1,.45-1,1,.45,1,1,1ZM7.27,0v6.51h4.05v-1.24h-2.58V0h-1.47ZM23.98,14.81c.02.07.02.13.02.2v7.99c0,.55-.45,1-1,1H1c-.55,0-1-.45-1-1v-7.99c0-.07.01-.14.02-.2l1.07-5.4c.11-.55.63-.91,1.18-.79.55.11.9.64.79,1.18l-.84,4.21h19.56l-.84-4.2c-.11-.55.24-1.07.78-1.18.54-.12,1.07.24,1.18.78l1.08,5.4ZM22,16.01H2v5.99h20v-5.99ZM12.25,5.61v.91h4.47v-1.24h-1.42c-.29,0-.73.04-1.06.08l.11-.11c1.09-1.07,2.06-2.02,2.06-3.19S15.56.05,14.31.05c-.89,0-1.49.35-2.1,1.04l.77.76c.32-.34.67-.65,1.13-.65.55,0,.9.34.9.96,0,.89-1.16,2.03-2.76,3.45Z"/></svg>
