
  <svg xmlns="http://www.w3.org/2000/svg" width="24" height="24" viewBox="0 0 24 24"><path d="M22.9,9.41c-.11-.54-.64-.9-1.18-.78-.54.11-.89.63-.78,1.18l.84,4.2H2.22l.84-4.21c.11-.54-.24-1.07-.79-1.18-.55-.12-1.07.24-1.18.79L.02,14.81c-.01.06-.02.13-.02.2v7.99c0,.55.45,1,1,1h22c.55,0,1-.45,1-1v-7.99c0-.07,0-.13-.02-.2l-1.08-5.4ZM22,22H2v-5.99h20v5.99ZM8.87,0v5.28h2.58v1.24h-4.05V0h1.47ZM15.13,4.7c0-.56-.33-.91-1.71-.91v-1.04c1.14,0,1.5-.34,1.5-.85,0-.44-.28-.7-.78-.7-.45,0-.79.21-1.19.56l-.74-.9c.58-.5,1.22-.81,2-.81,1.31,0,2.19.63,2.19,1.74,0,.66-.38,1.12-1.06,1.41v.04c.73.21,1.26.73,1.26,1.55,0,1.18-1.08,1.85-2.36,1.85-1.03,0-1.75-.36-2.21-.9l.68-.93c.38.37.85.64,1.39.64.62,0,1.03-.27,1.03-.75ZM4,19c0-.55.45-1,1-1s1,.45,1,1-.45,1-1,1-1-.45-1-1ZM14,19c0-.55.45-1,1-1h4c.55,0,1,.45,1,1s-.45,1-1,1h-4c-.55,0-1-.45-1-1Z"/></svg>
