
  <svg xmlns="http://www.w3.org/2000/svg" width="24" height="24" viewBox="0 0 24 24"><path d="M17.29,12.31c-.39.39-.39,1.02,0,1.41l2.28,2.28H7c-.55,0-1,.45-1,1s.45,1,1,1h12.59l-2.3,2.3c-.39.39-.39,1.02,0,1.41.2.19.45.29.71.29h-.01c.26.01.51-.08.71-.28l4-4s.08-.09.12-.14c.03-.05.06-.09.08-.14.04-.09.07-.18.09-.28,0-.05.01-.1.01-.16,0-.34-.17-.64-.43-.82l-3.87-3.87c-.39-.39-1.02-.39-1.41,0Z"/><path d="M5.29,11.71c.2.19.45.29.71.29v-.02c.25,0,.5-.09.7-.29.39-.39.39-1.02,0-1.41l-2.28-2.28h13.58c.55,0,1-.45,1-1s-.45-1-1-1H4.4l2.3-2.3c.39-.39.39-1.02,0-1.41-.39-.39-1.02-.39-1.41,0l-3.95,3.96c-.08.07-.15.16-.21.26-.22.38-.17.87.16,1.2l4,4Z"/></svg>
