
  <svg xmlns="http://www.w3.org/2000/svg" width="24" height="24" viewBox="0 0 24 24"><path d="M.96,13.6c.38.44.84.79,1.37,1.03.52.24,1.09.37,1.67.37h6.5v5c0,1.06.42,2.08,1.17,2.83.75.75,1.77,1.17,2.83,1.17.45,0,.85-.3.96-.74l2.8-10.26h4.24c.55,0,1-.45,1-1V1c0-.55-.45-1-1-1H5.07c-.95,0-1.88.34-2.6.97-.72.62-1.2,1.48-1.35,2.43h0S.05,10.39.05,10.39H.05c-.09.57-.05,1.15.11,1.71.16.55.43,1.07.81,1.51ZM18.5,2h3v9h-3V2ZM2.02,10.7h0s1.08-7,1.08-7h0c.07-.47.31-.9.67-1.21.36-.31.82-.48,1.3-.48h11.42v9.87l-2.73,10c-.26-.1-.49-.25-.69-.45-.38-.38-.59-.88-.59-1.41v-6c0-.55-.45-1-1-1H4c-.29,0-.57-.06-.84-.18-.26-.12-.49-.3-.68-.51-.19-.22-.33-.48-.41-.75-.08-.28-.1-.57-.05-.85Z"/></svg>
