
  <svg xmlns="http://www.w3.org/2000/svg" width="24" height="24" viewBox="0 0 24 24"><path d="M1,24h4c.55,0,1-.45,1-1v-4c0-.55-.45-1-1-1H1c-.55,0-1,.45-1,1v4c0,.55.45,1,1,1ZM2,20h2v2h-2v-2ZM19,18c-.55,0-1,.45-1,1v4c0,.55.45,1,1,1h4c.55,0,1-.45,1-1v-4c0-.55-.45-1-1-1h-4ZM22,22h-2v-2h2v2ZM14,6c.55,0,1-.45,1-1V1c0-.55-.45-1-1-1h-4c-.55,0-1,.45-1,1v4c0,.55.45,1,1,1h4ZM11,2h2v2h-2v-2ZM3,11h8v-2c0-.55.45-1,1-1s1,.45,1,1v2h8c.55,0,1,.45,1,1v3c0,.55-.45,1-1,1s-1-.45-1-1v-2h-7v2c0,.55-.45,1-1,1s-1-.45-1-1v-2h-7v2c0,.55-.45,1-1,1s-1-.45-1-1v-3c0-.55.45-1,1-1ZM10,18c-.55,0-1,.45-1,1v4c0,.55.45,1,1,1h4c.55,0,1-.45,1-1v-4c0-.55-.45-1-1-1h-4ZM13,22h-2v-2h2v2Z"/></svg>
