
  <svg xmlns="http://www.w3.org/2000/svg" width="24" height="24" viewBox="0 0 24 24"><path d="M1,24h14c.55,0,1-.45,1-1,0-4.42-3.58-8-8-8S0,18.58,0,23c0,.55.45,1,1,1ZM8,17c2.97,0,5.44,2.16,5.92,5H2.08c.48-2.84,2.94-5,5.92-5ZM16,8c2.21,0,4-1.79,4-4s-1.79-4-4-4-4,1.79-4,4,1.79,4,4,4ZM16,2c1.1,0,2,.9,2,2s-.9,2-2,2-2-.9-2-2,.9-2,2-2ZM4,10c0,2.21,1.79,4,4,4s4-1.79,4-4-1.79-4-4-4-4,1.79-4,4ZM10,10c0,1.1-.9,2-2,2s-2-.9-2-2,.9-2,2-2,2,.9,2,2ZM17,16h4.92c-.48-2.84-2.94-5-5.92-5-.29,0-.58.02-.86.06-.55.08-1.05-.3-1.13-.85-.08-.55.3-1.05.85-1.13.37-.05.75-.08,1.14-.08,4.42,0,8,3.58,8,8,0,.55-.45,1-1,1h-6c-.55,0-1-.45-1-1s.45-1,1-1Z"/></svg>
