
  <svg xmlns="http://www.w3.org/2000/svg" width="24" height="24" viewBox="0 0 24 24"><path d="M3,23h18c.8,0,1.56-.32,2.12-.88.56-.56.88-1.33.88-2.12V4c0-.8-.32-1.56-.88-2.12-.56-.56-1.33-.88-2.12-.88H3c-.8,0-1.56.32-2.12.88-.56.56-.88,1.33-.88,2.12v16c0,.8.32,1.56.88,2.12s1.33.88,2.12.88ZM2,4c0-.27.11-.52.29-.71s.44-.29.71-.29h18c.27,0,.52.11.71.29.19.19.29.44.29.71v16c0,.27-.11.52-.29.71s-.44.29-.71.29H3c-.27,0-.52-.11-.71-.29-.19-.19-.29-.44-.29-.71V4ZM9.53,16.88c.33.17.72.15,1.03-.05l6-4c.28-.19.45-.5.45-.83s-.17-.65-.45-.83l-6-4c-.31-.2-.7-.22-1.03-.05s-.53.51-.53.88v8c0,.37.2.71.53.88ZM11,9.87l3.2,2.13-3.2,2.13v-4.26Z"/></svg>
