
  <svg xmlns="http://www.w3.org/2000/svg" width="24" height="24" viewBox="0 0 24 24"><path d="M.56,13.76c.82,1.16,2.24,2.94,4.16,4.45,1.91,1.51,4.39,2.79,7.28,2.79s5.37-1.28,7.28-2.79c1.92-1.51,3.34-3.3,4.16-4.45h0c.36-.52.55-1.13.55-1.76s-.19-1.24-.55-1.76h0c-.82-1.16-2.24-2.95-4.16-4.46-1.91-1.51-4.39-2.79-7.28-2.79s-5.37,1.28-7.28,2.79c-1.92,1.51-3.34,3.3-4.16,4.45h0c-.36.52-.55,1.13-.55,1.76s.19,1.24.55,1.76h0ZM2.19,11.39c.76-1.07,2.05-2.69,3.76-4.03,1.71-1.35,3.76-2.36,6.05-2.36s4.34,1.01,6.05,2.36c1.71,1.34,3,2.96,3.76,4.03.12.18.19.39.19.61s-.07.43-.19.61c-.76,1.07-2.05,2.69-3.76,4.03-1.71,1.35-3.76,2.36-6.05,2.36s-4.34-1.01-6.05-2.36c-1.71-1.34-3-2.96-3.76-4.03-.12-.18-.19-.39-.19-.61s.07-.43.19-.61ZM12,17c2.76,0,5-2.24,5-5s-2.24-5-5-5-5,2.24-5,5,2.24,5,5,5ZM12,9c1.66,0,3,1.34,3,3s-1.34,3-3,3-3-1.34-3-3,1.34-3,3-3Z"/></svg>
