
  <svg xmlns="http://www.w3.org/2000/svg" width="24" height="24" viewBox="0 0 24 24"><path d="M12,4C6.63,4,2.63,7.8.71,10.06c-.95,1.12-.95,2.75,0,3.88,1.91,2.26,5.92,6.06,11.29,6.06s9.38-3.8,11.29-6.06c.95-1.12.95-2.75,0-3.88-1.91-2.26-5.92-6.06-11.29-6.06ZM12,6c2.21,0,4,1.79,4,4s-1.79,4-4,4-4-1.79-4-4,1.79-4,4-4ZM21.76,12.65c-1.69,2-5.2,5.35-9.76,5.35S3.93,14.65,2.24,12.65c-.32-.38-.32-.92,0-1.3.92-1.08,2.37-2.56,4.24-3.69-.31.72-.48,1.51-.48,2.34,0,3.31,2.69,6,6,6s6-2.69,6-6c0-.83-.17-1.62-.48-2.34,1.87,1.13,3.32,2.61,4.24,3.69.32.38.32.92,0,1.3Z"/></svg>
