
  <svg xmlns="http://www.w3.org/2000/svg" width="24" height="24" viewBox="0 0 24 24"><path d="M3,24c1.66,0,3-1.34,3-3s-1.34-3-3-3-3,1.34-3,3,1.34,3,3,3ZM3,20c.55,0,1,.45,1,1s-.45,1-1,1-1-.45-1-1,.45-1,1-1Z"/><path d="M15,21c0-1.66-1.34-3-3-3s-3,1.34-3,3,1.34,3,3,3,3-1.34,3-3ZM12,22c-.55,0-1-.45-1-1s.45-1,1-1,1,.45,1,1-.45,1-1,1Z"/><path d="M3,16c.55,0,1-.45,1-1v-2h7v2c0,.55.45,1,1,1s1-.45,1-1v-2h7v2c0,.55.45,1,1,1s1-.45,1-1v-3c0-.55-.45-1-1-1h-8v-2c0-.55-.45-1-1-1s-1,.45-1,1v2H3c-.55,0-1,.45-1,1v3c0,.55.45,1,1,1Z"/><path d="M12,6c1.66,0,3-1.34,3-3s-1.34-3-3-3-3,1.34-3,3,1.34,3,3,3ZM12,2c.55,0,1,.45,1,1s-.45,1-1,1-1-.45-1-1,.45-1,1-1Z"/><path d="M21,18c-1.66,0-3,1.34-3,3s1.34,3,3,3,3-1.34,3-3-1.34-3-3-3ZM21,22c-.55,0-1-.45-1-1s.45-1,1-1,1,.45,1,1-.45,1-1,1Z"/></svg>
