
  <svg xmlns="http://www.w3.org/2000/svg" width="24" height="24" viewBox="0 0 24 24"><path d="M23,19.89h-8.07c-.31-.9-1.03-1.62-1.93-1.92v-.94c4.19-.49,7.46-4.02,7.54-8.32,0-.05.01-.1.01-.15s0-.1-.01-.15c-.07-4.65-3.88-8.4-8.54-8.4S3.46,3.84,3.46,8.55c0,4.37,3.3,7.99,7.54,8.48v.93c-.9.31-1.62,1.02-1.93,1.92H1c-.55,0-1,.45-1,1s.45,1,1,1h8.06c.41,1.23,1.57,2.11,2.94,2.11s2.52-.88,2.94-2.11h8.06c.55,0,1-.45,1-1s-.45-1-1-1ZM14.62,14.53c.72-1.35,1.15-3.04,1.26-4.98h2.58c-.35,2.23-1.83,4.1-3.84,4.98ZM18.46,7.55h-2.58c-.11-1.95-.55-3.65-1.27-5.01,2.02.88,3.51,2.76,3.86,5.01ZM12,2.31c1.06,1.09,1.74,2.96,1.89,5.24h-3.78c.15-2.29.83-4.16,1.89-5.24ZM5.54,9.55h2.58c.11,1.94.55,3.64,1.27,4.98-2.01-.88-3.5-2.75-3.85-4.98ZM8.12,7.55h-2.58c.34-2.25,1.83-4.12,3.86-5.01-.72,1.35-1.16,3.06-1.27,5.01ZM10.11,9.55h3.78c-.15,2.29-.83,4.16-1.89,5.24-1.06-1.09-1.74-2.96-1.89-5.24ZM13.1,20.89h0c0,.61-.5,1.1-1.1,1.1s-1.1-.5-1.1-1.1.49-1.1,1.1-1.1,1.1.49,1.1,1.09h0Z"/></svg>
