
  <svg xmlns="http://www.w3.org/2000/svg" width="24" height="24" viewBox="0 0 24 24"><path d="M13.5,18.5c0,.83-.67,1.5-1.5,1.5s-1.5-.67-1.5-1.5.67-1.5,1.5-1.5,1.5.67,1.5,1.5ZM12,16c.55,0,1-.45,1-1v-6c0-.55-.45-1-1-1s-1,.45-1,1v6c0,.55.45,1,1,1ZM23.64,19.49c.39.73.46,1.56.22,2.35-.25.78-.78,1.43-1.51,1.81-.45.23-.94.35-1.44.35H3.09c-.84-.02-1.6-.31-2.18-.89-.58-.58-.91-1.35-.91-2.17,0-.51.12-1.01.36-1.45L9.26,2.65c.8-1.51,2.67-2.09,4.18-1.29.55.29,1,.74,1.29,1.29l8.91,16.84h.01ZM21.86,20.42L12.96,3.58c-.05-.1-.12-.19-.2-.27-.07-.07-.16-.13-.25-.18-.54-.29-1.2-.08-1.48.45L2.12,20.43c-.08.15-.12.32-.12.5,0,.29.12.56.32.76.2.2.5.29.76.31h17.82c.18,0,.36-.04.51-.12.26-.13.44-.35.53-.63h0c.08-.28.05-.58-.08-.83Z"/></svg>
