
  <svg xmlns="http://www.w3.org/2000/svg" width="24" height="24" viewBox="0 0 24 24"><path d="M5.7,11.14c-1,.56-1.7,1.51-1.7,2.65,0,1.82,1.74,3.11,3.7,3.21.5.57,1.12,1.03,1.8,1.35.45.21.92.36,1.41.45.16.4.55.68,1.01.68.6,0,1.09-.49,1.09-1.09s-.49-1.09-1.09-1.09c-.38,0-.72.2-.91.5-.37-.07-.73-.19-1.07-.36-.57-.27-1.08-.66-1.5-1.13v-5.26c0-.28-.22-.5-.5-.5-.04,0-.08,0-.12.01-.37,0-.73.06-1.07.15.08-.59.24-1.16.49-1.7.3-.65.71-1.23,1.22-1.73l.21.13h.01c.2.2.52.2.71,0,.36-.37.79-.67,1.26-.87s.99-.31,1.5-.31c.53,0,1.05.1,1.54.31.49.2.93.5,1.31.88.19.2.51.2.71,0h0s.21-.13.21-.13c.51.5.92,1.08,1.22,1.73.25.54.42,1.11.49,1.7-.34-.09-.7-.14-1.07-.15-.04,0-.08-.01-.12-.01-.28,0-.5.22-.5.5h0v5.43h0s0,.01,0,.01c0,.28.22.5.5.5,2.05,0,3.93-1.33,3.93-3.21,0-1.15-.69-2.09-1.7-2.65-.04-.88-.26-1.74-.63-2.54-.31-.68-.73-1.29-1.24-1.83h.01s.04-.03.06-.05c.05-.04.09-.08.12-.12.04-.07.07-.14.08-.22,0-.06,0-.12-.02-.19-.02-.06-.05-.13-.09-.18-.01-.01-.02-.03-.04-.04-.6-.62-1.33-1.11-2.13-1.45-.8-.34-1.66-.51-2.53-.51h-.17c-.87,0-1.73.17-2.53.51-.8.34-1.52.83-2.13,1.45-.01.01-.03.03-.04.04-.04.05-.07.11-.09.17-.04.14-.02.29.06.41.03.05.07.09.12.13.02.01.04.03.06.04h.01c-.51.55-.93,1.17-1.24,1.84-.37.8-.58,1.66-.63,2.54ZM19.37,13.79c0,1.02-.97,2-2.43,2.18v-4.37c1.46.19,2.43,1.17,2.43,2.19ZM9.96,5.43c.68-.29,1.41-.43,2.14-.43h.17c.74,0,1.46.15,2.14.43.48.2.92.47,1.33.8-.02.01-.04.03-.06.04l-.27.16c-.4-.34-.85-.61-1.33-.82-.61-.25-1.27-.38-1.93-.38h0c-.65,0-1.3.13-1.9.39-.47.2-.91.47-1.29.81l-.27-.16s-.04-.03-.06-.04c.4-.33.85-.59,1.33-.8ZM7.43,11.6v4.37c-1.46-.18-2.43-1.17-2.43-2.18s.97-2,2.43-2.19Z"/></svg>
