
  <svg xmlns="http://www.w3.org/2000/svg" width="24" height="24" viewBox="0 0 24 24"><path d="M1.75,12.5h1.03c.36,4.37,3.85,7.86,8.22,8.22v1.03c0,.41.34.75.75.75s.75-.34.75-.75v-1.03c4.37-.36,7.86-3.85,8.22-8.22h1.03c.41,0,.75-.34.75-.75s-.34-.75-.75-.75h-1.03c-.36-4.37-3.85-7.86-8.22-8.22v-1.03c0-.41-.34-.75-.75-.75s-.75.34-.75.75v1.03c-4.37.36-7.86,3.85-8.22,8.22h-1.03c-.41,0-.75.34-.75.75s.34.75.75.75ZM12.5,19.21v-1.46s0-.03,0-.05c2.72-.34,4.87-2.49,5.21-5.21.02,0,.03,0,.05,0h1.46c-.35,3.54-3.17,6.36-6.71,6.71ZM12.5,5.75v-1.46c3.54.35,6.36,3.17,6.71,6.71h-1.46s-.03,0-.05,0c-.34-2.72-2.49-4.87-5.21-5.21,0-.02,0-.03,0-.05ZM11.75,7.19c2.52,0,4.56,2.04,4.56,4.56s-2.04,4.56-4.56,4.56-4.56-2.04-4.56-4.56,2.04-4.56,4.56-4.56ZM11,4.29v1.46s0,.03,0,.05c-2.72.34-4.87,2.49-5.21,5.21-.02,0-.03,0-.05,0h-1.46c.35-3.54,3.17-6.36,6.71-6.71ZM5.75,12.5s.03,0,.05,0c.34,2.72,2.49,4.87,5.21,5.21,0,.02,0,.03,0,.05v1.46c-3.54-.35-6.36-3.17-6.71-6.71h1.46ZM11.88,14.25c1.31,0,2.38-1.06,2.38-2.38s-1.06-2.38-2.38-2.38-2.38,1.06-2.38,2.38,1.06,2.38,2.38,2.38ZM11.88,11c.48,0,.88.39.88.88s-.39.88-.88.88-.88-.39-.88-.88.39-.88.88-.88Z"/></svg>
