
  <svg xmlns="http://www.w3.org/2000/svg" width="24" height="24" viewBox="0 0 24 24"><path d="M4.78,16.47c.51.25,1.07.37,1.63.36,1.34-.01,2.72-.84,3.82-1.94,1.09-.99,1.77-2.35,1.92-3.82,0-.37-.06-.73-.2-1.07.11-.04.23-.06.35-.05h0s0,0,0,0c.12,0,.23.02.34.05-.13.34-.2.7-.2,1.07.14,1.47.83,2.83,1.92,3.82,1.1,1.1,2.48,1.93,3.82,1.94.57.01,1.13-.11,1.63-.36.66-.36,1.17-.96,1.41-1.68.26-.78.39-1.6.36-2.43.04-1.12-.33-2.22-1.04-3.1-.76-.84-1.85-1.3-2.98-1.26h-.06s0,0,0,0H7.09s-.06,0-.06,0c-1.13-.04-2.22.42-2.98,1.26-.71.87-1.08,1.97-1.04,3.1-.06,1.08.18,2.15.69,3.1.26.43.64.77,1.08,1.01ZM15.06,9.09c.75-.18,1.52-.26,2.29-.26.08,0,.16,0,.24,0,.89-.04,1.75.32,2.35.98.58.72.87,1.63.83,2.55.06.92-.14,1.84-.56,2.66-.18.3-.45.55-.76.71-.39.19-.82.28-1.25.27-.97.01-2.24-.69-3.23-1.7-.99-1-1.69-2.28-1.67-3.23-.02-.39.09-.77.31-1.1.37-.45.88-.76,1.46-.88ZM13.6,8.84c-.19.13-.36.27-.51.44-.06-.03-.12-.06-.19-.08-.19-.06-.39-.09-.6-.09h0c-.27,0-.53.05-.77.16-.01,0-.02.01-.03.02-.15-.17-.32-.32-.51-.45h2.61ZM4.67,9.81c.6-.66,1.46-1.02,2.35-.98.08,0,.16,0,.24,0,.99-.03,1.98.13,2.9.47.34.14.63.37.85.66.22.32.32.71.31,1.1.01.95-.68,2.24-1.67,3.23-.99,1-2.26,1.71-3.23,1.7-.43.01-.86-.08-1.25-.27-.48-.27-.85-.71-1.01-1.23-.23-.69-.33-1.41-.31-2.13-.04-.92.26-1.83.83-2.55Z"/></svg>
