
  <svg xmlns="http://www.w3.org/2000/svg" width="24" height="24" viewBox="0 0 24 24"><path d="M10,19c2.12,0,4.08-.74,5.62-1.97l5.68,5.68c.39.39,1.02.39,1.41,0,.39-.39.39-1.02,0-1.41l-5.68-5.68c1.23-1.54,1.97-3.49,1.97-5.62,0-4.97-4.03-9-9-9S1,5.03,1,10s4.03,9,9,9ZM10,3c3.87,0,7,3.13,7,7,0,1.92-.77,3.65-2.02,4.92-.01.01-.02.02-.03.03-.01.01-.02.02-.03.03-1.26,1.25-3,2.02-4.92,2.02-3.87,0-7-3.13-7-7s3.13-7,7-7ZM6,10c0-.55.45-1,1-1h2v-2c0-.55.45-1,1-1s1,.45,1,1v2h2c.55,0,1,.45,1,1s-.45,1-1,1h-2v2c0,.55-.45,1-1,1s-1-.45-1-1v-2h-2c-.55,0-1-.45-1-1Z"/></svg>
