<svg xmlns="http://www.w3.org/2000/svg" xmlns:xlink="http://www.w3.org/1999/xlink" x="0px" y="0px" viewBox="0 0 200 200" xml:space="preserve"><path d="M137 46c-10 -10 -24 -10 -34 0L50 98c-14 14 -14 38 0 53s38 14 53 0l59 -59c3 -3 7 -3 10 0s3 7 0 10L112 160c-20 20 -52 20 -72 0c-20 -20 -20 -52 0 -72l53 -53c15 -15 38 -15 53 0c15 15 15 38 0 53l0 0v0l-49 48c0 0 0 0 0 0c-9 9 -24 10 -33 0c-9 -9 -9 -24 0 -33l40 -40c3 -3 7 -3 10 0c3 3 3 7 0 10l-40 40c0 0 0 0 0 0c-4 3 -4 10 0 14c0 0 0 0 0 0c3 4 10 4 14 0l0 0h0l49 -48C146 70 146 55 137 46z"/></svg>