<svg width="200" height="200" viewBox="0 0 200 200" xmlns="http://www.w3.org/2000/svg"><path d="M158.663 175C157.555 175 156.511 174.739 155.468 174.152L99.968 143.304L44.468 174.152C42.446 175.261 39.968 175.261 38.011 174.087C35.989 172.913 34.815 170.761 34.815 168.478V44.565C34.75 33.804 43.555 25 54.315 25H145.62C156.381 25 165.185 33.804 165.185 44.565V168.478C165.185 170.761 163.946 172.913 161.989 174.087C160.946 174.674 159.837 175 158.663 175ZM99.968 129.348C101.076 129.348 102.12 129.609 103.163 130.196L152.142 157.391V44.565C152.142 40.978 149.207 38.044 145.62 38.044H54.315C50.728 38.044 47.794 40.978 47.794 44.565V157.391L96.772 130.196C97.75 129.674 98.859 129.348 99.968 129.348Z"/></svg>