<svg width="200" height="200" viewBox="0 0 200 200" xmlns="http://www.w3.org/2000/svg"><path fill-rule="evenodd" d="M43.75 25C40.298 25 37.5 27.798 37.5 31.25V168.75C37.5 172.202 40.298 175 43.75 175H156.25C159.702 175 162.5 172.202 162.5 168.75V31.25C162.5 27.798 159.702 25 156.25 25H43.75ZM50 162.5V37.5H150V162.5H50ZM68.75 62.5C65.298 62.5 62.5 65.298 62.5 68.75C62.5 72.202 65.298 75 68.75 75H131.25C134.702 75 137.5 72.202 137.5 68.75C137.5 65.298 134.702 62.5 131.25 62.5H68.75ZM62.5 100C62.5 96.548 65.298 93.75 68.75 93.75H131.25C134.702 93.75 137.5 96.548 137.5 100C137.5 103.452 134.702 106.25 131.25 106.25H68.75C65.298 106.25 62.5 103.452 62.5 100ZM68.75 125C65.298 125 62.5 127.798 62.5 131.25C62.5 134.702 65.298 137.5 68.75 137.5H93.75C97.202 137.5 100 134.702 100 131.25C100 127.798 97.202 125 93.75 125H68.75Z"/></svg>