<svg width="200" height="200" viewBox="0 0 200 200" xmlns="http://www.w3.org/2000/svg"><path fill-rule="evenodd" d="M114.583 160.417C114.583 152.363 108.054 145.833 100 145.833C91.946 145.833 85.417 152.363 85.417 160.417C85.417 168.471 91.946 175 100 175C108.054 175 114.583 168.471 114.583 160.417ZM100 85.417C108.054 85.417 114.583 91.946 114.583 100C114.583 108.054 108.054 114.583 100 114.583C91.946 114.583 85.417 108.054 85.417 100C85.417 91.946 91.946 85.417 100 85.417ZM100 25C108.054 25 114.583 31.529 114.583 39.583C114.583 47.638 108.054 54.167 100 54.167C91.946 54.167 85.417 47.638 85.417 39.583C85.417 31.529 91.946 25 100 25Z"/></svg>