<svg width="200" height="200" viewBox="0 0 200 200" fill="none" xmlns="http://www.w3.org/2000/svg"><path fill-rule="evenodd" d="M39.583 114.583C47.638 114.583 54.167 108.054 54.167 100C54.167 91.945 47.638 85.416 39.583 85.416C31.529 85.416 25 91.945 25 100C25 108.054 31.529 114.583 39.583 114.583ZM114.583 100C114.583 108.054 108.054 114.583 100 114.583C91.946 114.583 85.417 108.054 85.417 100C85.417 91.945 91.946 85.416 100 85.416C108.054 85.416 114.583 91.945 114.583 100ZM175 100C175 108.054 168.471 114.583 160.417 114.583C152.363 114.583 145.833 108.054 145.833 100C145.833 91.945 152.363 85.416 160.417 85.416C168.471 85.416 175 91.945 175 100Z" fill="#FEFEFC"/></svg>