<svg width="200" height="200" viewBox="0 0 200 200" xmlns="http://www.w3.org/2000/svg"><path fill-rule="evenodd" d="M37.5 100C37.5 65.482 65.482 37.5 100 37.5C134.518 37.5 162.5 65.482 162.5 100C162.5 134.518 134.518 162.5 100 162.5C65.482 162.5 37.5 134.518 37.5 100ZM100 25C58.579 25 25 58.579 25 100C25 141.421 58.579 175 100 175C141.421 175 175 141.421 175 100C175 58.579 141.421 25 100 25ZM81.25 90.625C81.25 95.803 77.053 100 71.875 100C66.697 100 62.5 95.803 62.5 90.625C62.5 85.447 66.697 81.25 71.875 81.25C77.053 81.25 81.25 85.447 81.25 90.625ZM128.125 100C133.303 100 137.5 95.803 137.5 90.625C137.5 85.447 133.303 81.25 128.125 81.25C122.947 81.25 118.75 85.447 118.75 90.625C118.75 95.803 122.947 100 128.125 100ZM87.5 118.75C87.5 115.298 84.702 112.5 81.25 112.5C77.798 112.5 75 115.298 75 118.75C75 125.38 77.634 131.739 82.322 136.428C87.011 141.116 93.37 143.75 100 143.75C106.63 143.75 112.989 141.116 117.678 136.428C122.366 131.739 125 125.38 125 118.75C125 115.298 122.202 112.5 118.75 112.5C115.298 112.5 112.5 115.298 112.5 118.75C112.5 122.065 111.183 125.245 108.839 127.589C106.495 129.933 103.315 131.25 100 131.25C96.685 131.25 93.505 129.933 91.161 127.589C88.817 125.245 87.5 122.065 87.5 118.75Z"/></svg>