<svg xmlns="http://www.w3.org/2000/svg" xmlns:xlink="http://www.w3.org/1999/xlink" x="0px" y="0px" viewBox="0 0 200 200" xml:space="preserve"><style type="text/css">
	.st0{fill:#FEFEFC;}
</style><path d="M173 163l-39 -39c8 -10 13 -24 13 -38c0 -34 -27 -61 -61 -61S25 52 25 86s27 61 61 61c14 0 28 -5 38 -13l39 39c3 3 7 3 10 0C176 170 176 166 173 163zM120 120C120 120 120 120 120 120C120 120 120 120 120 120c-9 9 -21 14 -34 14c-26 0 -48 -21 -48 -48S60 39 86 39c26 0 48 21 48 48C134 99 129 111 120 120z"/></svg>