<svg width="200" height="200" viewBox="0 0 200 200" xmlns="http://www.w3.org/2000/svg"><path fill-rule="evenodd" d="M37.5 100C37.5 65.482 65.482 37.5 100 37.5C134.518 37.5 162.5 65.482 162.5 100C162.5 134.518 134.518 162.5 100 162.5C65.482 162.5 37.5 134.518 37.5 100ZM100 25C58.579 25 25 58.579 25 100C25 141.421 58.579 175 100 175C141.421 175 175 141.421 175 100C175 58.579 141.421 25 100 25ZM141.919 79.419C144.36 76.979 144.36 73.021 141.919 70.581C139.479 68.14 135.521 68.14 133.081 70.581L87.5 116.161L66.919 95.581C64.479 93.14 60.521 93.14 58.081 95.581C55.64 98.021 55.64 101.979 58.081 104.419L83.081 129.419C85.521 131.86 89.479 131.86 91.919 129.419L141.919 79.419Z"/></svg>