<svg xmlns="http://www.w3.org/2000/svg" xmlns:xlink="http://www.w3.org/1999/xlink" x="0px" y="0px" viewBox="0 0 240 240" xml:space="preserve"><path d="M120 30c-46 0 -82 37 -82 82V120v38C38 170 48 180 60 180h22C87 180 90 177 90 172V120c0 -4 -3 -8 -8 -8h-30c0 -37 30 -68 68 -68s68 30 68 68h-30c-4 0 -8 3 -8 8v52c0 4 3 8 8 8H180c3 0 5 0 8 -1V180c0 8 -7 15 -15 15h-38c-4 0 -8 3 -8 8s3 8 8 8h38c17 0 30 -13 30 -30v-22V120v-8C202 67 166 30 120 30zM75 128v38H60c-4 0 -8 -3 -8 -8v-30H75zM188 158c0 4 -3 8 -8 8h-15v-38h22V158z"/></svg>