<svg width="240" height="240" viewBox="0 0 240 240" xmlns="http://www.w3.org/2000/svg"><path fill-rule="evenodd" d="M93.75 71.25C93.75 56.752 105.503 45 120 45C134.497 45 146.25 56.752 146.25 71.25C146.25 85.748 134.497 97.5 120 97.5C105.503 97.5 93.75 85.748 93.75 71.25ZM120 30C97.218 30 78.75 48.468 78.75 71.25C78.75 94.032 97.218 112.5 120 112.5C142.782 112.5 161.25 94.032 161.25 71.25C161.25 48.468 142.782 30 120 30ZM120 127.5C78.575 127.5 45 161.075 45 202.5C45 206.642 48.358 210 52.5 210H187.5C191.642 210 195 206.642 195 202.5C195 161.075 161.425 127.5 120 127.5ZM120 142.5C150.6 142.5 175.846 165.4 179.536 195H60.464C64.154 165.4 89.4 142.5 120 142.5Z"/></svg>