<svg width="200" height="200" viewBox="0 0 200 200" xmlns="http://www.w3.org/2000/svg"><path fill-rule="evenodd" d="M172.696 143.687L117.029 38.437C115.217 34.999 112.405 32.187 108.969 30.374C99.536 25.374 87.852 28.999 82.854 38.437L27.249 143.687C25.75 146.437 25 149.562 25 152.749C25 157.874 27.062 162.686 30.686 166.312C34.309 169.936 39.057 171.749 44.305 171.874H155.702C158.826 171.874 161.888 171.124 164.699 169.687C169.259 167.312 172.571 163.249 174.133 158.374C175.632 153.437 175.195 148.249 172.759 143.687H172.696ZM162.137 154.686C161.575 156.436 160.451 157.811 158.826 158.624C157.889 159.124 156.764 159.374 155.64 159.374H44.243C42.618 159.249 40.744 158.687 39.494 157.436C38.245 156.187 37.495 154.499 37.495 152.687C37.495 151.561 37.746 150.499 38.245 149.562L93.912 44.249C95.662 40.937 99.785 39.624 103.159 41.437C103.722 41.733 104.243 42.114 104.702 42.559C105.21 43.053 105.642 43.625 105.97 44.249L161.637 149.499C162.45 151.062 162.637 152.936 162.137 154.624V154.686ZM99.973 121.874C103.409 121.874 106.22 119.061 106.22 115.624V78.124C106.22 74.686 103.409 71.874 99.973 71.874C96.536 71.874 93.725 74.686 93.725 78.124V115.624C93.725 119.061 96.536 121.874 99.973 121.874ZM109.344 137.499C109.344 142.677 105.148 146.874 99.973 146.874C94.797 146.874 90.601 142.677 90.601 137.499C90.601 132.321 94.797 128.124 99.973 128.124C105.148 128.124 109.344 132.321 109.344 137.499Z"/></svg>