<?xml version="1.0" encoding="utf-8"?>
<!-- Generator: Adobe Illustrator 28.2.0, SVG Export Plug-In . SVG Version: 6.00 Build 0)  -->
<svg version="1.1" id="Layer_1" xmlns="http://www.w3.org/2000/svg" xmlns:xlink="http://www.w3.org/1999/xlink" x="0px" y="0px"
	 viewBox="0 0 24 24" style="enable-background:new 0 0 24 24;" xml:space="preserve">
<style type="text/css">
	.st0{fill:#F8F8FB;}
</style>
<path class="st0" d="M12,19.5c0.8,0,1.5,0,2.1-0.1c-0.1,0.5-0.4,0.9-0.8,1.1S12.5,21,12,21s-0.9-0.2-1.3-0.4
	c-0.4-0.3-0.7-0.7-0.8-1.1C10.5,19.5,11.2,19.5,12,19.5z M20.3,15.8c0,0.6-0.4,1.1-0.8,1.5c-0.4,0.3-1.1,0.6-1.7,0.8
	c-1.4,0.4-3.4,0.7-5.7,0.7c-2.3,0-4.3-0.2-5.7-0.7c-0.7-0.2-1.3-0.5-1.7-0.8c-0.4-0.3-0.8-0.8-0.8-1.5c0-0.6,0.2-1,0.5-1.4
	c0.2-0.3,0.4-0.5,0.6-0.7c0.1-0.1,0.1-0.1,0.2-0.2C5.6,12.8,6,12.2,6,11.3V9c0-1.6,0.6-3.1,1.8-4.2S10.4,3,12,3s3.1,0.6,4.2,1.8
	C17.4,5.9,18,7.4,18,9v2.3c0,1,0.4,1.6,0.9,2.1c0.1,0.1,0.1,0.1,0.2,0.2c0.2,0.2,0.4,0.5,0.6,0.7C20,14.7,20.3,15.2,20.3,15.8z
	 M18.8,15.8c0-0.1-0.1-0.3-0.2-0.5c-0.1-0.2-0.3-0.3-0.5-0.5v0h0c-0.1-0.1-0.2-0.2-0.3-0.3c-0.6-0.7-1.3-1.6-1.3-3.1V9
	c0-1.2-0.5-2.3-1.3-3.2c-0.8-0.8-2-1.3-3.2-1.3S9.7,5,8.8,5.8C8,6.7,7.5,7.8,7.5,9v2.3c0,1.5-0.7,2.5-1.3,3.1
	c-0.1,0.1-0.2,0.2-0.3,0.3c-0.2,0.2-0.3,0.4-0.5,0.5c-0.2,0.2-0.2,0.4-0.2,0.5v0c0,0,0,0.1,0.2,0.3c0.2,0.2,0.7,0.4,1.3,0.6
	c1.2,0.4,3,0.6,5.2,0.6s4-0.2,5.2-0.6c0.6-0.2,1-0.4,1.3-0.6C18.8,15.9,18.8,15.8,18.8,15.8L18.8,15.8z"/>
</svg>
