<svg xmlns="http://www.w3.org/2000/svg" xmlns:xlink="http://www.w3.org/1999/xlink" x="0px" y="0px"
	 viewBox="0 0 24 24" xml:space="preserve"><path d="M10.5,13.1v-0.8c0-0.4,0.3-0.8,0.8-0.8h1.5c0.4,0,0.8,0.3,0.8,0.8v0.8c0,0.4-0.3,0.8-0.8,0.8h-1.5
	C10.8,13.9,10.5,13.5,10.5,13.1z M11.2,17.6h1.5c0.4,0,0.8-0.3,0.8-0.8v-0.8c0-0.4-0.3-0.8-0.8-0.8h-1.5c-0.4,0-0.8,0.3-0.8,0.8v0.8
	C10.5,17.3,10.8,17.6,11.2,17.6z M15.8,13.9h1.5c0.4,0,0.8-0.3,0.8-0.8v-0.8c0-0.4-0.3-0.8-0.8-0.8h-1.5c-0.4,0-0.8,0.3-0.8,0.8v0.8
	C15,13.5,15.3,13.9,15.8,13.9z M21,7.9v1.5v9c0,1.2-1,2.2-2.2,2.2H5.2c-1.2,0-2.2-1-2.2-2.2v-9V7.9c0-1.2,1-2.2,2.2-2.2h1.5V4.1
	c0-0.4,0.3-0.8,0.8-0.8s0.8,0.3,0.8,0.8v1.5h7.5V4.1c0-0.4,0.3-0.8,0.8-0.8s0.8,0.3,0.8,0.8v1.5h1.5C20,5.6,21,6.6,21,7.9z
	 M19.5,10.1h-15v8.2c0,0.4,0.3,0.8,0.8,0.8h13.5c0.4,0,0.8-0.3,0.8-0.8V10.1z M19.5,7.9c0-0.4-0.3-0.8-0.8-0.8H5.2
	c-0.4,0-0.8,0.3-0.8,0.8v0.8h15V7.9z M6.8,13.9h1.5c0.4,0,0.8-0.3,0.8-0.8v-0.8c0-0.4-0.3-0.8-0.8-0.8H6.8C6.3,11.6,6,12,6,12.4v0.8
	C6,13.5,6.3,13.9,6.8,13.9z M6.8,17.6h1.5c0.4,0,0.8-0.3,0.8-0.8v-0.8c0-0.4-0.3-0.8-0.8-0.8H6.8c-0.4,0-0.8,0.3-0.8,0.8v0.8
	C6,17.3,6.3,17.6,6.8,17.6z"/>
</svg>
