<svg width="20" height="20" viewBox="0 0 20 20" fill="none" xmlns="http://www.w3.org/2000/svg">
<path fill-rule="evenodd" clip-rule="evenodd" d="M4.375 2.5C4.02982 2.5 3.75 2.77982 3.75 3.125V16.875C3.75 17.2202 4.02982 17.5 4.375 17.5H15.625C15.9702 17.5 16.25 17.2202 16.25 16.875V3.125C16.25 2.77982 15.9702 2.5 15.625 2.5H4.375ZM5 16.25V3.75H15V16.25H5ZM6.875 6.25C6.52982 6.25 6.25 6.52982 6.25 6.875C6.25 7.22018 6.52982 7.5 6.875 7.5H13.125C13.4702 7.5 13.75 7.22018 13.75 6.875C13.75 6.52982 13.4702 6.25 13.125 6.25H6.875ZM6.25 10C6.25 9.65482 6.52982 9.375 6.875 9.375H13.125C13.4702 9.375 13.75 9.65482 13.75 10C13.75 10.3452 13.4702 10.625 13.125 10.625H6.875C6.52982 10.625 6.25 10.3452 6.25 10ZM6.875 12.5C6.52982 12.5 6.25 12.7798 6.25 13.125C6.25 13.4702 6.52982 13.75 6.875 13.75H9.375C9.72018 13.75 10 13.4702 10 13.125C10 12.7798 9.72018 12.5 9.375 12.5H6.875Z" fill="#FEFEFC"/>
</svg>
