<?xml version="1.0" encoding="utf-8"?>
<!-- Generator: Adobe Illustrator 28.2.0, SVG Export Plug-In . SVG Version: 6.00 Build 0)  -->
<svg version="1.1" id="Layer_1" xmlns="http://www.w3.org/2000/svg" xmlns:xlink="http://www.w3.org/1999/xlink" x="0px" y="0px"
	 viewBox="0 0 24 24" style="enable-background:new 0 0 24 24;" xml:space="preserve">
<style type="text/css">
	.st0{fill:#F8F8FB;}
</style>
<path class="st0" d="M7.1,16.1H3.8c-0.5,0-0.8,0.4-0.8,0.8v3.3C3,20.6,3.4,21,3.8,21h3.3c0.5,0,0.8-0.4,0.8-0.8v-3.3
	C7.9,16.5,7.5,16.1,7.1,16.1z M6.3,19.4H4.6v-1.6h1.6V19.4z M21,12c0,0.5-0.4,0.8-0.8,0.8h-9.8c-0.5,0-0.8-0.4-0.8-0.8
	s0.4-0.8,0.8-0.8h9.8C20.6,11.2,21,11.5,21,12z M7.1,3H3.8C3.4,3,3,3.4,3,3.8v3.3c0,0.5,0.4,0.8,0.8,0.8h3.3c0.5,0,0.8-0.4,0.8-0.8
	V3.8C7.9,3.4,7.5,3,7.1,3z M6.3,6.3H4.6V4.6h1.6V6.3z M9.5,5.5c0-0.5,0.4-0.8,0.8-0.8h9.8C20.6,4.6,21,5,21,5.5
	c0,0.5-0.4,0.8-0.8,0.8h-9.8C9.9,6.3,9.5,5.9,9.5,5.5z M21,18.5c0,0.5-0.4,0.8-0.8,0.8h-9.8c-0.5,0-0.8-0.4-0.8-0.8s0.4-0.8,0.8-0.8
	h9.8C20.6,17.7,21,18.1,21,18.5z M7.1,9.5H3.8C3.4,9.5,3,9.9,3,10.4v3.3c0,0.5,0.4,0.8,0.8,0.8h3.3c0.5,0,0.8-0.4,0.8-0.8v-3.3
	C7.9,9.9,7.5,9.5,7.1,9.5z M6.3,12.8H4.6v-1.6h1.6V12.8z"/>
</svg>
