<svg xmlns="http://www.w3.org/2000/svg" xmlns:xlink="http://www.w3.org/1999/xlink" x="0px" y="0px"
	 viewBox="0 0 24 24" xml:space="preserve"><path d="M21,18c0,0.7-0.5,1.2-1,1.5c-0.5,0.3-1.2,0.6-2,0.8c-1.6,0.4-3.7,0.7-6,0.7s-4.5-0.3-6-0.7
	c-0.8-0.2-1.5-0.5-2-0.8c-0.5-0.3-1-0.8-1-1.5c0-0.5,0.3-1,0.7-1.3C4,16.5,4.4,16.2,4.9,16c1-0.4,2.4-0.7,4-0.9
	c0.4,0,0.8,0.3,0.8,0.7s-0.3,0.8-0.7,0.8c-1.5,0.2-2.7,0.4-3.6,0.8c-0.4,0.2-0.7,0.3-0.9,0.5C4.6,17.9,4.5,18,4.5,18
	c0,0,0.1,0.1,0.3,0.2c0.3,0.2,0.8,0.4,1.6,0.6c1.4,0.4,3.4,0.6,5.6,0.6c2.2,0,4.2-0.2,5.6-0.6c0.7-0.2,1.2-0.4,1.6-0.6
	c0.2-0.1,0.3-0.2,0.3-0.2c0,0-0.1-0.1-0.1-0.1c-0.2-0.1-0.4-0.3-0.9-0.5c-0.8-0.3-2.1-0.6-3.6-0.8c-0.4,0-0.7-0.4-0.7-0.8
	c0-0.4,0.4-0.7,0.8-0.7c1.6,0.2,3,0.5,4,0.9c0.5,0.2,1,0.4,1.3,0.7C20.7,17,21,17.5,21,18z M6.8,8.2C6.8,5.4,9.1,3,12,3
	s5.2,2.4,5.2,5.2c0,2.6-2,4.8-4.5,5.2v3.8c0,0.4-0.3,0.8-0.8,0.8s-0.8-0.3-0.8-0.8v-3.8C8.7,13.1,6.8,10.9,6.8,8.2z M8.2,8.2
	c0,2.1,1.7,3.8,3.8,3.8c2.1,0,3.8-1.7,3.8-3.8c0-2.1-1.7-3.8-3.8-3.8C9.9,4.5,8.2,6.2,8.2,8.2z"/>
</svg>
