<svg xmlns="http://www.w3.org/2000/svg" xmlns:xlink="http://www.w3.org/1999/xlink" x="0px" y="0px"
	 viewBox="0 0 20 20" xml:space="preserve">
<style type="text/css">
	.st0{fill:#FEFEFC;}
</style>
<path d="M17.3,16.3l-3.9-3.9c0.8-1,1.3-2.4,1.3-3.8c0-3.4-2.7-6.1-6.1-6.1S2.5,5.2,2.5,8.6s2.7,6.1,6.1,6.1
	c1.4,0,2.8-0.5,3.8-1.3l3.9,3.9c0.3,0.3,0.7,0.3,1,0C17.6,17,17.6,16.6,17.3,16.3z M12,12C12,12,12,12,12,12C12,12,12,12,12,12
	c-0.9,0.9-2.1,1.4-3.4,1.4c-2.6,0-4.8-2.1-4.8-4.8S6,3.9,8.6,3.9c2.6,0,4.8,2.1,4.8,4.8C13.4,9.9,12.9,11.1,12,12z"/>
</svg>
