<svg width="20" height="20" viewBox="0 0 20 20" fill="none" xmlns="http://www.w3.org/2000/svg">
<path fill-rule="evenodd" clip-rule="evenodd" d="M3.86364 8.63635C3.86364 6.00045 6.00046 3.86363 8.63636 3.86363C11.2723 3.86363 13.4091 6.00045 13.4091 8.63635C13.4091 9.94294 12.8841 11.1269 12.0335 11.9888C12.0257 11.9958 12.0181 12.0031 12.0106 12.0106C12.0031 12.0181 11.9958 12.0257 11.9888 12.0334C11.1269 12.884 9.94295 13.4091 8.63636 13.4091C6.00046 13.4091 3.86364 11.2723 3.86364 8.63635ZM12.4666 13.4308C11.4168 14.2706 10.0852 14.7727 8.63636 14.7727C5.24734 14.7727 2.5 12.0254 2.5 8.63635C2.5 5.24734 5.24734 2.5 8.63636 2.5C12.0254 2.5 14.7727 5.24734 14.7727 8.63635C14.7727 10.0852 14.2706 11.4168 13.4308 12.4666L17.3003 16.336C17.5666 16.6023 17.5666 17.034 17.3003 17.3003C17.034 17.5665 16.6023 17.5665 16.3361 17.3003L12.4666 13.4308Z" fill="#FEFEFC"/>
</svg>
