<svg xmlns="http://www.w3.org/2000/svg" xmlns:xlink="http://www.w3.org/1999/xlink" x="0px" y="0px"
	 viewBox="0 0 20 20" xml:space="preserve">
<style type="text/css">
	.st0{fill:#FEFEFC;}
</style>
<path class="st0" d="M14.6,17.9c-0.1,0-0.3,0-0.4-0.1L10,15.6l-4.3,2.2C5.5,18,5.1,18,4.9,17.8c-0.2-0.2-0.4-0.5-0.3-0.8l0.8-4.7
	L1.9,8.9C1.7,8.7,1.6,8.4,1.7,8.1c0.1-0.3,0.3-0.5,0.6-0.5l4.8-0.7l2.1-4.3c0.3-0.5,1.2-0.5,1.4,0l2.1,4.3l4.8,0.7
	c0.3,0,0.6,0.3,0.6,0.5s0,0.6-0.2,0.8l-3.4,3.4l0.8,4.7c0.1,0.3-0.1,0.6-0.3,0.8C15,17.9,14.8,17.9,14.6,17.9z M10,13.9
	c0.1,0,0.3,0,0.4,0.1l3.2,1.7L13,12.1c0-0.3,0-0.5,0.2-0.7l2.6-2.5l-3.6-0.5c-0.3,0-0.5-0.2-0.6-0.4L10,4.7L8.4,7.9
	C8.3,8.2,8.1,8.3,7.8,8.4L4.2,8.9l2.6,2.5C7,11.6,7.1,11.8,7,12.1l-0.6,3.6L9.6,14C9.7,13.9,9.9,13.9,10,13.9z"/>
</svg>
