<svg width="24" height="24" viewBox="0 0 24 24" fill="none" xmlns="http://www.w3.org/2000/svg">
<path fill-rule="evenodd" clip-rule="evenodd" d="M12 3C7.44354 3 3.75 6.69354 3.75 11.25V12V15.75C3.75 16.993 4.75704 18 6 18H8.25C8.66421 18 9 17.6642 9 17.25V12C9 11.5858 8.66421 11.25 8.25 11.25H5.25C5.25 7.52196 8.27196 4.5 12 4.5C15.728 4.5 18.75 7.52196 18.75 11.25H15.75C15.3358 11.25 15 11.5858 15 12V17.25C15 17.6642 15.3358 18 15.75 18H18C18.263 18 18.5154 17.9549 18.75 17.872V18C18.75 18.8285 18.0785 19.5 17.25 19.5H13.5C13.0858 19.5 12.75 19.8358 12.75 20.25C12.75 20.6642 13.0858 21 13.5 21H17.25C18.907 21 20.25 19.657 20.25 18V15.75V12V11.25C20.25 6.69354 16.5565 3 12 3ZM5.25 15.75V12.75H7.5V16.5H6C5.58546 16.5 5.25 16.1645 5.25 15.75ZM18 16.5C18.4145 16.5 18.75 16.1645 18.75 15.75V12.75H16.5V16.5H18Z" fill="#F8F8FB"/>
</svg>
