<?xml version="1.0" encoding="utf-8"?>
<!-- Generator: Adobe Illustrator 28.3.0, SVG Export Plug-In . SVG Version: 6.00 Build 0)  -->
<svg version="1.1" id="b" xmlns="http://www.w3.org/2000/svg" xmlns:xlink="http://www.w3.org/1999/xlink" x="0px" y="0px"
	 viewBox="0 0 1056.7 220.5" style="enable-background:new 0 0 1056.7 220.5;" xml:space="preserve">
<style type="text/css">
	.st0{fill:#2D56CA;}
	.st1{fill:#E2E0DA;}
	.st2{fill:#BDB39E;}
</style>
<path class="st0" d="M111.5,100.5l-56-29.4L0,100v29.3l55.5-29.6l56,29.9V100.5z M111.5,29.4L55.5,0L0,28.9v29.3l55.5-29.6l56,29.9
	C111.5,58.5,111.5,29.4,111.5,29.4z"/>
<path class="st1" d="M487.4,2.7l9.2,32.7l-0.3,0.2c-8.4-7.6-16.4-9-27.7-9h-10.5l0.2,88.2c0,8.4,3.7,12.5,9.2,15v0.3h-44.6v-0.3
	c5.5-2.3,9.2-6.6,9.2-15V26.6h-10.4c-11.3,0-19.4,1.5-27.7,9l-0.3-0.2l8.9-32.7L487.4,2.7L487.4,2.7z M284.2,129.7v0.3h-34
	l-8.2-26.2l-2.4-7l-20.9,11l-21.2-11.2l-2.4,7.2l-8.8,26.2h-33v-0.3c3.5-1.5,6.3-3.8,7.9-7.5l37.4-104.7c1.8-6.5,0.2-12.4-4.7-14.4
	V2.8h50c0,0,0,0.4,0,0.3c-4.7,2-6.4,7.5-4.9,13.7l37.3,105.4C277.8,125.8,280.6,128.2,284.2,129.7L284.2,129.7L284.2,129.7z
	 M231.9,73.7l-13.3-41.9l-13.7,41.7l13.7,7.3C218.6,80.8,231.9,73.7,231.9,73.7z M364.7,106.1h-28.9V18c0-8.4,3.7-12.7,9.2-15V2.7
	h-44.6V3c5.5,2.4,9.2,6.6,9.2,15v96.7c0,8.4-3.7,12.7-9.2,15v0.3h83.3l9.2-32.9l-0.5-0.3C384.1,104.9,375.5,106.1,364.7,106.1z
	 M544.3,114.7L544.1,18c0-8.4,3.7-12.7,9.2-15V2.7h-44.6V3c5.5,2.4,9.2,6.6,9.2,15v33.5l0.2,26.9v36.4c0,8.4-3.7,12.7-9.2,15v0.3
	h44.6v-0.3C547.9,127.4,544.3,123.1,544.3,114.7L544.3,114.7z M1056.1,96.7c-8.3,7.6-16.4,9.3-27.7,9.3h-34.5V77h26
	c8.7,0,12.8,3.8,15.4,9.5h0.3V43.9h-0.3c-2.6,5.7-6.7,9.5-15.4,9.5h-26V26.5h32.6c11.3,0,19.3,1.7,27.5,9.5l0.3-0.3L1046,2.8h-87.7
	v0.3c5.5,2.4,9.2,6.6,9.2,15v96.7c0,8.4-3.7,12.7-9.2,15v0.3h89.7l8.7-32.7L1056.1,96.7z M935,42.2c1.6,7.4,2.4,14.4,2.4,21.1
	c0,16.9-3.4,31.3-10.2,43c-9.2,15.8-23.4,23.7-42.7,23.7h-64.1v-0.3c5.3-2.2,8.9-6.3,9.2-14.1V16.2c-0.5-7.2-4.1-11-9.2-13.1V2.8h64
	c7.9,0.1,14.5,1,19.7,2.8c8.9,2.9,16.1,8.3,21.7,16.2C930.3,27.9,933.4,34.8,935,42.2L935,42.2L935,42.2z M910.4,65
	c0-13-2-22.9-6-29.9c-4.1-6.9-12.2-10.4-24.3-10.4h-24.5v83.1h24.5c12.6,0,21.3-6.2,26.3-18.6C909,82.5,910.4,74.4,910.4,65
	L910.4,65z M576.4,2.7l-8.9,32.7l0.3,0.2c8.3-7.5,16.4-9,27.7-9h10.2v88.2c0,8.4-3.7,12.7-9.2,15v0.3h44.6v-0.3c-5.3-2.4-9-6.6-9-15
	l-0.2-88.2h10.4c11.3,0,19.3,1.4,27.7,9l0.3-0.2l-9-32.7L576.4,2.7L576.4,2.7z M756.7,3c5.3,2.4,9,6.6,9,15v64.3
	c0,15.6-9.9,24-21.4,24s-21.4-8.4-21.4-24V18c0-8.4,3.7-12.7,9.2-15V2.7h-44.6V3c5.5,2.4,9.2,6.6,9.2,15v65.7
	c0,29.5,21.1,48.6,47.7,48.6s47.8-19.1,47.8-48.6V18c0-8.4,3.7-12.7,9.2-15V2.7h-44.6V3H756.7L756.7,3z"/>
<path class="st2" d="M158.4,171.8h16.2c3.7,0,6.5,0.9,8.6,2.6c2.1,1.7,3.1,4.2,3.1,7.3c0,2-0.5,3.7-1.6,5.1s-2.5,2.4-4.3,2.9v0.1
	c2.1,0.5,3.8,1.5,5,3s1.8,3.4,1.8,5.8c0,3.2-1.1,5.7-3.2,7.5c-2.1,1.8-5.2,2.7-9.1,2.7h-16.5V171.8L158.4,171.8z M173.5,187.2
	c1.7,0,3-0.4,3.9-1.3s1.4-2,1.4-3.5s-0.5-2.7-1.4-3.5c-0.9-0.9-2.2-1.3-3.9-1.3H166v9.6H173.5L173.5,187.2z M173.5,202.9
	c1.9,0,3.4-0.4,4.5-1.4c1.1-0.9,1.6-2.2,1.6-3.8s-0.6-2.9-1.6-3.8c-1.1-0.9-2.6-1.4-4.5-1.4H166v10.3L173.5,202.9L173.5,202.9z
	 M198.6,219.1c-2.1-0.9-3.8-2.2-5.1-3.9l3.5-4.6c0.9,1.3,2.1,2.3,3.5,3.1c1.4,0.7,2.9,1.1,4.6,1.1c2.2,0,4-0.7,5.3-2
	s1.9-3.1,1.9-5.5v-1.9h-0.1c-0.8,1.5-1.8,2.6-3.1,3.4c-1.3,0.8-2.7,1.2-4.2,1.2c-2.7,0-4.9-0.9-6.5-2.6c-1.6-1.8-2.4-4.2-2.4-7.2
	v-18h6.8v17.3c0,1.5,0.4,2.7,1.1,3.6s1.8,1.4,3.2,1.4c1.5,0,2.7-0.5,3.6-1.5s1.4-2.3,1.4-3.9v-16.8h6.8l0.1,25.4
	c0,4-1.2,7.2-3.6,9.5c-2.4,2.3-5.7,3.4-9.9,3.4C203.1,220.5,200.7,220,198.6,219.1L198.6,219.1z M251.3,208.3c-2.2-1-4-2.5-5.3-4.4
	s-2-4.2-2.1-6.7l7.1-1.2c0.1,2.4,0.9,4.3,2.4,5.8s3.5,2.2,5.8,2.2c1.9,0,3.5-0.5,4.6-1.4s1.7-2.2,1.7-3.6c0-1.2-0.4-2.2-1.3-2.9
	s-2.2-1.4-4.2-2l-5.1-1.5c-3.4-0.9-5.9-2.2-7.4-3.9s-2.3-3.9-2.3-6.6c0-2.2,0.5-4.2,1.5-5.9s2.5-3,4.4-4c1.9-0.9,4.2-1.4,6.8-1.4
	c2.4,0,4.5,0.4,6.4,1.4c1.9,0.9,3.4,2.2,4.5,3.8s1.8,3.5,1.9,5.7L264,183c-0.1-1.9-0.7-3.4-1.8-4.6c-1.1-1.2-2.5-1.8-4.2-1.8
	s-2.9,0.4-3.9,1.3c-1,0.9-1.5,2-1.5,3.4c0,1.2,0.4,2.2,1.2,3s2.1,1.4,3.9,1.9l5,1.4c3.5,0.9,6.1,2.2,7.7,3.9s2.4,3.9,2.4,6.7
	c0,2.3-0.6,4.3-1.7,6.1s-2.8,3.1-4.9,4.1s-4.6,1.5-7.4,1.5S253.5,209.3,251.3,208.3L251.3,208.3z M287,207.8c-2-1.2-3.5-2.8-4.6-5
	c-1.1-2.1-1.6-4.6-1.6-7.5s0.5-5.3,1.6-7.4c1.1-2.1,2.6-3.8,4.6-4.9c2-1.2,4.3-1.7,6.9-1.7s4.9,0.6,6.9,1.7s3.5,2.8,4.6,4.9
	c1.1,2.1,1.6,4.6,1.6,7.4s-0.5,5.3-1.6,7.5c-1.1,2.1-2.6,3.8-4.6,5s-4.3,1.7-6.9,1.7S289,209,287,207.8z M298.6,201.5
	c1.1-1.5,1.7-3.5,1.7-6.1s-0.6-4.5-1.7-6s-2.7-2.2-4.6-2.2s-3.5,0.8-4.6,2.2s-1.7,3.5-1.7,6s0.6,4.6,1.7,6.1s2.7,2.3,4.6,2.3
	S297.4,203,298.6,201.5z M318.1,207.2c-1.4-1.5-2.1-3.6-2.1-6.3v-18.7h6.8v17.4c0,1.4,0.4,2.4,1.1,3.2s1.7,1.1,2.9,1.1
	c1.6,0,2.9-0.5,3.9-1.6s1.5-2.5,1.5-4.3v-15.8h6.8v26.5h-5.7l-0.9-4l0,0c-0.8,1.5-2,2.7-3.4,3.5s-3.1,1.2-4.9,1.2
	C321.5,209.4,319.6,208.7,318.1,207.2L318.1,207.2z M353.9,207.3c-1.5-1.5-2.3-3.6-2.3-6.2v-13.7H347v-5.2h4.6V175l6.8-1.5v8.7h9
	v5.2h-9v12.5c0,1.3,0.3,2.3,0.9,3s1.4,1.1,2.4,1.1c2.1,0,3.4-1.3,4-3.9l3.3,3.6c-0.5,1.9-1.5,3.3-3,4.4c-1.5,1.1-3.3,1.6-5.5,1.6
	C357.6,209.5,355.4,208.8,353.9,207.3L353.9,207.3z M376.9,170.2h6.8v16l0,0c0.8-1.5,2-2.7,3.4-3.5s3-1.2,4.9-1.2
	c2.5,0,4.4,0.8,5.8,2.2c1.4,1.5,2.1,3.6,2.1,6.3v18.7H393v-17.4c0-1.4-0.4-2.4-1.1-3.2s-1.7-1.1-2.9-1.1c-1.7,0-3,0.5-4,1.6
	s-1.5,2.5-1.5,4.3v15.8h-6.8L376.9,170.2L376.9,170.2z M409.8,170.2h6.8v38.5h-6.8V170.2z M432.3,207.8c-2.1-1.2-3.7-2.9-4.8-5
	c-1.1-2.2-1.7-4.7-1.7-7.6s0.5-5.2,1.6-7.3c1-2.1,2.5-3.7,4.4-4.9s4.1-1.7,6.7-1.7s4.6,0.6,6.5,1.7c1.8,1.1,3.2,2.7,4.2,4.8
	s1.5,4.5,1.5,7.2c0,1.2-0.1,2.1-0.2,2.5h-17.8c0.2,2.1,0.9,3.8,2.2,5.1c1.3,1.2,2.9,1.9,4.9,1.9c1.5,0,2.8-0.4,3.9-1.1
	s1.9-1.7,2.4-3l5.2,2.1c-0.7,2.2-2.1,4-4.2,5.3s-4.5,1.9-7.3,1.9S434.4,209,432.3,207.8L432.3,207.8z M443.7,193
	c-0.1-2-0.6-3.6-1.5-4.8c-0.9-1.1-2.2-1.7-3.8-1.7c-1.7,0-3,0.6-4,1.7s-1.6,2.7-1.9,4.8H443.7z M462,187.4h-4.8v-5.2h4.8v-4.4
	c0-2.6,0.8-4.6,2.5-6.1s3.9-2.3,6.6-2.3c2.1,0,4,0.5,5.5,1.5s2.5,2.4,3.1,4.1l-3.4,3.7c-0.3-1.1-0.8-2-1.5-2.7s-1.5-1-2.5-1
	s-1.8,0.4-2.4,1.1s-0.9,1.6-0.9,2.8v3.4h8.9v5.2H469v21.3h-7V187.4L462,187.4z M491.8,207.3c-1.5-1.5-2.3-3.6-2.3-6.2v-13.7h-4.6
	v-5.2h4.6V175l6.8-1.5v8.7h9v5.2h-9v12.5c0,1.3,0.3,2.3,0.9,3s1.4,1.1,2.4,1.1c2.1,0,3.4-1.3,4-3.9l3.3,3.6c-0.5,1.9-1.5,3.3-3,4.4
	c-1.5,1.1-3.3,1.6-5.5,1.6C495.5,209.5,493.3,208.8,491.8,207.3L491.8,207.3z"/>
</svg>
