<?xml version="1.0" encoding="UTF-8"?><svg id="a" xmlns="http://www.w3.org/2000/svg" viewBox="0 0 1080 482"><path d="m439.7,462.3c-12,0-22.1,4.8-30.1,16.8l-32.7-192.9,2.6-1.4c43.4,66.2,111,107.2,169.9,107.2,42.9,0,71-17.4,71-46.9,0-30.1-39.5-44.9-102.3-66.3-59.6-21.4-133.2-54.3-133.2-140.8C384.9,60.3,455.9,0,554.9,0,609.8,0,635.9,15.4,654.6,15.4c10.8,0,18.1-3.4,25.4-12.8l21.4,170.7-2.6,1.4c-32.1001-54.3-86.4001-85.7-142.5001-85.7-44.1,0-73.6,20.2-73.6,46.9,0,30.2,38.9,42.9,79.6,58.9,70.2,24.2,158,57.5,157.2,148.8,0,80.3-70.2,138.6-164,138.6-57.6,0-95.1-19.9-115.8-19.9Z" fill="#fff"/><path d="m831.5,2.5l126.3,236.7-127.4,238.7h124.2l125.4-238.7L956.8,2.5h-125.3Z" fill="#fff"/><path d="m125.4,2.5L0,241.2l123.2,236.7h125.2l-126.2-236.7L249.6,2.5h-124.2Z" fill="#fff"/></svg>
