<svg xmlns="http://www.w3.org/2000/svg" width="240" height="240" viewBox="0 0 240 240"><path d="M80.4 140.9c-5.4 4.8 -5.9 14.2 0.4 20.5 0.1 0.1 0.2 0.3 0.4 0.4 4.8 5.4 14.2 5.9 20.5 -0.4h0s0 0 0 0l72 -71c14.1 -14.1 14.1 -35.7 0 -49.8 -14.1 -14.1 -35.8 -14.1 -49.9 0l-78 78c-21.1 21.1 -21.1 56.8 0 77.9 21.1 21.1 56.8 21.1 77.9 0l88 -88c3.9 -3.9 10.2 -3.9 14.1 0s3.9 10.2 0 14.1l-88 88c-28.9 28.9 -77.2 28.9 -106.1 0 -28.9 -28.9 -28.9 -77.2 0 -106.1l78 -78c21.9 -21.9 56.2 -21.9 78.1 0s21.9 56.2 0 78.1h0s0 0 0 0l-72 71s0 0 0 0c-13.6 13.6 -36.1 14.2 -49.3 -0.2 -13.4 -13.6 -14 -36 0.4 -49.1l59.8 -59.8c3.9 -3.9 10.2 -3.9 14.1 0s3.9 10.2 0 14.1l-60 60s-0.3 0.2 -0.4 0.4Z"/></svg>