<svg xmlns="http://www.w3.org/2000/svg" width="240" height="240" viewBox="0 0 240 240"><path d="M30 240h180c5.5 0 10 -4.5 10 -10V10c0 -5.5 -4.5 -10 -10 -10H30c-5.5 0 -10 4.5 -10 10v220c0 5.5 4.5 10 10 10ZM40 20h160v200H40V20ZM180 120c0 5.5 -4.5 10 -10 10H70c-5.5 0 -10 -4.5 -10 -10s4.5 -10 10 -10h100c5.5 0 10 4.5 10 10ZM180 70c0 5.5 -4.5 10 -10 10H70c-5.5 0 -10 -4.5 -10 -10s4.5 -10 10 -10h100c5.5 0 10 4.5 10 10ZM120 170c0 5.5 -4.5 10 -10 10h-40c-5.5 0 -10 -4.5 -10 -10s4.5 -10 10 -10h40c5.5 0 10 4.5 10 10Z"/></svg>