<svg xmlns="http://www.w3.org/2000/svg" width="240" height="240" viewBox="0 0 240 240"><path d="M180 105c0 8.3 -6.7 15 -15 15s-15 -6.7 -15 -15 6.7 -15 15 -15 15 6.7 15 15ZM240 120c0 66.3 -53.7 120 -120 120S0 186.3 0 120 53.7 0 120 0s120 53.7 120 120ZM220 120c0 -55.2 -44.8 -100 -100 -100S20 64.8 20 120s44.8 100 100 100 100 -44.8 100 -100ZM150 140c-5.5 0 -10 4.5 -10 10s-2.1 10.4 -5.9 14.1c-3.8 3.8 -8.8 5.9 -14.1 5.9s-10.4 -2.1 -14.1 -5.9c-3.8 -3.8 -5.9 -8.8 -5.9 -14.1s-4.5 -10 -10 -10 -10 4.5 -10 10c0 10.6 4.2 20.8 11.7 28.3 7.5 7.5 17.7 11.7 28.3 11.7s20.8 -4.2 28.3 -11.7c7.5 -7.5 11.7 -17.7 11.7 -28.3 0 -5.5 -4.5 -10 -10 -10ZM90 105c0 -8.3 -6.7 -15 -15 -15s-15 6.7 -15 15 6.7 15 15 15 15 -6.7 15 -15Z"/></svg>