<svg xmlns="http://www.w3.org/2000/svg" width="240" height="240" viewBox="0 0 240 240"><path d="M130 180c0 5.5 -4.5 10 -10 10s-10 -4.5 -10 -10 4.5 -10 10 -10 10 4.5 10 10ZM130.7 50.3c-11.8 -1.1 -24.9 1.2 -36.2 6.2 -5.1 2.2 -7.3 8.1 -5.1 13.2 2.2 5.1 8.1 7.3 13.2 5.1 8.4 -3.7 18.1 -5.3 26.3 -4.6 8.4 0.8 13.3 3.8 15.4 7.1 5 8 3 19.2 -10.2 30.5 -14.8 12.6 -23.9 22.2 -23.9 37.2 0 5.5 4.5 10 10 10s10 -4.5 10 -10c0 -4.9 1.7 -9.1 16.9 -22 16.7 -14.2 26.9 -35.9 14.3 -56.2 -6.7 -10.8 -19 -15.4 -30.5 -16.5ZM240 120c0 66.3 -53.7 120 -120 120S0 186.3 0 120 53.7 0 120 0s120 53.7 120 120ZM220 120c0 -55.2 -44.8 -100 -100 -100S20 64.8 20 120s44.8 100 100 100 100 -44.8 100 -100Z"/></svg>