<svg xmlns="http://www.w3.org/2000/svg" width="240" height="240" viewBox="0 0 240 240"><path d="M135 185c0 8.3 -6.7 15 -15 15s-15 -6.7 -15 -15 6.7 -15 15 -15 15 6.7 15 15ZM120 160c5.5 0 10 -4.5 10 -10v-60c0 -5.5 -4.5 -10 -10 -10s-10 4.5 -10 10v60c0 5.5 4.5 10 10 10ZM236.4 194.9c3.9 7.3 4.6 15.6 2.2 23.5 -2.5 7.8 -7.8 14.3 -15.1 18.1 -4.5 2.3 -9.4 3.5 -14.4 3.5H30.9c-8.4 -0.2 -16 -3.1 -21.8 -8.9 -5.8 -5.8 -9.1 -13.5 -9.1 -21.7 0 -5.1 1.2 -10.1 3.6 -14.5L92.6 26.5c8 -15.1 26.7 -20.9 41.8 -12.9 5.5 2.9 10 7.4 12.9 12.9l89.1 168.4h0.1ZM218.6 204.2L129.6 35.8c-0.5 -1 -1.2 -1.9 -2 -2.7 -0.7 -0.7 -1.6 -1.3 -2.5 -1.8 -5.4 -2.9 -12 -0.8 -14.8 4.5L21.2 204.3c-0.8 1.5 -1.2 3.2 -1.2 5 0 2.9 1.2 5.6 3.2 7.6 2 2 5 2.9 7.6 3.1h178.2c1.8 0 3.6 -0.4 5.1 -1.2 2.6 -1.3 4.4 -3.5 5.3 -6.3h0c0.8 -2.8 0.5 -5.8 -0.8 -8.3Z"/></svg>