<svg width="20" height="20" viewBox="0 0 20 20" xmlns="http://www.w3.org/2000/svg">
<path fill-rule="evenodd" clip-rule="evenodd" d="M11.4583 16.0417C11.4583 15.2363 10.8054 14.5833 9.99999 14.5833C9.19457 14.5833 8.54166 15.2363 8.54166 16.0417C8.54166 16.8471 9.19457 17.5 9.99999 17.5C10.8054 17.5 11.4583 16.8471 11.4583 16.0417ZM9.99999 8.54167C10.8054 8.54167 11.4583 9.19458 11.4583 10C11.4583 10.8054 10.8054 11.4583 9.99999 11.4583C9.19457 11.4583 8.54166 10.8054 8.54166 10C8.54166 9.19458 9.19457 8.54167 9.99999 8.54167ZM9.99999 2.5C10.8054 2.5 11.4583 3.15292 11.4583 3.95833C11.4583 4.76375 10.8054 5.41667 9.99999 5.41667C9.19457 5.41667 8.54166 4.76375 8.54166 3.95833C8.54166 3.15292 9.19457 2.5 9.99999 2.5Z"/>
</svg>
