<svg width="20" height="20" viewBox="0 0 20 20" fill="none" xmlns="http://www.w3.org/2000/svg">
<path fill-rule="evenodd" clip-rule="evenodd" d="M3.95833 11.4583C4.76375 11.4583 5.41667 10.8054 5.41667 9.99996C5.41667 9.19454 4.76375 8.54163 3.95833 8.54163C3.15292 8.54163 2.5 9.19454 2.5 9.99996C2.5 10.8054 3.15292 11.4583 3.95833 11.4583ZM11.4583 9.99996C11.4583 10.8054 10.8054 11.4583 10 11.4583C9.19458 11.4583 8.54167 10.8054 8.54167 9.99996C8.54167 9.19454 9.19458 8.54163 10 8.54163C10.8054 8.54163 11.4583 9.19454 11.4583 9.99996ZM17.5 9.99996C17.5 10.8054 16.8471 11.4583 16.0417 11.4583C15.2363 11.4583 14.5833 10.8054 14.5833 9.99996C14.5833 9.19454 15.2363 8.54163 16.0417 8.54163C16.8471 8.54163 17.5 9.19454 17.5 9.99996Z" fill="#FEFEFC"/>
</svg>
