<svg width="20" height="20" viewBox="0 0 20 20" xmlns="http://www.w3.org/2000/svg">
<path fill-rule="evenodd" clip-rule="evenodd" d="M10 3.75C6.54822 3.75 3.75 6.54822 3.75 10C3.75 13.4518 6.54822 16.25 10 16.25C13.4518 16.25 16.25 13.4518 16.25 10C16.25 6.54822 13.4518 3.75 10 3.75ZM2.5 10C2.5 5.85786 5.85786 2.5 10 2.5C14.1421 2.5 17.5 5.85786 17.5 10C17.5 14.1421 14.1421 17.5 10 17.5C5.85786 17.5 2.5 14.1421 2.5 10ZM10 14.375C10.3452 14.375 10.625 14.0952 10.625 13.75C10.625 13.4048 10.3452 13.125 10 13.125C9.65482 13.125 9.375 13.4048 9.375 13.75C9.375 14.0952 9.65482 14.375 10 14.375ZM8.91077 7.17167C9.43857 6.93843 10.0415 6.83901 10.5515 6.88688C11.0768 6.93619 11.3839 7.12419 11.5121 7.33168C11.8222 7.83356 11.7 8.53315 10.8716 9.23504C9.94539 10.0199 9.37502 10.6205 9.37502 11.5625C9.37502 11.9077 9.65484 12.1875 10 12.1875C10.3452 12.1875 10.625 11.9077 10.625 11.5625C10.625 11.2545 10.7309 10.9927 11.6797 10.1887C12.7263 9.30187 13.3591 7.9427 12.5754 6.67459C12.1568 5.99707 11.3898 5.71007 10.6684 5.64235C9.93163 5.57319 9.11522 5.71471 8.40551 6.02834C8.08979 6.16786 7.94695 6.53691 8.08648 6.85264C8.226 7.16836 8.59505 7.3112 8.91077 7.17167Z"/>
</svg>
