<svg xmlns="http://www.w3.org/2000/svg" xmlns:xlink="http://www.w3.org/1999/xlink" x="0px" y="0px"
	 viewBox="0 0 24 24" xml:space="preserve"><path d="M12,3c-4.6,0-8.2,3.7-8.2,8.2V12v3.8C3.8,17,4.8,18,6,18h2.2C8.7,18,9,17.7,9,17.2V12c0-0.4-0.3-0.8-0.8-0.8h-3
	c0-3.7,3-6.8,6.8-6.8s6.8,3,6.8,6.8h-3c-0.4,0-0.8,0.3-0.8,0.8v5.2c0,0.4,0.3,0.8,0.8,0.8H18c0.3,0,0.5,0,0.8-0.1V18
	c0,0.8-0.7,1.5-1.5,1.5h-3.8c-0.4,0-0.8,0.3-0.8,0.8s0.3,0.8,0.8,0.8h3.8c1.7,0,3-1.3,3-3v-2.2V12v-0.8C20.2,6.7,16.6,3,12,3z
	 M7.5,12.8v3.8H6c-0.4,0-0.8-0.3-0.8-0.8v-3H7.5z M18.8,15.8c0,0.4-0.3,0.8-0.8,0.8h-1.5v-3.8h2.2V15.8z"/>
</svg>
