<svg width="24" height="24" viewBox="0 0 24 24" fill="none" xmlns="http://www.w3.org/2000/svg">
<path fill-rule="evenodd" clip-rule="evenodd" d="M9.375 7.125C9.375 5.67525 10.5503 4.5 12 4.5C13.4497 4.5 14.625 5.67525 14.625 7.125C14.625 8.57475 13.4497 9.75 12 9.75C10.5503 9.75 9.375 8.57475 9.375 7.125ZM12 3C9.72183 3 7.875 4.84683 7.875 7.125C7.875 9.40317 9.72183 11.25 12 11.25C14.2782 11.25 16.125 9.40317 16.125 7.125C16.125 4.84683 14.2782 3 12 3ZM12 12.75C7.85754 12.75 4.5 16.1075 4.5 20.25C4.5 20.6642 4.83579 21 5.25 21H18.75C19.1642 21 19.5 20.6642 19.5 20.25C19.5 16.1075 16.1425 12.75 12 12.75ZM12 14.25C15.06 14.25 17.5846 16.54 17.9536 19.5H6.04641C6.41541 16.54 8.93996 14.25 12 14.25Z" fill="#F8F8FB"/>
</svg>
