<svg width="325" height="41" viewBox="0 0 325 41" fill="none" xmlns="http://www.w3.org/2000/svg">
<g clip-path="url(#clip0_185_511)">
<path d="M34.8646 31.3592L17.358 22.1873L0 31.1967V40.3545L17.3609 31.1226L34.8675 40.44V31.3564L34.8646 31.3592ZM34.8646 9.17199L17.3609 0L0 9.01232V18.1701L17.3609 8.9382L34.8675 18.2556V9.17199H34.8646Z" fill="#2D56CA"/>
<path d="M216.493 26.1759V6.88541C216.493 4.41921 215.413 3.2075 213.795 2.48902V2.40063H226.928V2.48902C225.31 3.16188 224.229 4.41921 224.229 6.88541V25.7711C224.229 30.3471 227.108 32.8133 230.527 32.8133C233.946 32.8133 236.825 30.3471 236.825 25.7711V6.88541C236.825 4.41921 235.744 3.2075 234.172 2.48902V2.40063H247.305V2.48902C245.684 3.16188 244.606 4.41921 244.606 6.88541V26.1759C244.606 34.8347 238.354 40.44 230.527 40.44C222.7 40.44 216.493 34.8319 216.493 26.1759ZM209.149 12.0003L209.058 12.0459C206.585 9.80209 204.247 9.40008 200.916 9.40008H197.858L197.903 35.2852C197.903 37.7514 198.984 38.9631 200.556 39.6816V39.77H187.423V39.6816C189.041 39.0087 190.122 37.7514 190.122 35.2852V9.40008H187.109C183.781 9.40008 181.397 9.8477 178.967 12.0459L178.876 12.0003L181.486 2.40063H206.494L209.147 12.0003H209.149ZM119.921 30.1247L117.222 39.77H92.7091V39.6816C94.3272 39.0087 95.4077 37.7514 95.4077 35.2852V6.88541C95.4077 4.41921 94.3272 3.2075 92.7091 2.48902V2.40063H105.842V2.48902C104.224 3.16188 103.143 4.41921 103.143 6.88541V32.7705H111.645C114.838 32.7705 117.357 32.4113 119.787 30.0335L119.921 30.1219V30.1247ZM324.312 30.1703L321.748 39.77H295.345V39.6816C296.966 39.0087 298.043 37.7514 298.043 35.2852V6.88826C298.043 4.42206 296.963 3.21035 295.345 2.49187V2.40349H321.165L323.594 12.0488L323.503 12.1371C321.073 9.85056 318.735 9.35446 315.407 9.35446H305.828V17.2492H313.475C316.039 17.2492 317.254 16.1287 318.017 14.4665H318.109V26.9828H318.017C317.251 25.3235 316.039 24.2001 313.475 24.2001H305.828V32.7249H315.993C319.321 32.7249 321.705 32.2317 324.135 29.9879L324.315 30.1675L324.312 30.1703ZM151.227 12.0003L151.138 12.0459C148.662 9.80209 146.324 9.40008 142.996 9.40008H139.892L139.938 35.2852C139.938 37.7514 141.015 38.9631 142.636 39.6816V39.77H129.501V39.6816C131.121 39.0087 132.199 37.7514 132.199 35.2852V9.40008H129.14C125.813 9.40008 123.429 9.8477 121.002 12.0459L120.91 12.0003L123.52 2.40063H148.528L151.227 12.0003ZM161.229 16.7103V6.88541C161.229 4.41921 160.149 3.2075 158.531 2.48902V2.40063H171.663V2.48902C170.045 3.16188 168.965 4.41921 168.965 6.88541L169.011 35.2824C169.011 37.7486 170.091 39.0059 171.709 39.6788V39.7671H158.576V39.6788C160.197 39.0059 161.275 37.7486 161.275 35.2824V24.605M288.698 13.9846C288.224 11.8207 287.335 9.81064 286.028 7.95172C284.402 5.65374 282.275 4.07423 279.648 3.21035C278.107 2.70285 276.174 2.432 273.853 2.40063H257.713H255.012C255.012 2.40063 254.997 2.51183 255.012 2.49757C256.512 3.12196 257.553 4.2453 257.713 6.35511V35.5247C257.63 37.8227 256.567 39.0201 254.997 39.673C254.983 39.6588 254.997 39.77 254.997 39.77H258.839L273.853 39.7671C279.513 39.7671 283.699 37.4435 286.409 32.7962C288.407 29.3492 289.407 25.141 289.407 20.1715C289.407 18.21 289.17 16.1486 288.696 13.9875L288.698 13.9846ZM280.26 27.8267C278.802 31.459 276.226 33.278 272.532 33.278H265.314V8.88974H272.532C276.092 8.88974 278.47 9.90473 279.674 11.9319C280.86 13.9761 281.452 16.9013 281.452 20.7018C281.452 23.456 281.054 25.831 280.257 27.8239L280.26 27.8267ZM87.3834 39.673C86.3314 39.234 85.5024 38.5526 85.0478 37.4577L74.059 6.51477C73.6302 4.69577 74.1219 3.07064 75.4998 2.49757C75.5141 2.51183 75.4998 2.40063 75.4998 2.40063H72.5982H63.7506H60.8118C60.8118 2.40063 60.7975 2.51183 60.8118 2.49757C62.2469 3.09345 62.7243 4.82977 62.1983 6.73716L51.198 37.4834C50.7406 38.564 49.9202 39.2397 48.8739 39.673C48.8596 39.6588 48.8739 39.77 48.8739 39.77H52.716L58.562 39.7671L61.1549 32.0863L61.8495 29.9679L68.0958 33.2638L74.2591 30.0363L74.9566 32.0891L77.3722 39.77H87.3777C87.3777 39.77 87.392 39.6645 87.3777 39.6759L87.3834 39.673ZM68.1015 25.3349L64.0793 23.1823L68.0986 10.9425L72.0122 23.2422L68.1015 25.332V25.3349Z" fill="#E2E0DA"/>
</g>
<defs>
<clipPath id="clip0_185_511">
<rect width="324.315" height="40.44" fill="white"/>
</clipPath>
</defs>
</svg>
