<svg width="400" height="51" viewBox="0 0 400 51" fill="none" xmlns="http://www.w3.org/2000/svg">
<g clip-path="url(#clip0_196_2449)">
<path d="M42.7763 38.5419L21.6545 27.4468L0.710144 38.3456V49.4256L21.6545 38.2587L42.7763 49.5313V38.5419ZM42.7763 11.7008L21.6545 0.605713L0.710144 11.5083V22.5882L21.6545 11.4214L42.7763 22.6939V11.7046V11.7008Z" fill="#2D56CA"/>
<path d="M184.713 1.59862L188.175 13.947L188.062 14.0037C184.887 11.1195 181.886 10.5985 177.62 10.5985H173.637L173.697 43.8875C173.697 47.0624 175.079 48.6177 177.159 49.5426V49.6559H160.311V49.5426C162.391 48.6781 163.773 47.0624 163.773 43.8875V10.5985H159.85C155.581 10.5985 152.523 11.1761 149.408 14.0037L149.291 13.947L152.636 1.59862H184.713ZM107.969 49.5351V49.6597H103.039L95.1334 49.6559L92.0378 39.7764L91.1431 37.1376L83.238 41.2902L75.2234 37.0508L74.3325 39.7764L71.0066 49.6559H58.5752C58.5752 49.6559 58.5563 49.52 58.5752 49.5351C59.9153 48.9764 60.9686 48.1081 61.5537 46.7188L75.6651 7.17825C76.3409 4.72442 75.7255 2.49333 73.8833 1.7232C73.8644 1.74208 73.8833 1.59862 73.8833 1.59862H77.6508H88.9988H92.7211C92.7211 1.59862 92.74 1.74208 92.7211 1.7232C90.9506 2.45935 90.3201 4.55077 90.8713 6.88757L104.964 46.6849C105.549 48.093 106.61 48.9688 107.957 49.5351H107.969ZM88.2551 28.4057L83.238 12.588L78.0812 28.3302L83.2418 31.0974L88.2551 28.4095V28.4057ZM138.366 40.6598H127.46V7.36701C127.46 4.19213 128.845 2.58015 130.922 1.71188V1.59485H114.073V1.71188C116.15 2.63678 117.535 4.19213 117.535 7.36701V43.8875C117.535 47.0624 116.15 48.6744 114.073 49.5426V49.6559H145.516L148.978 37.2508L148.804 37.1338C145.69 40.1917 142.458 40.6522 138.362 40.6522L138.366 40.6598ZM206.163 43.8913L206.107 7.37078C206.107 4.19591 207.492 2.58393 209.569 1.71565V1.59862H192.72V1.71565C194.797 2.64056 196.182 4.19591 196.182 7.37078V20.0061L196.239 30.1612V43.8913C196.239 47.0662 194.853 48.6781 192.777 49.5464V49.6597H209.625V49.5464C207.549 48.6819 206.163 47.0662 206.163 43.8913ZM399.393 37.081C396.278 39.9652 393.221 40.5994 388.951 40.5994H375.912V29.6364H385.719C389.008 29.6364 390.567 31.0785 391.548 33.2152H391.665V17.1181H391.548C390.567 19.2511 389.011 20.697 385.719 20.697H375.912V10.5419H388.2C392.469 10.5419 395.471 11.1761 398.585 14.1207L398.702 14.0037L395.588 1.59862H362.468V1.71565C364.545 2.64056 365.93 4.19591 365.93 7.37078V43.8913C365.93 47.0662 364.545 48.6781 362.468 49.5464V49.6634H396.335L399.623 37.315L399.393 37.0847V37.081ZM353.661 16.499C354.269 19.2813 354.575 21.9314 354.575 24.4532C354.575 30.8445 353.291 36.2542 350.728 40.69C347.251 46.666 341.883 49.6559 334.623 49.6559H310.436C310.436 49.6559 310.417 49.52 310.436 49.5351C312.448 48.697 313.815 47.1568 313.92 44.2008V6.68748C313.717 3.97317 312.384 2.5273 310.455 1.72698C310.436 1.74585 310.455 1.6024 310.455 1.6024H313.92H334.623C337.602 1.6477 340.078 1.99501 342.056 2.64433C345.424 3.75422 348.153 5.78523 350.241 8.74115C351.913 11.1308 353.057 13.7168 353.665 16.499H353.661ZM344.371 25.1365C344.371 20.2477 343.608 16.4877 342.087 13.8564C340.543 11.2478 337.489 9.94541 332.924 9.94541H323.664V41.3091H332.924C337.662 41.3091 340.965 38.9723 342.834 34.2987C343.857 31.7354 344.367 28.6813 344.367 25.1365H344.371ZM218.308 1.59862L214.963 13.947L215.08 14.0037C218.195 11.1761 221.253 10.5985 225.522 10.5985H229.388V43.8875C229.388 47.0624 228.003 48.6744 225.926 49.5426V49.6559H242.775V49.5426C240.755 48.6177 239.369 47.0624 239.369 43.8875L239.313 10.5985H243.235C247.505 10.5985 250.506 11.1195 253.677 14.0037L253.794 13.947L250.389 1.59862H218.312H218.308ZM286.37 1.71565C288.389 2.64056 289.775 4.19591 289.775 7.37078V31.6599C289.775 37.5453 286.026 40.7164 281.696 40.7164C277.366 40.7164 273.617 37.5415 273.617 31.6599V7.36701C273.617 4.19213 275.003 2.58015 277.079 1.71188V1.59485H260.231V1.71188C262.307 2.63678 263.692 4.19213 263.692 7.36701V32.1771C263.692 43.3137 271.654 50.5242 281.692 50.5242C291.73 50.5242 299.752 43.3137 299.752 32.1771V7.36701C299.752 4.19213 301.138 2.58015 303.214 1.71188V1.59485H286.366V1.71188L286.37 1.71565Z" fill="#E2E0DA"/>
</g>
<defs>
<clipPath id="clip0_196_2449">
<rect width="398.913" height="50" fill="white" transform="translate(0.710144 0.564941)"/>
</clipPath>
</defs>
</svg>
