<svg xmlns="http://www.w3.org/2000/svg" width="240" height="240" viewBox="0 0 240 240"><path d="M161.6 78.4s0.4 0.7 0.4 1.1v14.9s-0.2 0.7 -0.5 0.9c-0.3 0.2 -0.6 0.4 -1 0.4h-62.5s-0.7 0.2 -1 0.5c-0.3 0.3 -0.4 0.6 -0.5 1v30.6c0 2.3 -1 4.6 -2.6 6.2l-15.3 15.3v-69.8s0.2 -0.8 0.4 -1.1 0.7 -0.4 1.1 -0.4h80.4s0.8 0.2 1.1 0.4ZM93.3 164.6c0.8 0.8 1.8 1.5 2.9 2 1.1 0.5 2.3 0.7 3.5 0.7h60.2s0.7 -0.2 1 -0.5c0.3 -0.3 0.4 -0.6 0.5 -1v-14.9s-0.2 -0.7 -0.5 -1c-0.3 -0.3 -0.6 -0.4 -1 -0.5H78l15.3 15.3ZM115.8 113.7s-0.4 0 -0.6 0.1c-0.2 0 -0.3 0.2 -0.5 0.3 -0.1 0.1 -0.2 0.3 -0.3 0.5 0 0.2 0 0.4 0 0.6v14.9s0.1 0.7 0.4 0.9c0.2 0.2 0.6 0.4 0.9 0.4h33s0.7 -0.1 1 -0.4c0.3 -0.2 0.5 -0.6 0.5 -0.9v-14.9s-0.2 -0.8 -0.4 -1.1c-0.3 -0.3 -0.7 -0.4 -1.1 -0.4h-33ZM228.6 33.5c4.8 15 11.4 43 11.4 83.9s-6.6 71.2 -11.4 87.5c-3.3 11.4 -12 20.3 -23.5 23.8 -15.8 4.8 -44.7 11.2 -85.1 11.2s-69.3 -6.4 -85.1 -11.2c-11.5 -3.5 -20.1 -12.4 -23.5 -23.8 -4.8 -16.4 -11.4 -46.5 -11.4 -87.5S6.6 48.5 11.4 33.5c3.4 -10.6 11.7 -18.6 22.3 -21.9 15.6 -4.8 44.8 -11.6 86.3 -11.6s70.7 6.8 86.3 11.6c10.5 3.3 18.8 11.3 22.3 21.9ZM222 117.4c0 -38.9 -6.3 -65 -10.6 -78.4 -1.6 -4.9 -5.4 -8.6 -10.5 -10.2 -14 -4.3 -41.5 -10.8 -81 -10.8s-67 6.5 -81 10.8c-5.1 1.6 -8.9 5.3 -10.5 10.2 -4.3 13.4 -10.6 39.5 -10.6 78.4s6.3 67.5 10.7 82.5c1.7 5.7 5.8 9.9 11.4 11.6 14.3 4.3 41.4 10.5 79.9 10.5s65.6 -6.1 79.9 -10.5c5.6 -1.7 9.7 -5.9 11.4 -11.6 4.4 -15 10.7 -43.4 10.7 -82.5Z"/></svg>