<svg xmlns="http://www.w3.org/2000/svg" width="240" height="240" viewBox="0 0 240 240"><path d="M214.3 99.8c-1.5 -3.8 -5.2 -6.4 -9.4 -6.3h-14.9V10c0 -5.5 -4.5 -10 -10 -10s-10 4.5 -10 10v83.5h-40V10c0 -5.5 -4.5 -10 -10 -10s-10 4.5 -10 10v83.5h-40V10c0 -5.5 -4.5 -10 -10 -10s-10 4.5 -10 10v83.5h-14.8c-4.1 0 -7.8 2.5 -9.3 6.4L0.7 166.3c-0.5 1.2 -0.7 2.4 -0.7 3.6v60.1c0 5.5 4.5 10 10 10h220c5.5 -0.1 10 -4.6 10 -10.1v-60.1c0 -1.2 -0.2 -2.4 -0.6 -3.5l-25.1 -66.4ZM42.1 113.4h155.9l17.5 46.4H24.5l17.6 -46.4ZM220 220H20v-40.1h200v40.1Z"/></svg>