<svg xmlns="http://www.w3.org/2000/svg" width="240" height="240" viewBox="0 0 240 240"><path d="M55 55c0 30.4 24.6 55 55 55s55 -24.6 55 -55S140.4 0 110 0s-55 24.6 -55 55ZM145 55c0 19.3 -15.7 35 -35 35s-35 -15.7 -35 -35 15.7 -35 35 -35 35 15.7 35 35ZM10 230c0 -55.2 44.8 -100 100 -100 16.5 0 32.1 4 45.9 11.1 4.9 2.5 6.8 8.6 4.3 13.5s-8.6 6.8 -13.5 4.3c-11 -5.7 -23.4 -8.9 -36.7 -8.9 -40.8 0 -74.5 30.5 -79.4 70h129.4c5.5 0 10 4.5 10 10s-4.5 10 -10 10H20c-5.5 0 -10 -4.5 -10 -10ZM240 190c0 5.5 -4.5 10 -10 10h-20v20c0 5.5 -4.5 10 -10 10s-10 -4.5 -10 -10v-20h-20c-5.5 0 -10 -4.5 -10 -10s4.5 -10 10 -10h20v-20c0 -5.5 4.5 -10 10 -10s10 4.5 10 10v20h20c5.5 0 10 4.5 10 10Z"/></svg>