<svg xmlns="http://www.w3.org/2000/svg" width="240" height="240" viewBox="0 0 240 240"><path d="M40 230h160c16.6 0 30 -13.4 30 -30V40c0 -16.6 -13.4 -30 -30 -30H40c-16.6 0 -30 13.4 -30 30v160c0 16.6 13.4 30 30 30ZM30 40c0 -5.5 4.5 -10 10 -10h160c5.5 0 10 4.5 10 10v160c0 5.5 -4.5 10 -10 10H40c-5.5 0 -10 -4.5 -10 -10V40ZM60 120c0 -5.5 4.5 -10 10 -10h40v-40c0 -5.5 4.5 -10 10 -10s10 4.5 10 10v40h40c5.5 0 10 4.5 10 10s-4.5 10 -10 10h-40v40c0 5.5 -4.5 10 -10 10s-10 -4.5 -10 -10v-40h-40c-5.5 0 -10 -4.5 -10 -10Z"/></svg>