<svg xmlns="http://www.w3.org/2000/svg" width="240" height="240" viewBox="0 0 240 240"><path d="M150 20c0 -5.5 -4.5 -10 -10 -10h-40c-5.5 0 -10 4.5 -10 10v40c0 5.5 4.5 10 10 10h40c5.5 0 10 -4.5 10 -10V20ZM130 50h-20v-20h20v20ZM10 220c0 5.5 4.5 10 10 10h40c5.5 0 10 -4.5 10 -10v-40c0 -5.5 -4.5 -10 -10 -10H20c-5.5 0 -10 4.5 -10 10v40ZM30 190h20v20h-20v-20ZM220 90h-40c-5.5 0 -10 4.5 -10 10v40c0 5.5 4.5 10 10 10h40c5.5 0 10 -4.5 10 -10v-40c0 -5.5 -4.5 -10 -10 -10ZM210 130h-20v-20h20v20ZM220 10h-40c-5.5 0 -10 4.5 -10 10v40c0 5.5 4.5 10 10 10h40c5.5 0 10 -4.5 10 -10V20c0 -5.5 -4.5 -10 -10 -10ZM210 50h-20v-20h20v20ZM220 170h-40c-5.5 0 -10 4.5 -10 10v40c0 5.5 4.5 10 10 10h40c5.5 0 10 -4.5 10 -10v-40c0 -5.5 -4.5 -10 -10 -10ZM210 210h-20v-20h20v20ZM150 100c0 -5.5 -4.5 -10 -10 -10h-40c-5.5 0 -10 4.5 -10 10v40c0 5.5 4.5 10 10 10h40c5.5 0 10 -4.5 10 -10v-40ZM130 130h-20v-20h20v20ZM100 230h40c5.5 0 10 -4.5 10 -10v-40c0 -5.5 -4.5 -10 -10 -10h-40c-5.5 0 -10 4.5 -10 10v40c0 5.5 4.5 10 10 10ZM110 190h20v20h-20v-20ZM10 60c0 5.5 4.5 10 10 10h40c5.5 0 10 -4.5 10 -10V20c0 -5.5 -4.5 -10 -10 -10H20c-5.5 0 -10 4.5 -10 10v40ZM30 30h20v20h-20v-20ZM10 140c0 5.5 4.5 10 10 10h40c5.5 0 10 -4.5 10 -10v-40c0 -5.5 -4.5 -10 -10 -10H20c-5.5 0 -10 4.5 -10 10v40ZM30 110h20v20h-20v-20Z"/></svg>