<svg xmlns="http://www.w3.org/2000/svg" width="240" height="240" viewBox="0 0 240 240"><path d="M160 230h-20c-5.5 0 -10 -4.5 -10 -10v-20c0 -5.5 4.5 -10 10 -10h20c5.5 0 10 4.5 10 10v20c0 5.5 -4.5 10 -10 10ZM170 20c0 -5.5 -4.5 -10 -10 -10h-20c-5.5 0 -10 4.5 -10 10v20c0 5.5 4.5 10 10 10h20c5.5 0 10 -4.5 10 -10v-20ZM170 80c0 -5.5 -4.5 -10 -10 -10h-20c-5.5 0 -10 4.5 -10 10v20c0 5.5 4.5 10 10 10h20c5.5 0 10 -4.5 10 -10v-20ZM170 140c0 -5.5 -4.5 -10 -10 -10h-20c-5.5 0 -10 4.5 -10 10v20c0 5.5 4.5 10 10 10h20c5.5 0 10 -4.5 10 -10v-20ZM80 50h20c5.5 0 10 -4.5 10 -10v-20c0 -5.5 -4.5 -10 -10 -10h-20c-5.5 0 -10 4.5 -10 10v20c0 5.5 4.5 10 10 10ZM70 220c0 5.5 4.5 10 10 10h20c5.5 0 10 -4.5 10 -10v-20c0 -5.5 -4.5 -10 -10 -10h-20c-5.5 0 -10 4.5 -10 10v20ZM70 160c0 5.5 4.5 10 10 10h20c5.5 0 10 -4.5 10 -10v-20c0 -5.5 -4.5 -10 -10 -10h-20c-5.5 0 -10 4.5 -10 10v20ZM220 10h-20c-5.5 0 -10 4.5 -10 10v20c0 5.5 4.5 10 10 10h20c5.5 0 10 -4.5 10 -10v-20c0 -5.5 -4.5 -10 -10 -10ZM220 70h-20c-5.5 0 -10 4.5 -10 10v20c0 5.5 4.5 10 10 10h20c5.5 0 10 -4.5 10 -10v-20c0 -5.5 -4.5 -10 -10 -10ZM70 100c0 5.5 4.5 10 10 10h20c5.5 0 10 -4.5 10 -10v-20c0 -5.5 -4.5 -10 -10 -10h-20c-5.5 0 -10 4.5 -10 10v20ZM220 130h-20c-5.5 0 -10 4.5 -10 10v20c0 5.5 4.5 10 10 10h20c5.5 0 10 -4.5 10 -10v-20c0 -5.5 -4.5 -10 -10 -10ZM10 220c0 5.5 4.5 10 10 10h20c5.5 0 10 -4.5 10 -10v-20c0 -5.5 -4.5 -10 -10 -10h-20c-5.5 0 -10 4.5 -10 10v20ZM10 160c0 5.5 4.5 10 10 10h20c5.5 0 10 -4.5 10 -10v-20c0 -5.5 -4.5 -10 -10 -10h-20c-5.5 0 -10 4.5 -10 10v20ZM10 100c0 5.5 4.5 10 10 10h20c5.5 0 10 -4.5 10 -10v-20c0 -5.5 -4.5 -10 -10 -10h-20c-5.5 0 -10 4.5 -10 10v20ZM220 190h-20c-5.5 0 -10 4.5 -10 10v20c0 5.5 4.5 10 10 10h20c5.5 0 10 -4.5 10 -10v-20c0 -5.5 -4.5 -10 -10 -10ZM10 40c0 5.5 4.5 10 10 10h20c5.5 0 10 -4.5 10 -10v-20c0 -5.5 -4.5 -10 -10 -10h-20c-5.5 0 -10 4.5 -10 10v20Z"/></svg>