<svg version="1.1" id="Layer_1" xmlns="http://www.w3.org/2000/svg" xmlns:xlink="http://www.w3.org/1999/xlink" x="0px" y="0px" viewBox="0 0 240 240" style="enable-background:new 0 0 24 24;" xml:space="preserve"><style type="text/css">
	.st0{fill:#F8F8FB;}
</style><path d="M120 195c8 0 15 0 21 -1c-1 5 -4 9 -8 11S125 210 120 210s-9 -2 -13 -4c-4 -3 -7 -7 -8 -11C105 195 112 195 120 195zM203 158c0 6 -4 11 -8 15c-4 3 -11 6 -17 8c-14 4 -34 7 -57 7c-23 0 -43 -2 -57 -7c-7 -2 -13 -5 -17 -8c-4 -3 -8 -8 -8 -15c0 -6 2 -10 5 -14c2 -3 4 -5 6 -7c1 -1 1 -1 2 -2C56 128 60 122 60 113V90c0 -16 6 -31 18 -42S104 30 120 30s31 6 42 18C174 59 180 74 180 90v23c0 10 4 16 9 21c1 1 1 1 2 2c2 2 4 5 6 7C200 147 203 152 203 158zM188 158c0 -1 -1 -3 -2 -5c-1 -2 -3 -3 -5 -5v0h0c-1 -1 -2 -2 -3 -3c-6 -7 -13 -16 -13 -31V90c0 -12 -5 -23 -13 -32c-8 -8 -20 -13 -32 -13S97 50 88 58C80 67 75 78 75 90v23c0 15 -7 25 -13 31c-1 1 -2 2 -3 3c-2 2 -3 4 -5 5c-2 2 -2 4 -2 5v0c0 0 0 1 2 3c2 2 7 4 13 6c12 4 30 6 52 6s40 -2 52 -6c6 -2 10 -4 13 -6C188 159 188 158 188 158L188 158z"/></svg>