<svg xmlns="http://www.w3.org/2000/svg" width="240" height="240" viewBox="0 0 240 240"><path d="M102.3 234.2c-5.1 -3.8 -8.9 -9.1 -10.8 -15.2 8.9 0.7 18.4 1 28.5 1s19.6 -0.3 28.5 -1c-1.9 6.1 -5.7 11.4 -10.8 15.2 -5.1 3.8 -11.3 5.8 -17.7 5.8s-12.6 -2 -17.7 -5.8ZM223.4 151.4c3.5 4.9 6.6 10.9 6.6 18.6 0 8.5 -4.9 15.1 -10.9 19.7 -5.9 4.7 -14 8.3 -23.3 11.2 -18.7 5.8 -44.8 9.1 -75.8 9.1s-57.2 -3.3 -75.8 -9.1c-9.3 -2.9 -17.3 -6.5 -23.3 -11.2 -5.9 -4.7 -10.9 -11.3 -10.9 -19.7 0 -7.6 3.1 -13.7 6.6 -18.6 2.4 -3.4 5.6 -6.8 8.3 -9.9 0.9 -1 1.8 -2 2.6 -2.9 6.9 -7.9 12.5 -15.8 12.5 -28.6v-30c0 -21.2 8.4 -41.6 23.4 -56.6S98.8 0 120 0s41.6 8.4 56.6 23.4c15 15 23.4 35.4 23.4 56.6v30c0 12.9 5.6 20.8 12.5 28.6 0.8 0.9 1.7 1.9 2.6 2.9 2.8 3.1 5.9 6.5 8.3 9.9ZM210 170c0 -1.9 -0.7 -3.9 -2.8 -6.9 -1.7 -2.4 -3.6 -4.5 -6.1 -7.2h0c-1.1 -1.2 -2.3 -2.5 -3.6 -4 -8.1 -9.1 -17.5 -21.7 -17.5 -41.9v-30c0 -15.9 -6.3 -31.2 -17.6 -42.4 -11.3 -11.3 -26.5 -17.6 -42.4 -17.6s-31.2 6.3 -42.4 17.6 -17.6 26.5 -17.6 42.4v30c0 20.1 -9.4 32.7 -17.5 41.9 -1.3 1.5 -2.5 2.8 -3.6 4 -2.5 2.7 -4.4 4.9 -6.1 7.2 -2.2 3 -2.8 5.1 -2.8 6.9h0s0 1.4 3.2 4c3.3 2.6 8.8 5.3 16.9 7.8 16.1 5 40 8.2 69.9 8.2s53.8 -3.2 69.9 -8.2c8.1 -2.5 13.6 -5.3 16.9 -7.8 3.2 -2.5 3.2 -3.9 3.2 -4h0Z"/></svg>