<svg xmlns="http://www.w3.org/2000/svg" width="240" height="240" viewBox="0 0 240 240"><path d="M110 90v-10c0 -5.5 4.5 -10 10 -10s10 4.5 10 10v10c0 5.5 -4.5 10 -10 10s-10 -4.5 -10 -10ZM160 100c5.5 0 10 -4.5 10 -10v-10c0 -5.5 -4.5 -10 -10 -10s-10 4.5 -10 10v10c0 5.5 4.5 10 10 10ZM160 150c5.5 0 10 -4.5 10 -10v-10c0 -5.5 -4.5 -10 -10 -10s-10 4.5 -10 10v10c0 5.5 4.5 10 10 10ZM120 150c5.5 0 10 -4.5 10 -10v-10c0 -5.5 -4.5 -10 -10 -10s-10 4.5 -10 10v10c0 5.5 4.5 10 10 10ZM80 120c-5.5 0 -10 4.5 -10 10v10c0 5.5 4.5 10 10 10s10 -4.5 10 -10v-10c0 -5.5 -4.5 -10 -10 -10ZM40 230c-5.5 0 -10 -4.5 -10 -10V40c0 -4.2 2.6 -7.9 6.5 -9.4L116.5 0.6c2.3 -0.8 4.8 -0.8 7 0l80 30c3.9 1.5 6.5 5.2 6.5 9.4v180c0 5.5 -4.5 10 -10 10H40ZM50 210h50v-40h40v40h50V46.9l-70 -26.2 -70 26.2v163.1ZM80 70c-5.5 0 -10 4.5 -10 10v10c0 5.5 4.5 10 10 10s10 -4.5 10 -10v-10c0 -5.5 -4.5 -10 -10 -10Z"/></svg>