<svg xmlns="http://www.w3.org/2000/svg" width="240" height="240" viewBox="0 0 240 240"><path d="M232.9 30.4L132.9 0.4c-3 -0.9 -6.3 -0.3 -8.8 1.6 -2.5 1.9 -4 4.9 -4 8v40c0 5.5 4.5 10 10 10s10 -4.5 10 -10v-26.6l80 24v162.6h-60v-130c0 -5.5 -4.5 -10 -10 -10H50c-5.5 0 -10 4.5 -10 10v30H10c-5.5 0 -10 4.5 -10 10v100c0 5.5 4.5 10 10 10h220c5.5 0 10 -4.5 10 -10V40c0 -4.4 -2.9 -8.3 -7.1 -9.6ZM40 210h-20v-80h20v80ZM140 210H60v-120h80v120ZM80 150c0 -5.5 4.5 -10 10 -10h20c5.5 0 10 4.5 10 10s-4.5 10 -10 10h-20c-5.5 0 -10 -4.5 -10 -10ZM80 120c0 -5.5 4.5 -10 10 -10h20c5.5 0 10 4.5 10 10s-4.5 10 -10 10h-20c-5.5 0 -10 -4.5 -10 -10ZM80 180c0 -5.5 4.5 -10 10 -10h20c5.5 0 10 4.5 10 10s-4.5 10 -10 10h-20c-5.5 0 -10 -4.5 -10 -10ZM190 190c-5.5 0 -10 -4.5 -10 -10v-100c0 -5.5 4.5 -10 10 -10s10 4.5 10 10v100c0 5.5 -4.5 10 -10 10Z"/></svg>