<svg xmlns="http://www.w3.org/2000/svg" xmlns:xlink="http://www.w3.org/1999/xlink" x="0px" y="0px" viewBox="0 0 240 240" xml:space="preserve"><path d="M105 131v-8c0 -4 3 -8 8 -8h15c4 0 8 3 8 8v8c0 4 -3 8 -8 8h-15C108 139 105 135 105 131zM112 176h15c4 0 8 -3 8 -8v-8c0 -4 -3 -8 -8 -8h-15c-4 0 -8 3 -8 8v8C105 173 108 176 112 176zM158 139h15c4 0 8 -3 8 -8v-8c0 -4 -3 -8 -8 -8h-15c-4 0 -8 3 -8 8v8C150 135 153 139 158 139zM210 79v15v90c0 12 -10 22 -22 22H52c-12 0 -22 -10 -22 -22v-90V79c0 -12 10 -22 22 -22h15V41c0 -4 3 -8 8 -8s8 3 8 8v15h75V41c0 -4 3 -8 8 -8s8 3 8 8v15h15C200 56 210 66 210 79zM195 101h-150v82c0 4 3 8 8 8h135c4 0 8 -3 8 -8V101zM195 79c0 -4 -3 -8 -8 -8H52c-4 0 -8 3 -8 8v8h150V79zM68 139h15c4 0 8 -3 8 -8v-8c0 -4 -3 -8 -8 -8H68C63 116 60 120 60 124v8C60 135 63 139 68 139zM68 176h15c4 0 8 -3 8 -8v-8c0 -4 -3 -8 -8 -8H68c-4 0 -8 3 -8 8v8C60 173 63 176 68 176z"/></svg>