<svg width="240" height="240" viewBox="0 0 240 240" fill="none" xmlns="http://www.w3.org/2000/svg"><path fill-rule="evenodd" d="M82.5 41.25C82.5 37.108 79.142 33.75 75 33.75C70.858 33.75 67.5 37.108 67.5 41.25V56.25H52.5C40.074 56.25 30 66.324 30 78.75V93.75V183.75C30 196.176 40.074 206.25 52.5 206.25H187.5C199.926 206.25 210 196.176 210 183.75V93.75V78.75C210 66.324 199.926 56.25 187.5 56.25H172.5V41.25C172.5 37.108 169.142 33.75 165 33.75C160.858 33.75 157.5 37.108 157.5 41.25V56.25H82.5V41.25ZM195 86.25V78.75C195 74.608 191.642 71.25 187.5 71.25H52.5C48.358 71.25 45 74.608 45 78.75V86.25H195ZM45 101.25H195V183.75C195 187.892 191.642 191.25 187.5 191.25H52.5C48.358 191.25 45 187.892 45 183.75V101.25ZM60 123.75C60 119.608 63.358 116.25 67.5 116.25H82.5C86.642 116.25 90 119.608 90 123.75V131.25C90 135.392 86.642 138.75 82.5 138.75H67.5C63.358 138.75 60 135.392 60 131.25V123.75ZM112.5 116.25C108.358 116.25 105 119.608 105 123.75V131.25C105 135.392 108.358 138.75 112.5 138.75H127.5C131.642 138.75 135 135.392 135 131.25V123.75C135 119.608 131.642 116.25 127.5 116.25H112.5ZM60 161.25C60 157.108 63.358 153.75 67.5 153.75H82.5C86.642 153.75 90 157.108 90 161.25V168.75C90 172.892 86.642 176.25 82.5 176.25H67.5C63.358 176.25 60 172.892 60 168.75V161.25ZM112.5 153.75C108.358 153.75 105 157.108 105 161.25V168.75C105 172.892 108.358 176.25 112.5 176.25H127.5C131.642 176.25 135 172.892 135 168.75V161.25C135 157.108 131.642 153.75 127.5 153.75H112.5ZM150 123.75C150 119.608 153.358 116.25 157.5 116.25H172.5C176.642 116.25 180 119.608 180 123.75V131.25C180 135.392 176.642 138.75 172.5 138.75H157.5C153.358 138.75 150 135.392 150 131.25V123.75Z" fill="#F8F8FB"/></svg>