<svg xmlns="http://www.w3.org/2000/svg" width="240" height="240" viewBox="0 0 240 240"><path d="M100 180v-10c0 -5.5 4.5 -10 10 -10h20c5.5 0 10 4.5 10 10v10c0 5.5 -4.5 10 -10 10h-20c-5.5 0 -10 -4.5 -10 -10ZM110 140h20c5.5 0 10 -4.5 10 -10v-10c0 -5.5 -4.5 -10 -10 -10h-20c-5.5 0 -10 4.5 -10 10v10c0 5.5 4.5 10 10 10ZM50 140h20c5.5 0 10 -4.5 10 -10v-10c0 -5.5 -4.5 -10 -10 -10h-20c-5.5 0 -10 4.5 -10 10v10c0 5.5 4.5 10 10 10ZM50 190h20c5.5 0 10 -4.5 10 -10v-10c0 -5.5 -4.5 -10 -10 -10h-20c-5.5 0 -10 4.5 -10 10v10c0 5.5 4.5 10 10 10ZM240 60v140c0 16.6 -13.4 30 -30 30H30c-16.6 0 -30 -13.4 -30 -30V60c0 -16.6 13.4 -30 30 -30h20V10c0 -5.5 4.5 -10 10 -10s10 4.5 10 10v20h100V10c0 -5.5 4.5 -10 10 -10s10 4.5 10 10v20h20c16.6 0 30 13.4 30 30ZM220 90H20v110c0 5.5 4.5 10 10 10h180c5.5 0 10 -4.5 10 -10v-110ZM220 60c0 -5.5 -4.5 -10 -10 -10H30c-5.5 0 -10 4.5 -10 10v10h200v-10ZM170 140h20c5.5 0 10 -4.5 10 -10v-10c0 -5.5 -4.5 -10 -10 -10h-20c-5.5 0 -10 4.5 -10 10v10c0 5.5 4.5 10 10 10Z"/></svg>