<svg xmlns="http://www.w3.org/2000/svg" width="240" height="240" viewBox="0 0 240 240"><path d="M14.8 146.9L0.2 68.3c-1 -5.4 2.6 -10.7 8 -11.7s10.7 2.6 11.7 8l14.6 78.6c1 5.4 -2.6 10.7 -8 11.7 -5.4 1 -10.7 -2.6 -11.7 -8ZM214.6 18.2l18.3 98.3c1 5.4 -2.6 10.7 -8 11.7l-157.3 29.3c-5.4 1 -10.7 -2.6 -11.7 -8l-18.3 -98.3c-1 -5.4 2.6 -10.7 8 -11.7l157.3 -29.3c5.4 -1 10.7 2.6 11.7 8ZM211.4 110.3l-14.6 -78.6 -137.6 25.6 14.6 78.6 137.6 -25.6ZM93.8 67.6c-5.4 1 -9 6.2 -8 11.7 1 5.4 6.2 9 11.7 8 5.4 -1 9 -6.2 8 -11.7 -1 -5.4 -6.2 -9 -11.7 -8ZM225.6 227.5c5.5 0 10 -4.5 10 -10s-4.5 -10 -10 -10h-40v-40c0 -5.5 -4.5 -10 -10 -10s-10 4.5 -10 10v40h-40c-5.5 0 -10 4.5 -10 10s4.5 10 10 10h100Z"/></svg>