<svg xmlns="http://www.w3.org/2000/svg" width="240" height="240" viewBox="0 0 240 240"><path d="M0 147.1V40C0 17.9 17.9 0 40 0h46.2c5.5 0 10 4.5 10 10s-4.5 10 -10 10h-46.2c-11 0 -20 9 -20 20v107.1c0 5.5 -4.5 10 -10 10s-10 -4.5 -10 -10ZM90 240H10c-5.5 0 -10 -4.5 -10 -10v-42.8c0 -5.5 4.5 -10 10 -10h30v-57.2c0 -5.5 4.5 -10 10 -10h40c5.5 0 10 4.5 10 10v26.7h30c5.5 0 10 4.5 10 10v73.3c0 5.5 -4.5 10 -10 10h-40ZM100 220h20v-53.3h-20v53.3ZM40 197.2h-20v22.8h20v-22.8ZM80 130h-20v90h20v-90ZM230 148.8c-5.5 0 -10 4.5 -10 10v41.2c0 11 -9 20 -20 20h-30c-5.5 0 -10 4.5 -10 10s4.5 10 10 10h30c22.1 0 40 -17.9 40 -40v-41.2c0 -5.5 -4.5 -10 -10 -10ZM214.7 52.2c0 10.8 -3.3 20.9 -9 29.2l27.1 27.1c3.9 3.9 3.9 10.2 0 14.1 -2 2 -4.5 2.9 -7 2.9 -2.6 0 -5.1 -1 -7.1 -2.9l-27.1 -27.1c-8.3 5.6 -18.3 8.9 -29.1 8.9 -28.8 0 -52.2 -23.4 -52.2 -52.2S133.7 0 162.5 0s52.2 23.4 52.2 52.2ZM194.7 52.2c0 -17.7 -14.5 -32.2 -32.2 -32.2s-32.2 14.4 -32.2 32.2 14.4 32.2 32.2 32.2c8.7 0 16.7 -3.5 22.5 -9.1 0 0 0.2 -0.2 0.2 -0.3 0 0 0.2 -0.2 0.3 -0.3 5.7 -5.8 9.2 -13.8 9.2 -22.5Z"/></svg>