<svg width="200" height="200" viewBox="0 0 200 200" fill="none" xmlns="http://www.w3.org/2000/svg"><path fill-rule="evenodd" d="M37.5 100C37.5 65.482 65.482 37.5 100 37.5C134.518 37.5 162.5 65.482 162.5 100C162.5 134.518 134.518 162.5 100 162.5C65.482 162.5 37.5 134.518 37.5 100ZM100 25C58.579 25 25 58.579 25 100C25 141.421 58.579 175 100 175C141.421 175 175 141.421 175 100C175 58.579 141.421 25 100 25ZM106.25 62.5C106.25 59.048 103.452 56.25 100 56.25C96.548 56.25 93.75 59.048 93.75 62.5V100C93.75 103.452 96.548 106.25 100 106.25H137.5C140.952 106.25 143.75 103.452 143.75 100C143.75 96.548 140.952 93.75 137.5 93.75H106.25V62.5Z" fill="#FEFEFC"/></svg>