<svg xmlns="http://www.w3.org/2000/svg" width="240" height="240" viewBox="0 0 240 240"><path d="M30 200h80v20h-50c-5.5 0 -10 4.5 -10 10s4.5 10 10 10h120c5.5 0 10 -4.5 10 -10s-4.5 -10 -10 -10h-50v-20h80c16.6 0 30 -13.4 30 -30V30c0 -16.6 -13.4 -30 -30 -30H30C13.4 0 0 13.4 0 30v140c0 16.6 13.4 30 30 30ZM20 30c0 -5.5 4.5 -10 10 -10h180c5.5 0 10 4.5 10 10v110H20V30ZM20 160h200v10c0 5.5 -4.5 10 -10 10H30c-5.5 0 -10 -4.5 -10 -10v-10ZM130 50c0 5.5 -4.5 10 -10 10s-10 -4.5 -10 -10 4.5 -10 10 -10 10 4.5 10 10Z"/></svg>