<svg xmlns="http://www.w3.org/2000/svg" width="240" height="240" viewBox="0 0 240 240"><path d="M0 10.1C0 4.5 4.5 0 10 0h70c5.5 0 10 4.5 10 10.1s-4.5 10.1 -10 10.1H10c-5.5 0 -10 -4.5 -10 -10.1ZM190 179.6c-5.5 0 -10 4.5 -10 10.1s4.5 10.1 10 10.1 10 -4.5 10 -10.1 -4.5 -10.1 -10 -10.1ZM150 179.7H50c-5.5 0 -10 4.5 -10 10.1s4.5 10.1 10 10.1h100c5.5 0 10 -4.5 10 -10.1s-4.5 -10.1 -10 -10.1ZM80 40.2h-30c-5.5 0 -10 4.5 -10 10.1s4.5 10.1 10 10.1h30c5.5 0 10 -4.5 10 -10.1s-4.5 -10.1 -10 -10.1ZM0 229.9v-139.5c0 -5.5 4.5 -10.1 10 -10.1s10 4.5 10 10.1v49h200V20.2h-100c-5.5 0 -10 -4.5 -10 -10.1S114.5 0.1 120 0.1h110c5.5 0 10 4.5 10 10.1v219.8c0 5.5 -4.5 10.1 -10 10.1H10c-5.5 0 -10 -4.5 -10 -10.1ZM20 219.9h200v-60.3H20v60.3Z"/></svg>