<svg xmlns="http://www.w3.org/2000/svg" width="240" height="240" viewBox="0 0 240 240"><path d="M230 170v-60C230 49.2 180.8 0 120 0S10 49.2 10 110v60c0 16.6 13.4 30 30 30h30c5.5 0 10 -4.5 10 -10v-70c0 -5.5 -4.5 -10 -10 -10H30C30 60.3 70.3 20 120 20s90 40.3 90 90h-40c-5.5 0 -10 4.5 -10 10v70c0 5.5 4.5 10 10 10h30c3.5 0 6.9 -0.6 10 -1.7v1.7c0 11 -9 20 -20 20h-50c-5.5 0 -10 4.5 -10 10s4.5 10 10 10h50c22.1 0 40 -17.9 40 -40v-30ZM60 130v50h-20c-5.5 0 -10 -4.5 -10 -10v-40h30ZM210 170c0 5.5 -4.5 10 -10 10h-20v-50h30v40Z"/></svg>