<svg xmlns="http://www.w3.org/2000/svg" width="240" height="240" viewBox="0 0 240 240"><path d="M50 100c0 -5.5 4.5 -10 10 -10h20c5.5 0 10 4.5 10 10s-4.5 10 -10 10h-20c-5.5 0 -10 -4.5 -10 -10ZM60 70h20c5.5 0 10 -4.5 10 -10s-4.5 -10 -10 -10h-20c-5.5 0 -10 4.5 -10 10s4.5 10 10 10ZM160 150h20c5.5 0 10 -4.5 10 -10s-4.5 -10 -10 -10h-20c-5.5 0 -10 4.5 -10 10s4.5 10 10 10ZM220 10c5.5 0 10 4.5 10 10v200c0 5.5 -4.5 10 -10 10H20c-5.5 0 -10 -4.5 -10 -10V20c0 -5.5 4.5 -10 10 -10h200ZM110 30H30v180h80V30ZM210 30h-80v180h80V30ZM60 150h20c5.5 0 10 -4.5 10 -10s-4.5 -10 -10 -10h-20c-5.5 0 -10 4.5 -10 10s4.5 10 10 10ZM160 70h20c5.5 0 10 -4.5 10 -10s-4.5 -10 -10 -10h-20c-5.5 0 -10 4.5 -10 10s4.5 10 10 10ZM160 110h20c5.5 0 10 -4.5 10 -10s-4.5 -10 -10 -10h-20c-5.5 0 -10 4.5 -10 10s4.5 10 10 10Z"/></svg>