<svg xmlns="http://www.w3.org/2000/svg" width="240" height="240" viewBox="0 0 240 240"><path d="M120 190c-5.5 0 -10 -4.5 -10 -10v-60c0 -5.5 4.5 -10 10 -10s10 4.5 10 10v60c0 5.5 -4.5 10 -10 10ZM170 180v-60c0 -5.5 -4.5 -10 -10 -10s-10 4.5 -10 10v60c0 5.5 4.5 10 10 10s10 -4.5 10 -10ZM40 80c-5.5 0 -10 4.5 -10 10v120c0 8 3.2 15.6 8.8 21.2 5.6 5.6 13.3 8.8 21.2 8.8h120c8 0 15.6 -3.2 21.2 -8.8 5.6 -5.6 8.8 -13.3 8.8 -21.2v-120c0 -5.5 -4.5 -10 -10 -10s-10 4.5 -10 10v120c0 2.7 -1.1 5.2 -2.9 7.1s-4.4 2.9 -7.1 2.9H60c-2.7 0 -5.2 -1.1 -7.1 -2.9 -1.9 -1.9 -2.9 -4.4 -2.9 -7.1v-120c0 -5.5 -4.5 -10 -10 -10ZM0 50c0 -5.5 4.5 -10 10 -10h60V10c0 -5.5 4.5 -10 10 -10h80c5.5 0 10 4.5 10 10v30h60c5.5 0 10 4.5 10 10s-4.5 10 -10 10H10c-5.5 0 -10 -4.5 -10 -10ZM90 40h60v-20h-60v20ZM90 180v-60c0 -5.5 -4.5 -10 -10 -10s-10 4.5 -10 10v60c0 5.5 4.5 10 10 10s10 -4.5 10 -10Z"/></svg>