<svg xmlns="http://www.w3.org/2000/svg" width="240" height="240" viewBox="0 0 240 240"><path d="M235.8 2.9c-2 -2 -4.8 -3.1 -7.6 -2.9 -42 2.2 -76.1 14.8 -103.1 31.4 -31.8 -11.5 -68.8 -4.5 -94.3 21h0c-5.6 5.6 -10.1 11.7 -13.8 18 -2.3 3.9 -1.7 8.9 1.5 12.1l28.7 28.7c-0.4 0.7 -0.8 1.4 -1.2 2.1 -3.5 5.9 -6 10.9 -7.7 14.4 -0.8 1.8 -1.5 3.2 -1.9 4.1 -0.2 0.5 -0.4 0.9 -0.5 1.2v0.3s-0.2 0.1 -0.2 0.1h0s0 0 0 0t9.3 3.7l-9.3 -3.7c-1.5 3.7 -0.6 8 2.2 10.8l56.6 56.6c2.8 2.8 7.1 3.7 10.9 2.2l-3.8 -9.3q3.8 9.3 3.8 9.3h0s0 0 0 0h0.1s0.3 -0.2 0.3 -0.2c0.3 -0.1 0.7 -0.3 1.1 -0.5 1 -0.4 2.4 -1.1 4.1 -1.9 3.5 -1.7 8.4 -4.3 14.4 -7.8 0.7 -0.4 1.3 -0.8 2 -1.2l28.8 28.8c3.2 3.2 8.2 3.9 12.1 1.5 6.3 -3.7 12.4 -8.3 18 -13.8 25.6 -25.6 32.7 -62.9 20.9 -94.8 16.6 -27 29.2 -60.9 31.5 -102.6 0.2 -2.8 -0.9 -5.6 -2.9 -7.6ZM38.3 74.2c2 -2.7 4.1 -5.2 6.5 -7.6h0c16 -16 37.7 -22.6 58.5 -19.9 -9.3 7.4 -17.5 15.1 -24.7 22.8 -8 8.5 -14.7 16.9 -20.3 24.7l-20 -20ZM172.1 193.8c-2.4 2.4 -4.9 4.6 -7.6 6.5l-20.2 -20.2c7.8 -5.6 16.2 -12.4 24.7 -20.4 7.7 -7.3 15.6 -15.6 23 -25 2.9 21 -3.8 43 -19.9 59.1ZM187.7 106.6s-0.1 0.2 -0.2 0.3c-9.8 15.2 -21 27.9 -32.1 38.4 -11.2 10.6 -22.4 18.9 -31.8 25 -0.1 0 -0.2 0.2 -0.4 0.2 -2.8 1.8 -5.5 3.5 -8 5 -4.7 2.8 -8.6 4.9 -11.6 6.3l-46.7 -46.7c1.5 -3 3.6 -7 6.3 -11.7 6.4 -10.9 16.2 -25.5 30.1 -40.3 13.8 -14.8 31.7 -29.7 54.1 -41.4l49.3 49.3c-2.8 5.4 -5.8 10.6 -9 15.5ZM205.5 71.6l-38.7 -38.7c15.2 -5.8 32.1 -10.1 50.9 -12.1 -2.1 18.7 -6.4 35.6 -12.3 50.8ZM154.1 84.6c7.8 7.8 7.8 20.5 0 28.3 -7.8 7.8 -20.5 7.8 -28.3 0 -7.8 -7.8 -7.8 -20.5 0 -28.3 7.8 -7.8 20.5 -7.8 28.3 0ZM51.4 227.4c-11.1 11.1 -51.4 11.3 -51.4 11.3 0 0 0 -40.5 11.1 -51.6 11.1 -11.1 29.1 -11.1 40.2 0s11.1 29.1 0 40.2Z"/></svg>