<svg xmlns="http://www.w3.org/2000/svg" width="240" height="240" viewBox="0 0 240 240"><path d="M188.9 119.5c0 5.1 -4.1 9.2 -9.2 9.2s-9.2 -4.1 -9.2 -9.2 4.1 -9.2 9.2 -9.2 9.2 4.1 9.2 9.2ZM230.1 0H10C4.5 0 0 4.5 0 10v158.8c0 5.5 4.5 10 10 10h79.3c5.5 0 10 -4.5 10 -10s-4.5 -10 -10 -10H20V20h200.1v31.3c0 5.5 4.5 10 10 10s10 -4.5 10 -10V10c0 -5.5 -4.5 -10 -10 -10ZM89.3 198.4h-19.3c-5.5 0 -10 4.5 -10 10s4.5 10 10 10h19.3c5.5 0 10 -4.5 10 -10s-4.5 -10 -10 -10ZM240.1 103.9v113.4c0 12.5 -10.1 22.6 -22.6 22.6h-75.6c-12.5 0 -22.6 -10.1 -22.6 -22.6v-113.4c0 -12.5 10.1 -22.6 22.6 -22.6h75.6c12.5 0 22.6 10.1 22.6 22.6ZM220.1 103.9c0 -1.4 -1.2 -2.6 -2.6 -2.6h-75.6c-1.4 0 -2.6 1.2 -2.6 2.6v113.4c0 1.4 1.2 2.6 2.6 2.6h75.6c1.4 0 2.6 -1.2 2.6 -2.6v-113.4Z"/></svg>