<svg xmlns="http://www.w3.org/2000/svg" width="240" height="240" viewBox="0 0 240 240"><path d="M60 120c0 -5.5 4.5 -10 10 -10h100c5.5 0 10 4.5 10 10s-4.5 10 -10 10H70c-5.5 0 -10 -4.5 -10 -10ZM70 80h100c5.5 0 10 -4.5 10 -10s-4.5 -10 -10 -10H70c-5.5 0 -10 4.5 -10 10s4.5 10 10 10ZM20 230V10c0 -5.5 4.5 -10 10 -10h180c5.5 0 10 4.5 10 10v160c0 1.7 -0.4 3.3 -1.2 4.7 -0.5 0.9 -1 1.7 -1.7 2.4l-60 60c-1.9 1.9 -4.4 2.9 -7.1 2.9H30c-5.5 0 -10 -4.5 -10 -10ZM40 220h100v-50c0 -5.5 4.5 -10 10 -10h50V20H40v200ZM110 160h-40c-5.5 0 -10 4.5 -10 10s4.5 10 10 10h40c5.5 0 10 -4.5 10 -10s-4.5 -10 -10 -10Z"/></svg>