<svg xmlns="http://www.w3.org/2000/svg" width="240" height="240" viewBox="0 0 240 240"><path d="M175 120c0 9.7 -7.8 17.5 -17.5 17.5s-17.5 -7.8 -17.5 -17.5 7.8 -17.5 17.5 -17.5 17.5 7.8 17.5 17.5ZM77.5 30c-9.7 0 -17.5 7.8 -17.5 17.5s7.8 17.5 17.5 17.5 17.5 -7.8 17.5 -17.5 -7.8 -17.5 -17.5 -17.5ZM77.5 175c-9.7 0 -17.5 7.8 -17.5 17.5s7.8 17.5 17.5 17.5 17.5 -7.8 17.5 -17.5 -7.8 -17.5 -17.5 -17.5ZM157.5 30c-9.7 0 -17.5 7.8 -17.5 17.5s7.8 17.5 17.5 17.5 17.5 -7.8 17.5 -17.5 -7.8 -17.5 -17.5 -17.5ZM77.5 102.5c-9.7 0 -17.5 7.8 -17.5 17.5s7.8 17.5 17.5 17.5 17.5 -7.8 17.5 -17.5 -7.8 -17.5 -17.5 -17.5ZM157.5 175c-9.7 0 -17.5 7.8 -17.5 17.5s7.8 17.5 17.5 17.5 17.5 -7.8 17.5 -17.5 -7.8 -17.5 -17.5 -17.5Z"/></svg>