<svg xmlns="http://www.w3.org/2000/svg" width="240" height="240" viewBox="0 0 240 240"><path d="M110 215c0 4.1 -3.4 7.5 -7.5 7.5s-7.5 -3.4 -7.5 -7.5 3.4 -7.5 7.5 -7.5 7.5 3.4 7.5 7.5ZM72.5 123.7v15.2l34.7 27.7c1.8 1.4 2.8 3.6 2.8 5.9v17.5c0 4.1 -3.4 7.5 -7.5 7.5s-7.5 -3.4 -7.5 -7.5v-13.9l-34.7 -27.7c-1.8 -1.4 -2.8 -3.6 -2.8 -5.9v-18.8c-8.7 -3.1 -15 -11.4 -15 -21.2 0 -12.4 10.1 -22.5 22.5 -22.5s22.5 10.1 22.5 22.5c0 9.8 -6.3 18.1 -15 21.2ZM72.5 102.5c0 -4.1 -3.4 -7.5 -7.5 -7.5s-7.5 3.4 -7.5 7.5 3.4 7.5 7.5 7.5 7.5 -3.4 7.5 -7.5ZM10 107.5c0 17.4 7.7 33 19.9 43.5 3.1 2.7 7.9 2.4 10.6 -0.8 2.7 -3.1 2.4 -7.9 -0.8 -10.6 -9 -7.8 -14.7 -19.3 -14.7 -32.1 0 -21.2 15.7 -39.1 36.7 -41.9 2.8 -0.4 5.2 -2.3 6.1 -5 7.2 -21.3 27.2 -35.6 49.7 -35.6v-15c-27.4 0 -51.9 16.5 -62.3 41.5 -26.1 5.6 -45.2 28.8 -45.2 56h0ZM132.5 207.5c-4.1 0 -7.5 3.4 -7.5 7.5s3.4 7.5 7.5 7.5 7.5 -3.4 7.5 -7.5 -3.4 -7.5 -7.5 -7.5ZM110 108.8v-17.6c-8.7 -3.1 -15 -11.4 -15 -21.2 0 -12.4 10.1 -22.5 22.5 -22.5s22.5 10.1 22.5 22.5c0 9.8 -6.3 18.1 -15 21.2v17.6c8.7 3.1 15 11.4 15 21.2 0 12.4 -10.1 22.5 -22.5 22.5s-22.5 -10.1 -22.5 -22.5c0 -9.8 6.3 -18.1 15 -21.2ZM110 70c0 4.1 3.4 7.5 7.5 7.5s7.5 -3.4 7.5 -7.5 -3.4 -7.5 -7.5 -7.5 -7.5 3.4 -7.5 7.5ZM110 130c0 4.1 3.4 7.5 7.5 7.5s7.5 -3.4 7.5 -7.5 -3.4 -7.5 -7.5 -7.5 -7.5 3.4 -7.5 7.5ZM162.5 148v-11.8c-8.7 -3.1 -15 -11.4 -15 -21.2 0 -12.4 10.1 -22.5 22.5 -22.5s22.5 10.1 22.5 22.5c0 9.8 -6.3 18.1 -15 21.2v16.3c0 2.8 -1.5 5.3 -4 6.6l-33.5 17.9v13c0 4.1 -3.4 7.5 -7.5 7.5s-7.5 -3.4 -7.5 -7.5v-17.5c0 -2.8 1.5 -5.3 4 -6.6l33.5 -17.9ZM162.5 115c0 4.1 3.4 7.5 7.5 7.5s7.5 -3.4 7.5 -7.5 -3.4 -7.5 -7.5 -7.5 -7.5 3.4 -7.5 7.5ZM170 77.5c0 4.1 3.4 7.5 7.5 7.5 17.9 0 32.5 14.6 32.5 32.5 0 10.5 -5 19.8 -12.7 25.8 0 0 -0.2 0.1 -0.3 0.2l-1.5 1.3c-3.2 2.7 -3.6 7.4 -0.9 10.6 2.7 3.2 7.4 3.6 10.6 0.9l1.4 -1.1c11.2 -8.7 18.4 -22.3 18.4 -37.6 0 -23.8 -17.5 -43.5 -40.4 -47 -3.5 -34 -32.2 -60.5 -67.1 -60.5h0v15c29 0 52.5 23.5 52.5 52.5Z"/></svg>