<svg xmlns="http://www.w3.org/2000/svg" width="240" height="240" viewBox="0 0 240 240"><path d="M10 110.5c0 -10.4 4.1 -20.1 11.6 -27.5 6 -5.9 13.5 -9.6 21.5 -10.9 2.9 -18.5 18.9 -32.8 38.2 -32.8 7.3 0 14.2 2 20.3 5.8 3.7 -6.3 8.8 -11.7 14.9 -16 8.6 -6 18.8 -9.2 29.3 -9.2 28.4 0 51.6 23.2 51.6 51.7v0.5c7.9 1.3 15.2 5 21.1 10.8 7.5 7.4 11.6 17.1 11.6 27.5s-4.1 20.1 -11.6 27.5c-7.4 7.3 -17.2 11.3 -27.5 11.3h-5.6c0.8 -4.3 1.5 -8.6 2.1 -12.9h3.4c14.5 0 26.2 -11.6 26.2 -25.9s-11.8 -25.9 -26.2 -25.9h-8.1l1.2 -8s0 -0.2 0 -0.4c0.2 -1.6 0.4 -3.1 0.4 -4.5 0 -21.4 -17.4 -38.8 -38.7 -38.8 -15.9 0 -30 9.6 -35.9 24.6l-3.6 9.1 -6.9 -6.8c-4.9 -4.8 -11.3 -7.4 -18 -7.4 -14.2 0 -25.8 11.6 -25.8 25.9v6.5h-6.4c-14.5 0 -26.2 11.6 -26.2 25.9s10.6 24.7 24.1 25.8c-2.7 3.9 -5.2 7.8 -7.7 11.7 -6.6 -1.7 -12.8 -5.1 -17.8 -10 -7.5 -7.4 -11.6 -17.1 -11.6 -27.5ZM66.3 141.7l2.3 22.5 60 -60.2 1.9 -26.8 -64.3 64.5ZM150 130.1l-11.4 -13.4 -37.4 37.5 4.3 20.6 44.5 -44.7ZM171.5 155.9l-11.8 -13 -49.8 49.9 4.4 20.5 57.2 -57.4Z"/></svg>