<svg xmlns="http://www.w3.org/2000/svg" width="240" height="240" viewBox="0 0 240 240"><path d="M190 100H50c-17 0 -30 13 -30 30v80c0 17 13 30 30 30h140c17 0 30 -13 30 -30v-80c0 -17 -13 -30 -30 -30ZM200 210c0 6 -4 10 -10 10H50c-6 0 -10 -4 -10 -10v-80c0 -6 4 -10 10 -10h140c6 0 10 4 10 10v80ZM160 70v-10c0 -10 -4 -21 -11 -28 -8 -8 -18 -12 -28 -12h-1c-10 0 -21 4 -28 11 -8 8 -12 18 -12 28v11c0 6 -4 10 -10 10s-10 -4 -10 -10v-11c0 -16 7 -31 18 -42s26 -17 42 -17h1c16 0 31 7 42 18 11 11 17 26 17 42v10c0 6 -4 10 -10 10s-10 -4 -10 -10ZM120 140c-17 0 -30 13 -30 30s13 30 30 30 30 -13 30 -30 -13 -30 -30 -30ZM120 180c-6 0 -10 -4 -10 -10s4 -10 10 -10 10 4 10 10 -4 10 -10 10Z"/></svg>