<svg xmlns="http://www.w3.org/2000/svg" width="240" height="240" viewBox="0 0 240 240"><path d="M168.5 237.2L79 147.6c-3.8 -3.8 -3.8 -10 0 -13.8 3.8 -3.8 10 -3.8 13.8 0l89.5 89.5c3.8 3.8 3.8 10 0 13.8 -1.9 1.9 -4.4 2.8 -6.9 2.8 -2.5 0 -4.9 -1 -6.9 -2.8ZM9.8 185.1c2.5 0 5 -0.9 6.9 -2.8l89.4 -89.6c3.8 -3.8 3.8 -10 0 -13.8 -3.8 -3.8 -10 -3.8 -13.8 0L2.9 168.5c-3.8 3.8 -3.8 10 0 13.8 2 1.9 4.4 2.8 6.9 2.8ZM57.7 2.9c-3.8 3.8 -3.8 10 0 13.8l89.5 89.5c1.9 1.8 4.4 2.8 6.9 2.8 2.5 0 4.9 -0.9 6.9 -2.8 3.8 -3.8 3.8 -10 0 -13.8L71.5 2.9c-3.8 -3.8 -10 -3.8 -13.8 0ZM147.6 51.3l34.7 -34.7c3.8 -3.8 3.8 -10 0 -13.8s-10 -3.8 -13.8 0l-34.7 34.7c-3.8 3.8 -3.8 10 0 13.8 1.9 1.8 4.4 2.8 6.9 2.8 2.5 0 4.9 -0.9 6.9 -2.8ZM37.5 106.1c1.9 1.8 4.4 2.8 6.9 2.8 2.5 0 4.9 -0.9 6.9 -2.8 3.8 -3.8 3.8 -10 0 -13.8l-34.7 -34.7c-3.8 -3.8 -10 -3.8 -13.8 0 -3.8 3.8 -3.8 10 0 13.8l34.7 34.7ZM202.5 133.9c-3.8 -3.8 -10 -3.8 -13.8 0 -3.8 3.8 -3.8 10 0 13.8l34.7 34.7c1.9 1.8 4.4 2.8 6.9 2.8 2.5 0 4.9 -0.9 6.9 -2.8 3.8 -3.8 3.8 -10 0 -13.8l-34.7 -34.7ZM223.4 57.8l-89.5 89.5c-3.8 3.8 -3.8 10 0 13.8 1.9 1.8 4.4 2.8 6.9 2.8 2.5 0 4.9 -0.9 6.9 -2.8l89.5 -89.5c3.8 -3.8 3.8 -10 0 -13.8 -3.8 -3.8 -10 -3.8 -13.8 0ZM92.4 188.7l-34.7 34.7c-3.8 3.8 -3.8 10 0 13.8 1.9 1.8 4.4 2.8 6.9 2.8 2.5 0 4.9 -0.9 6.9 -2.8l34.7 -34.7c3.8 -3.8 3.8 -10 0 -13.8 -3.8 -3.8 -10 -3.8 -13.8 0Z"/></svg>