<svg xmlns="http://www.w3.org/2000/svg" width="240" height="240" viewBox="0 0 240 240"><path d="M130 160c0 5.5 -4.5 10 -10 10s-10 -4.5 -10 -10 4.5 -10 10 -10 10 4.5 10 10ZM120 50c-5.5 0 -10 4.5 -10 10v60c0 5.5 4.5 10 10 10s10 -4.5 10 -10v-60c0 -5.5 -4.5 -10 -10 -10ZM240 110v0.2c-0.3 12.2 -3 24.3 -8 35.5 -4.3 9.6 -10.2 18.4 -17.5 26l5.4 47.2c0.4 3.5 -1.1 7 -3.9 9.1 -2.8 2.1 -6.5 2.6 -9.8 1.3l-55.9 -22.7c-9.9 2.5 -20.2 3.7 -30.4 3.5 -64.5 0 -119.9 -42.7 -119.9 -100S55.5 10 120 10s120 42.7 120 100ZM220 109.9c0 -42.6 -42.6 -79.9 -100 -79.9S20 67.3 20 110s42.5 80 100 80h0.2c9.5 0.2 18.9 -1 28.1 -3.6 2.1 -0.6 4.4 -0.5 6.5 0.4l43.4 17.6 -4.1 -35.2c-0.4 -3.1 0.8 -6.3 3.1 -8.4 7 -6.5 12.6 -14.4 16.5 -23.2 3.9 -8.7 6 -18.1 6.3 -27.6Z"/></svg>