<svg xmlns="http://www.w3.org/2000/svg" width="240" height="240" viewBox="0 0 240 240"><path d="M180 120c0 5.5 -4.5 10 -10 10H70c-5.5 0 -10 -4.5 -10 -10s4.5 -10 10 -10h100c5.5 0 10 4.5 10 10ZM30 240c-5.5 0 -10 -4.5 -10 -10V10c0 -5.5 4.5 -10 10 -10h120c1.7 0 3.3 0.4 4.7 1.2 0.2 0 0.3 0.2 0.5 0.3 0.2 0.1 0.4 0.2 0.6 0.4 0.5 0.3 0.9 0.7 1.3 1.1l60 60c1.9 1.9 2.9 4.4 2.9 7.1v160c0 5.5 -4.5 10 -10 10H30ZM40 220h160v-140h-50c-5.5 0 -10 -4.5 -10 -10V20H40v200ZM70 80h40c5.5 0 10 -4.5 10 -10s-4.5 -10 -10 -10h-40c-5.5 0 -10 4.5 -10 10s4.5 10 10 10ZM170 160H70c-5.5 0 -10 4.5 -10 10s4.5 10 10 10h100c5.5 0 10 -4.5 10 -10s-4.5 -10 -10 -10Z"/></svg>