<svg xmlns="http://www.w3.org/2000/svg" width="240" height="240" viewBox="0 0 240 240"><path d="M67.1 2.9l-7.1 7.1 -7.1 -7.1c3.9 -3.9 10.2 -3.9 14.1 0ZM240 10v210c0 5.5 -4.5 10 -10 10H10c-5.5 0 -10 -4.5 -10 -10v-30c0 -5.5 4.5 -10 10 -10s10 4.5 10 10v20h50v-20c0 -5.5 4.5 -10 10 -10s10 4.5 10 10v20h60v-50h-10c-5.5 0 -10 -4.5 -10 -10s4.5 -10 10 -10h80v-50h-80c-5.5 0 -10 -4.5 -10 -10s4.5 -10 10 -10h10V20h-40c-5.5 0 -10 -4.5 -10 -10s4.5 -10 10 -10h120c5.5 0 10 4.5 10 10ZM220 160h-50v50h50v-50ZM220 20h-50v50h50V20ZM0 100c0 -23.4 14.3 -48.2 26.9 -65.8 6.5 -9.1 13 -16.9 17.8 -22.4 2.4 -2.8 4.5 -4.9 5.9 -6.5 0.7 -0.8 1.3 -1.4 1.7 -1.8l0.5 -0.5h0.1s0 -0.2 0 -0.2h0s0 0 0 0t7.1 7.1q7.1 -7.1 7.1 -7.1h0s0 0 0 0h0s0.1 0.2 0.1 0.2l0.5 0.5s1 1 1.7 1.8c1.4 1.5 3.5 3.7 5.9 6.5 4.8 5.5 11.3 13.3 17.8 22.4 12.6 17.6 26.9 42.4 26.9 65.8 0 33.1 -26.9 60 -60 60S0 133.1 0 100ZM20 100c0 22.1 17.9 40 40 40s40 -17.9 40 -40c0 -16.6 -10.7 -36.8 -23.1 -54.2 -6 -8.4 -12 -15.6 -16.5 -20.8l-0.3 -0.4 -0.3 0.4c-4.5 5.1 -10.5 12.4 -16.5 20.8 -12.4 17.4 -23.1 37.6 -23.1 54.2Z"/></svg>