<svg xmlns="http://www.w3.org/2000/svg" width="240" height="240" viewBox="0 0 240 240"><path d="M230 80H50c-5.5 0 -10 4.5 -10 10v110c0 5.5 -4.5 10 -10 10s-10 -4.5 -10 -10V30h44.6l17 25.5c1.8 2.8 5 4.5 8.3 4.5h100c0 5.5 4.5 10 10 10s10 -4.5 10 -10v-10c0 -5.5 -4.5 -10 -10 -10h-104.6l-17 -25.5c-1.8 -2.8 -5 -4.5 -8.3 -4.5H10c-5.5 0 -10 4.5 -10 10v180c0.1 16.5 13.5 30 30 30h180c16.5 0 30 -13.5 30 -30v-110c0 -5.5 -4.5 -10 -10 -10ZM219.9 200c0 5.5 -4.5 10 -10 10H58.3c1.1 -3.1 1.7 -6.5 1.7 -10v-100h159.9v100Z"/></svg>