<svg xmlns="http://www.w3.org/2000/svg" width="240" height="240" viewBox="0 0 240 240"><path d="M120.2 0s-0.2 0 -0.2 0 -0.2 0 -0.2 0C53.6 0.1 0 53.8 0 120s53.6 119.9 119.8 120c0 0 0.2 0 0.2 0s0.2 0 0.2 0c66.2 -0.1 119.8 -53.8 119.8 -120S186.4 0.1 120.2 0ZM80.8 28c-18.5 21.7 -28.8 50.6 -30.6 82h-29.8c3.7 -37 27.5 -68.1 60.4 -82ZM20.5 130h29.8c1.8 31.5 12.1 60.4 30.6 82 -32.8 -14 -56.7 -45.1 -60.4 -82ZM110 212.2c-23.5 -17.8 -37.5 -47.1 -39.7 -82.2h39.7v82.2ZM110 110h-39.7c2.2 -35.1 16.2 -64.4 39.7 -82.2v82.2ZM130 27.8c23.5 17.8 37.5 47.1 39.7 82.2h-39.7V27.8ZM130 212.2v-82.2h39.7c-2.2 35.1 -16.2 64.4 -39.7 82.2ZM159.2 212c18.5 -21.7 28.8 -50.6 30.6 -82h29.8c-3.7 37 -27.5 68.1 -60.4 82ZM189.7 110c-1.8 -31.5 -12.1 -60.4 -30.6 -82 32.8 14 56.7 45.1 60.4 82h-29.8Z"/></svg>