<svg xmlns="http://www.w3.org/2000/svg" width="240" height="240" viewBox="0 0 240 240"><path d="M215 30c-2.2 0 -4.4 0.3 -6.4 0.8 -1.4 -4.5 -3.9 -8.6 -7.4 -12.1 -5.6 -5.6 -13.3 -8.8 -21.2 -8.8 -5.2 0 -10.3 1.4 -14.7 3.9 -1.2 -1.8 -2.5 -3.5 -4.1 -5.1 -5.6 -5.6 -13.3 -8.8 -21.2 -8.8s-15.6 3.2 -21.2 8.8c-1.5 1.5 -2.9 3.3 -4.1 5.1 -4.5 -2.5 -9.5 -3.9 -14.7 -3.9 -8 0 -15.6 3.2 -21.2 8.8 -5.6 5.6 -8.8 13.3 -8.8 21.2v95.2l-25.4 -10.2h0c-5 -2 -10.6 -2.5 -15.9 -1.4 -5.3 1.1 -10.2 3.7 -14 7.6 -5 5 -7.9 11.7 -8.1 18.7 -0.2 7 2.2 13.9 6.8 19.2h0s32.2 36.8 32.2 36.8h0c9.4 10.7 21 19.3 33.9 25.2 13 5.9 27.1 8.9 41.3 8.9h19.2c26.5 0 52 -10.5 70.7 -29.3s29.3 -44.2 29.3 -70.7V55c0 -6.6 -2.6 -13 -7.3 -17.7 -4.7 -4.7 -11 -7.3 -17.7 -7.3ZM220 140c0 21.2 -8.4 41.6 -23.4 56.6s-35.4 23.4 -56.6 23.4h-19.2c-11.4 0 -22.7 -2.4 -33.1 -7.1 -10.4 -4.7 -19.6 -11.6 -27.2 -20.2h0s-32.2 -36.8 -32.2 -36.8h0c-1.3 -1.5 -2 -3.4 -1.9 -5.4 0 -2 0.9 -3.8 2.3 -5.2h0c1.1 -1.1 2.4 -1.8 3.9 -2.1 1.5 -0.3 3 -0.2 4.4 0.4h0s25.4 10.2 25.4 10.2h0c3 1.2 6.3 1.7 9.6 1.3 3.2 -0.4 6.4 -1.5 9.1 -3.3s4.9 -4.3 6.5 -7.2c1.5 -2.9 2.3 -6.1 2.3 -9.4h0V40c0 -2.7 1.1 -5.2 2.9 -7.1 1.9 -1.9 4.4 -2.9 7.1 -2.9s5.2 1.1 7.1 2.9c1.9 1.9 2.9 4.4 2.9 7.1v70c0 5.5 4.5 10 10 10s10 -4.5 10 -10V30c0 -2.7 1.1 -5.2 2.9 -7.1 1.9 -1.9 4.4 -2.9 7.1 -2.9s5.2 1.1 7.1 2.9c1.9 1.9 2.9 4.4 2.9 7.1v80c0 5.5 4.5 10 10 10s10 -4.5 10 -10v-70c0 -2.7 1.1 -5.2 2.9 -7.1 1.9 -1.9 4.4 -2.9 7.1 -2.9s5.2 1.1 7.1 2.9c1.9 1.9 2.9 4.4 2.9 7.1v70c0 5.5 4.5 10 10 10s10 -4.5 10 -10v-50h0v-5c0 -1.3 0.5 -2.6 1.5 -3.5s2.2 -1.5 3.5 -1.5 2.6 0.5 3.5 1.5c0.9 0.9 1.5 2.2 1.5 3.5v85Z"/></svg>