<svg width="200" height="200" viewBox="0 0 200 200" fill="none" xmlns="http://www.w3.org/2000/svg"><path fill-rule="evenodd" d="M100 37.5C65.482 37.5 37.5 65.482 37.5 100C37.5 134.518 65.482 162.5 100 162.5C134.518 162.5 162.5 134.518 162.5 100C162.5 65.482 134.518 37.5 100 37.5ZM25 100C25 58.579 58.579 25 100 25C141.421 25 175 58.579 175 100C175 141.421 141.421 175 100 175C58.579 175 25 141.421 25 100ZM100 143.75C103.452 143.75 106.25 140.952 106.25 137.5C106.25 134.048 103.452 131.25 100 131.25C96.548 131.25 93.75 134.048 93.75 137.5C93.75 140.952 96.548 143.75 100 143.75ZM89.108 71.717C94.386 69.384 100.415 68.39 105.515 68.869C110.768 69.362 113.839 71.242 115.121 73.317C118.222 78.336 117 85.331 108.716 92.35C99.454 100.199 93.75 106.205 93.75 115.625C93.75 119.077 96.548 121.875 100 121.875C103.452 121.875 106.25 119.077 106.25 115.625C106.25 112.545 107.309 109.927 116.797 101.887C127.263 93.019 133.591 79.427 125.754 66.746C121.568 59.971 113.898 57.101 106.684 56.424C99.316 55.732 91.152 57.147 84.055 60.283C80.898 61.679 79.469 65.369 80.865 68.526C82.26 71.684 85.951 73.112 89.108 71.717Z" fill="#FEFEFC"/></svg>