<svg xmlns="http://www.w3.org/2000/svg" width="240" height="240" viewBox="0 0 240 240"><path d="M5.6 137.6c7.9 11.2 21.5 28.3 39.7 43l-32.3 32.3c-3.9 3.9 -3.9 10.2 0 14.1 3.9 3.9 10.2 3.9 14.1 0l34.7 -34.7c16.6 10.2 36.2 17.6 58.2 17.6 28.9 0 53.7 -12.8 72.8 -27.9 19.2 -15.1 33.4 -33 41.6 -44.5h0c3.6 -5.2 5.5 -11.3 5.5 -17.6s-1.9 -12.4 -5.5 -17.6h0c-7.9 -11.2 -21.5 -28.3 -39.7 -43l32.3 -32.3c3.9 -3.9 3.9 -10.2 0 -14.1 -3.9 -3.9 -10.2 -3.9 -14.1 0l-34.7 34.7c-16.6 -10.2 -36.2 -17.6 -58.2 -17.6 -28.9 0 -53.7 12.8 -72.8 27.9 -19.2 15.1 -33.4 33 -41.6 44.5h0c-3.6 5.2 -5.5 11.3 -5.5 17.6s1.9 12.4 5.5 17.6h0ZM180.5 73.6c17.1 13.4 30 29.6 37.6 40.3 1.2 1.8 1.9 3.9 1.9 6.1s-0.7 4.3 -1.9 6.1c-7.6 10.7 -20.5 26.9 -37.6 40.3 -17.1 13.5 -37.6 23.6 -60.5 23.6 -15.8 0 -30.4 -4.8 -43.6 -12.2l16 -16c7.9 5.2 17.4 8.3 27.6 8.3 27.6 0 50 -22.4 50 -50 0 -10.2 -3 -19.7 -8.3 -27.6l18.8 -18.8ZM92.9 132.9c-1.9 -3.9 -2.9 -8.3 -2.9 -12.9 0 -16.6 13.4 -30 30 -30 4.6 0 9 1 12.9 2.9l-40 40ZM147.1 107.1c1.9 3.9 2.9 8.3 2.9 12.9 0 16.6 -13.4 30 -30 30 -4.6 0 -9 -1 -12.9 -2.9l40 -40ZM21.9 113.9c7.6 -10.7 20.5 -26.9 37.6 -40.3 17.1 -13.5 37.6 -23.6 60.5 -23.6 15.8 0 30.4 4.8 43.6 12.2l-16 16c-7.9 -5.2 -17.4 -8.3 -27.6 -8.3 -27.6 0 -50 22.4 -50 50 0 10.2 3 19.7 8.3 27.6l-18.8 18.8c-17.1 -13.4 -30 -29.6 -37.6 -40.3 -1.2 -1.8 -1.9 -3.9 -1.9 -6.1s0.7 -4.3 1.9 -6.1Z"/></svg>