<svg xmlns="http://www.w3.org/2000/svg" width="240" height="240" viewBox="0 0 240 240"><path d="M130 59.9v50h50c5.5 0 10 4.5 10 10s-4.5 10 -10 10h-60c-5.5 0 -10 -4.5 -10 -10v-60c0 -5.5 4.5 -10 10 -10s10 4.5 10 10ZM105.7 239.1c29.1 3.5 58.5 -3.8 82.7 -20.5 24.1 -16.7 41.3 -41.7 48.2 -70.2 7 -28.5 3.2 -58.6 -10.5 -84.5 -13.7 -25.9 -36.5 -46 -63.9 -56.3 -27.5 -10.3 -57.8 -10.2 -85.2 0.3 -15 5.8 -28.6 14.4 -40 25.4l2.6 -20.8c0.7 -5.5 -3.2 -10.5 -8.7 -11.2s-10.5 3.2 -11.2 8.7l-7.3 57.7c-0.6 4.1 1.4 8.4 5.3 10.4 2.3 1.2 4.9 1.4 7.3 0.8 0 0 0 0 0 0l56.9 -15.9c5.3 -1.5 8.4 -7 6.9 -12.3 -1.5 -5.3 -7 -8.4 -12.3 -6.9l-30.1 8.4c10.4 -11.2 23.2 -20 37.7 -25.6 22.8 -8.8 48.1 -8.9 71 -0.3s41.8 25.3 53.3 46.9c11.4 21.6 14.5 46.7 8.7 70.4 -5.8 23.8 -20.1 44.6 -40.2 58.5 -20.1 13.9 -44.6 20 -68.9 17.1 -24.3 -2.9 -46.6 -14.6 -62.9 -32.9 -16.2 -18.3 -25.2 -41.9 -25.2 -66.3 0 -5.5 -4.5 -10 -10 -10 -5.5 0 -10 4.5 -10 10 0 29.3 10.8 57.7 30.3 79.6s46.3 36 75.5 39.5Z"/></svg>