<svg version="1.1" id="Layer_1" xmlns="http://www.w3.org/2000/svg" xmlns:xlink="http://www.w3.org/1999/xlink" x="0px" y="0px" viewBox="0 0 240 240" style="enable-background:new 0 0 24 24;" xml:space="preserve"><style type="text/css">
	.st0{fill:#F8F8FB;}
</style><path d="M203 94l-78 -63c-3 -2 -7 -2 -10 0L37 94C35 96 34 98 34 100v102c0 4 4 8 8 8h55c4 0 8 -4 8 -8v-47h31v47c0 4 4 8 8 8h55c4 0 8 -4 8 -8V100C206 98 205 96 203 94zM190 194h-39v-47c0 -4 -4 -8 -8 -8H97c-4 0 -8 4 -8 8v47H50v-90l70 -56l70 56V194z"/></svg>