<svg xmlns="http://www.w3.org/2000/svg" width="240" height="240" viewBox="0 0 240 240"><path d="M230 20H10c-5.5 0 -10 4.5 -10 10v169.9h0v10.1c0 5.5 4.5 10 10 10h220c5.5 0 10 -4.5 10 -10v-39.9h0V30c0 -5.5 -4.5 -10 -10 -10ZM220 200H23l37.7 -45.2 32.3 32.3c2 2 4.6 3 7.4 2.9 2.8 0 5.4 -1.3 7.2 -3.4l62.4 -71.3 50.1 58.4v26.3ZM220 143l-42.4 -49.5c-1.9 -2.2 -4.6 -3.5 -7.5 -3.5s-5.7 1.2 -7.6 3.4l-63 72 -32.4 -32.4c-2 -2 -4.7 -3 -7.5 -2.9 -2.8 0.1 -5.4 1.4 -7.2 3.6l-32.3 38.8V40h200v103ZM90 110c16.6 0 30 -13.4 30 -30s-13.4 -30 -30 -30 -30 13.4 -30 30 13.4 30 30 30ZM90 70c5.5 0 10 4.5 10 10s-4.5 10 -10 10 -10 -4.5 -10 -10 4.5 -10 10 -10Z"/></svg>