<svg width="200" height="200" viewBox="0 0 200 200" fill="none" xmlns="http://www.w3.org/2000/svg"><path fill-rule="evenodd" d="M100 37.5C65.482 37.5 37.5 65.482 37.5 100C37.5 134.518 65.482 162.5 100 162.5C134.518 162.5 162.5 134.518 162.5 100C162.5 65.482 134.518 37.5 100 37.5ZM25 100C25 58.579 58.579 25 100 25C141.421 25 175 58.579 175 100C175 141.421 141.421 175 100 175C58.579 175 25 141.421 25 100ZM100 87.5C103.452 87.5 106.25 90.298 106.25 93.75V131.25C106.25 134.702 103.452 137.5 100 137.5C96.548 137.5 93.75 134.702 93.75 131.25V93.75C93.75 90.298 96.548 87.5 100 87.5ZM106.25 68.75C106.25 72.202 103.452 75 100 75C96.548 75 93.75 72.202 93.75 68.75C93.75 65.298 96.548 62.5 100 62.5C103.452 62.5 106.25 65.298 106.25 68.75Z" fill="#FEFEFC"/></svg>