<svg xmlns="http://www.w3.org/2000/svg" width="240" height="240" viewBox="0 0 240 240"><path d="M130 20c0 -5.5 4.5 -10 10 -10h30c5.5 0 10 4.5 10 10s-4.5 10 -10 10h-30c-5.5 0 -10 -4.5 -10 -10ZM40.4 47.1L10.4 147.1c-0.3 0.9 -0.4 1.9 -0.4 2.9v40c0 5.5 4.5 10 10 10s10 -4.5 10 -10v-38.5l27.4 -91.5h32.6v30h-20c-5.5 0 -10 4.5 -10 10s4.5 10 10 10h20v80c0 5.5 4.5 10 10 10s10 -4.5 10 -10v-80h20v80c0 5.5 4.5 10 10 10s10 -4.5 10 -10v-80h10c5.5 0 10 -4.5 10 -10s-4.5 -10 -10 -10h-10v-30h32.6l27.4 91.5v38.5c0 5.5 4.5 10 10 10s10 -4.5 10 -10v-40c0 -1 -0.1 -1.9 -0.4 -2.9l-30 -100c-1.3 -4.2 -5.2 -7.1 -9.6 -7.1h-50c-5.5 0 -10 4.5 -10 10v40h-20v-40c0 -5.5 -4.5 -10 -10 -10h-50c-4.4 0 -8.3 2.9 -9.6 7.1ZM230 210h-90c-5.5 0 -10 4.5 -10 10s4.5 10 10 10h90c5.5 0 10 -4.5 10 -10s-4.5 -10 -10 -10ZM100 30c5.5 0 10 -4.5 10 -10s-4.5 -10 -10 -10h-30c-5.5 0 -10 4.5 -10 10s4.5 10 10 10h30ZM0 220c0 5.5 4.5 10 10 10h90c5.5 0 10 -4.5 10 -10s-4.5 -10 -10 -10H10c-5.5 0 -10 4.5 -10 10Z"/></svg>