<svg xmlns="http://www.w3.org/2000/svg" width="240" height="240" viewBox="0 0 240 240"><path d="M145.7 133.4c0 5.5 -4.5 10 -10 10h-18.7l2.6 2.6c3.9 3.9 3.9 10.2 0 14.1 -2 2 -4.5 2.9 -7.1 2.9h0.2c-2.6 0.1 -5.1 -0.9 -7.1 -2.8l-19.7 -19.7c-2.9 -2.9 -3.7 -7.2 -2.2 -10.9s5.2 -6.2 9.2 -6.2h42.8c5.5 0 10 4.5 10 10ZM124.9 72.4c-3.9 -3.9 -10.2 -3.9 -14.1 0 -3.9 3.9 -3.9 10.2 0 14.1l2.6 2.6h-18.7c-5.5 0 -10 4.5 -10 10s4.5 10 10 10h42.9c4 0.1 7.7 -2.4 9.2 -6.1 1.5 -3.7 0.7 -8 -2.2 -10.9l-19.7 -19.7ZM240 150c0 27.6 -22.4 50 -50 50H50c-27.6 0 -50 -22.4 -50 -50 0 -20.5 12.5 -39 30.7 -46.5 5.7 -41.1 42.1 -73.5 84.3 -73.5s76.8 29.9 83.9 70.8c23.3 4.2 41.1 24.7 41.1 49.2ZM220 150c0 -16.5 -13.5 -30 -30 -30 -5.2 0 -9.6 -4 -10 -9.2 -2.7 -34.6 -30.6 -60.8 -65 -60.8s-63.3 27.6 -65 61.5c-0.2 4.5 -3.4 8.2 -7.7 9.2 -12.9 3 -22.3 15.3 -22.3 29.3 0 16.5 13.5 30 30 30h140c16.5 0 30 -13.5 30 -30Z"/></svg>