<svg xmlns="http://www.w3.org/2000/svg" width="240" height="240" viewBox="0 0 240 240"><path d="M69.5 167.8c3.7 -3.9 9.8 -3.9 13.5 0 15.6 16.2 39 16.2 54.6 0 3.7 -3.9 9.8 -3.9 13.5 0 3.7 3.9 3.7 10.2 0 14.1 -11.4 11.9 -26.2 17.9 -40.9 17.9 -14.7 0 -29.4 -6 -40.9 -17.9 -3.7 -3.9 -3.7 -10.2 0 -14.1ZM43.6 196.8c-3.7 3.9 -3.7 10.2 0 14.1 18.7 19.5 43.2 29.1 67.8 29.2 24.6 0 49 -9.7 67.8 -29.2 3.7 -3.9 3.7 -10.2 0 -14.1 -3.7 -3.9 -9.8 -3.9 -13.5 0 -30 31.1 -78.6 31.1 -108.4 0 -3.7 -3.9 -9.8 -3.9 -13.5 0ZM182.8 99.8h17.2v-12.4h-48.6v12.4h17.2v52.7h14.2v-52.7ZM40 152.5h14.1v-65.1h-14.1v65.1ZM43.6 29.1c-3.7 3.9 -3.7 10.2 0 14.1s9.8 3.9 13.5 0c30 -31.1 78.6 -31.1 108.4 0 1.9 1.9 4.3 2.9 6.8 2.9 2.5 0 4.9 -0.9 6.8 -2.9 3.7 -3.9 3.7 -10.2 0 -14.1C141.7 -9.7 80.9 -9.7 43.6 29.1ZM151.2 72.2c3.7 -3.9 3.7 -10.2 0 -14.1 -22.9 -23.9 -58.8 -23.9 -81.7 0 -3.7 3.9 -3.7 10.2 0 14.1 3.7 3.9 9.8 3.9 13.5 0 15.7 -16.2 39.1 -16.2 54.6 0 1.9 1.9 4.3 2.9 6.8 2.9 2.5 0 4.9 -0.9 6.8 -2.9ZM139.7 120c0 16.5 -13 30 -28.8 30s-28.8 -13.5 -28.8 -30 13 -30 28.8 -30 28.8 13.5 28.8 30ZM120.5 120c0 -5.5 -4.3 -10 -9.6 -10s-9.6 4.5 -9.6 10 4.3 10 9.6 10 9.6 -4.5 9.6 -10Z"/></svg>