<svg xmlns="http://www.w3.org/2000/svg" width="240" height="240" viewBox="0 0 240 240"><path d="M130.1 182.3c0 5.5 -4.5 10 -10 10s-10 -4.5 -10 -10 4.5 -10 10 -10 10 4.5 10 10ZM120.1 142.4c-5.5 0 -10 4.5 -10 10s4.5 10 10 10 10 -4.5 10 -10 -4.5 -10 -10 -10ZM150.1 172.3c-5.5 0 -10 4.5 -10 10s4.5 10 10 10 10 -4.5 10 -10 -4.5 -10 -10 -10ZM180.1 142.4c-5.5 0 -10 4.5 -10 10s4.5 10 10 10 10 -4.5 10 -10 -4.5 -10 -10 -10ZM98.2 119.8v-53.7c0 -5.5 4.5 -10 10 -10h83.8c5.5 0 10 4.5 10 10v53.7c0 5.5 -4.5 10 -10 10h-83.8c-5.5 0 -10 -4.5 -10 -10ZM118.2 109.8h63.8v-33.7h-63.8v33.7ZM240 36.1v167.6c0 9.9 -8.1 18 -18 18h-141.8v0.3c0 9.9 -8.1 18 -18 18H18c-9.9 0 -18 -8.1 -18 -18V18C0 8.1 8.1 0 18 0h44.2c9.9 0 18 8.1 18 18h0s141.8 0.1 141.8 0.1c9.9 0 18 8.1 18 18ZM60.2 20H20v200h40.2V20ZM220 38.1h-139.8v163.6h139.8V38.1ZM150.1 142.4c-5.5 0 -10 4.5 -10 10s4.5 10 10 10 10 -4.5 10 -10 -4.5 -10 -10 -10ZM180.1 172.3c-5.5 0 -10 4.5 -10 10s4.5 10 10 10 10 -4.5 10 -10 -4.5 -10 -10 -10Z"/></svg>