<svg xmlns="http://www.w3.org/2000/svg" width="240" height="240" viewBox="0 0 240 240"><path d="M80 130c-16.6 0 -30 13.4 -30 30s13.4 30 30 30 30 -13.4 30 -30 -13.4 -30 -30 -30ZM80 170c-5.5 0 -10 -4.5 -10 -10s4.5 -10 10 -10 10 4.5 10 10 -4.5 10 -10 10ZM230 0h-50c-2.7 0 -5.2 1.1 -7.1 2.9l-78.4 78.4c-4.7 -0.9 -9.5 -1.4 -14.5 -1.4C35.8 80 0 115.8 0 160s35.8 80 80 80 80 -35.8 80 -80c0 -7.9 -1.2 -15.4 -3.3 -22.6l20.4 -20.4c1.9 -1.9 2.9 -4.4 2.9 -7.1v-20h20c2.7 0 5.2 -1.1 7.1 -2.9l30 -30c1.9 -1.9 2.9 -4.4 2.9 -7.1V10c0 -5.5 -4.5 -10 -10 -10ZM220 45.9l-24.1 24.1h-25.9c-5.5 0 -10 4.5 -10 10v25.9l-21.8 21.8c-2.8 2.8 -3.7 7 -2.3 10.7 2.6 6.8 4.1 14 4.1 21.6 0 33.1 -26.9 60 -60 60s-60 -26.9 -60 -60 26.9 -60 60 -60c5.2 0 10.2 0.7 15.1 2 3.4 0.9 7.1 0 9.6 -2.6l79.4 -79.4h35.9v25.9Z"/></svg>