<svg xmlns="http://www.w3.org/2000/svg" width="240" height="240" viewBox="0 0 240 240"><path d="M200 130V50c0 -2.7 -1.1 -5.2 -2.9 -7.1 -1.9 -1.9 -4.4 -2.9 -7.1 -2.9H50c-2.7 0 -5.2 1.1 -7.1 2.9s-2.9 4.4 -2.9 7.1v80c0 5.5 -4.5 10 -10 10s-10 -4.5 -10 -10V50c0 -8 3.2 -15.6 8.8 -21.2s13.3 -8.8 21.2 -8.8h140c8 0 15.6 3.2 21.2 8.8 5.6 5.6 8.8 13.3 8.8 21.2v80c0 5.5 -4.5 10 -10 10s-10 -4.5 -10 -10ZM240 170c0 13.3 -5.3 26 -14.6 35.4 -9.4 9.4 -22.1 14.6 -35.4 14.6H50c-13.3 0 -26 -5.3 -35.4 -14.6 -9.4 -9.4 -14.6 -22.1 -14.6 -35.4 0 -2.7 1.1 -5.2 2.9 -7.1 1.9 -1.9 4.4 -2.9 7.1 -2.9h220c5.5 0 10 4.5 10 10ZM218.3 180H21.7c1.5 4.2 3.9 8 7.1 11.2 5.6 5.6 13.3 8.8 21.2 8.8h140c8 0 15.6 -3.2 21.2 -8.8 3.2 -3.2 5.6 -7 7.1 -11.2ZM110 70c0 5.5 4.5 10 10 10s10 -4.5 10 -10 -4.5 -10 -10 -10 -10 4.5 -10 10Z"/></svg>