<svg xmlns="http://www.w3.org/2000/svg" width="240" height="240" viewBox="0 0 240 240"><path d="M14.9 78.6l100 60c3.2 1.9 7.1 1.9 10.3 0l100 -60c3 -1.8 4.9 -5.1 4.9 -8.6s-1.8 -6.8 -4.9 -8.6L125.1 1.4c-3.2 -1.9 -7.1 -1.9 -10.3 0L14.9 61.4c-3 1.8 -4.9 5.1 -4.9 8.6s1.8 6.8 4.9 8.6ZM120 21.7l80.6 48.3 -80.6 48.3L39.4 70 120 21.7ZM225.1 178.6l-100 60c-3.2 1.9 -7.1 1.9 -10.3 0L14.9 178.6c-4.7 -2.8 -6.3 -9 -3.4 -13.7 2.8 -4.7 9 -6.3 13.7 -3.4l94.9 56.9 94.9 -56.9c4.7 -2.8 10.9 -1.3 13.7 3.4 2.8 4.7 1.3 10.9 -3.4 13.7ZM225.1 128.6l-100 60c-3.2 1.9 -7.1 1.9 -10.3 0L14.9 128.6c-4.7 -2.8 -6.3 -9 -3.4 -13.7 2.8 -4.7 9 -6.3 13.7 -3.4l94.9 56.9 94.9 -56.9c4.7 -2.8 10.9 -1.3 13.7 3.4 2.8 4.7 1.3 10.9 -3.4 13.7Z"/></svg>