<svg version="1.1" id="Layer_1" xmlns="http://www.w3.org/2000/svg" xmlns:xlink="http://www.w3.org/1999/xlink" x="0px" y="0px" viewBox="0 0 240 240" style="enable-background:new 0 0 24 24;" xml:space="preserve"><style type="text/css">
	.st0{fill:#F8F8FB;}
</style><path d="M105 150H52c-4 0 -8 3 -8 8v45c0 4 3 8 8 8h52c4 0 8 -3 8 -8v-45C112 153 109 150 105 150zM98 195H60v-30h38V195zM105 30H52C48 30 45 33 45 38v90c0 4 3 8 8 8h52c4 0 8 -3 8 -8v-90C112 33 109 30 105 30zM98 120H60V45h38V120zM188 30h-52c-4 0 -8 3 -8 8v45c0 4 3 8 8 8h52c4 0 8 -3 8 -8V38C195 33 192 30 188 30zM180 75h-38v-30H180V75zM188 105h-52c-4 0 -8 3 -8 8v90c0 4 3 8 8 8h52c4 0 8 -3 8 -8v-90C195 108 192 105 188 105zM180 195h-38V120H180V195z"/></svg>