<svg xmlns="http://www.w3.org/2000/svg" width="240" height="240" viewBox="0 0 240 240"><path d="M220 10c0 -5.5 -4.5 -10 -10 -10h-70c-5.5 0 -10 4.5 -10 10v60c0 5.5 4.5 10 10 10h70c5.5 0 10 -4.5 10 -10V10ZM200 60h-50V20h50v40ZM210 100h-70c-5.5 0 -10 4.5 -10 10v120c0 5.5 4.5 10 10 10h70c5.5 0 10 -4.5 10 -10v-120c0 -5.5 -4.5 -10 -10 -10ZM200 220h-50v-100h50v100ZM100 160H30c-5.5 0 -10 4.5 -10 10v60c0 5.5 4.5 10 10 10h70c5.5 0 10 -4.5 10 -10v-60c0 -5.5 -4.5 -10 -10 -10ZM90 220h-50v-40h50v40ZM110 10c0 -5.5 -4.5 -10 -10 -10H30c-5.5 0 -10 4.5 -10 10v120c0 5.5 4.5 10 10 10h70c5.5 0 10 -4.5 10 -10V10ZM90 120h-50V20h50v100Z"/></svg>