<svg xmlns="http://www.w3.org/2000/svg" width="240" height="240" viewBox="0 0 240 240"><path d="M153.5 149.9c-2.8 0 -5.5 -1.2 -7.6 -3.3 -4.2 -4.5 -4.2 -11.7 0 -16.2l15.7 -16.8c4.2 -4.5 11 -4.5 15.2 0 4.2 4.5 4.2 11.7 0 16.2l-15.7 16.8c-2.1 2.3 -4.8 3.3 -7.6 3.3ZM94.1 130.5l-15.7 -16.8c-4.2 -4.5 -11 -4.5 -15.2 0 -4.2 4.5 -4.2 11.7 0 16.2l15.7 16.8c2.1 2.2 4.8 3.3 7.6 3.3 2.8 0 5.5 -1.1 7.6 -3.3 4.2 -4.5 4.2 -11.7 0 -16.2ZM109.3 125.2c0 6.3 4.9 11.5 10.8 11.5s10.8 -5.2 10.8 -11.5v-23.7c0 -6.3 -4.9 -11.5 -10.8 -11.5s-10.8 5.2 -10.8 11.5v23.7Z"/></svg>