<svg xmlns="http://www.w3.org/2000/svg" width="240" height="240" viewBox="0 0 240 240"><path d="M27.3 111.3l43.4 42c4 3.8 4 10 0 13.8 -2 2 -4.5 2.8 -7.1 2.8 -2.6 0 -5.1 -1 -7.1 -2.8L13 125.2c-4 -3.8 -4 -10 0 -13.8 4 -3.8 10.3 -3.8 14.3 0ZM227 111.3c-4 -3.8 -10.3 -3.8 -14.3 0l-43.4 42c-4 3.8 -4 10 0 13.8 2 1.9 4.5 2.8 7.1 2.8 2.6 0 5.1 -0.9 7.1 -2.8l43.4 -42c4 -3.8 4 -10 0 -13.8ZM120.1 149c5.6 0 10.1 -4.4 10.1 -9.8v-59.4c0 -5.4 -4.6 -9.8 -10.1 -9.8s-10.1 4.4 -10.1 9.8v59.4c0 5.4 4.6 9.8 10.1 9.8Z"/></svg>