<svg xmlns="http://www.w3.org/2000/svg" width="240" height="240" viewBox="0 0 240 240"><path d="M230 40c0 5.5 -4.5 10 -10 10h-120c-5.5 0 -10 -4.5 -10 -10s4.5 -10 10 -10h120c5.5 0 10 4.5 10 10ZM10 20c0 -5.5 4.5 -10 10 -10h40c5.5 0 10 4.5 10 10v40c0 5.5 -4.5 10 -10 10H20c-5.5 0 -10 -4.5 -10 -10V20ZM30 50h20v-20h-20v20ZM10 100c0 -5.5 4.5 -10 10 -10h40c5.5 0 10 4.5 10 10v40c0 5.5 -4.5 10 -10 10H20c-5.5 0 -10 -4.5 -10 -10v-40ZM30 130h20v-20h-20v20ZM10 180c0 -5.5 4.5 -10 10 -10h40c5.5 0 10 4.5 10 10v40c0 5.5 -4.5 10 -10 10H20c-5.5 0 -10 -4.5 -10 -10v-40ZM30 210h20v-20h-20v20ZM230 200c0 -5.5 -4.5 -10 -10 -10h-120c-5.5 0 -10 4.5 -10 10s4.5 10 10 10h120c5.5 0 10 -4.5 10 -10ZM220 110h-120c-5.5 0 -10 4.5 -10 10s4.5 10 10 10h120c5.5 0 10 -4.5 10 -10s-4.5 -10 -10 -10Z"/></svg>