<svg version="1.1" id="Layer_1" xmlns="http://www.w3.org/2000/svg" xmlns:xlink="http://www.w3.org/1999/xlink" x="0px" y="0px" viewBox="0 0 240 240" style="enable-background:new 0 0 24 24;" xml:space="preserve"><style type="text/css">
	.st0{fill:#F8F8FB;}
</style><path d="M71 161H38c-5 0 -8 4 -8 8v33C30 206 34 210 38 210h33c5 0 8 -4 8 -8v-33C79 165 75 161 71 161zM63 194H46v-16h16V194zM210 120c0 5 -4 8 -8 8h-98c-5 0 -8 -4 -8 -8s4 -8 8 -8h98C206 112 210 115 210 120zM71 30H38C34 30 30 34 30 38v33c0 5 4 8 8 8h33c5 0 8 -4 8 -8V38C79 34 75 30 71 30zM63 63H46V46h16V63zM95 55c0 -5 4 -8 8 -8h98C206 46 210 50 210 55c0 5 -4 8 -8 8h-98C99 63 95 59 95 55zM210 185c0 5 -4 8 -8 8h-98c-5 0 -8 -4 -8 -8s4 -8 8 -8h98C206 177 210 181 210 185zM71 95H38C34 95 30 99 30 104v33c0 5 4 8 8 8h33c5 0 8 -4 8 -8v-33C79 99 75 95 71 95zM63 128H46v-16h16V128z"/></svg>