<svg xmlns="http://www.w3.org/2000/svg" width="240" height="240" viewBox="0 0 240 240"><path d="M120 50c-22.1 0 -40 17.9 -40 40s17.9 40 40 40 40 -17.9 40 -40 -17.9 -40 -40 -40ZM120 110c-11 0 -20 -9 -20 -20s9 -20 20 -20 20 9 20 20 -9 20 -20 20ZM112.9 227l7.1 -7 7.1 7c-1.9 1.9 -4.4 3 -7.1 3s-5.2 -1.1 -7.1 -3ZM127.1 227h0s0 0 0 0l0.2 -0.2s0.4 -0.4 0.7 -0.7c0.6 -0.6 1.5 -1.6 2.6 -2.7 2.2 -2.4 5.4 -5.8 9.2 -10 7.6 -8.5 17.8 -20.4 28 -33.8 10.2 -13.4 20.6 -28.7 28.4 -43.8 7.7 -15 13.6 -30.9 13.6 -45.6C210 32.5 163.5 0 120 0S30 32.5 30 90c0 14.7 5.9 30.6 13.6 45.6 7.9 15.2 18.2 30.4 28.4 43.8 10.2 13.5 20.4 25.3 28 33.8 3.8 4.3 7 7.7 9.2 10 1.1 1.2 2 2.1 2.6 2.7 0.3 0.3 0.5 0.6 0.7 0.7l0.2 0.2h0s0 0 0 0h0s0 0 7.1 -7q7.1 7 7.1 7h0ZM120 205.5c-1.5 -1.6 -3.2 -3.5 -5.1 -5.6 -7.4 -8.2 -17.2 -19.7 -27 -32.6 -9.8 -12.9 -19.4 -27.2 -26.6 -40.9 -7.3 -14 -11.4 -26.5 -11.4 -36.4 0 -44.5 35.5 -70 70 -70s70 25.5 70 70c0 9.8 -4.1 22.4 -11.4 36.4 -7.1 13.8 -16.8 28 -26.6 40.9 -9.8 12.9 -19.6 24.3 -27 32.6 -1.9 2.1 -3.6 3.9 -5.1 5.6Z"/></svg>