<svg xmlns="http://www.w3.org/2000/svg" width="240" height="240" viewBox="0 0 240 240"><path d="M227.6 10.3l-77.2 19.3 -57.2 -19.1c-1.7 -0.6 -3.6 -0.7 -5.3 -0.3 -0.2 0 -0.4 0.1 -0.7 0.2L7.6 30.3c-4.5 1.1 -7.6 5.1 -7.6 9.7v180c0 3.1 1.4 6 3.8 7.9 1.8 1.4 4 2.1 6.2 2.1 0.8 0 1.6 0 2.4 -0.3l77.2 -19.3 57.2 19.1c1 0.3 2 0.5 3.1 0.5 0.8 0 1.5 0 2.3 -0.2 0.2 0 0.4 -0.1 0.7 -0.2l79.6 -19.9c4.5 -1.1 7.6 -5.1 7.6 -9.7V20c0 -3.1 -1.4 -6 -3.8 -7.9 -2.5 -1.8 -5.6 -2.6 -8.6 -1.8ZM80 192.2l-60 15V47.8l60 -15v159.4ZM140 206.1l-40 -13.4V33.9l40 13.4v158.9ZM220 192.2l-60 15V47.8l60 -15v159.4Z"/></svg>