<svg xmlns="http://www.w3.org/2000/svg" width="240" height="240" viewBox="0 0 240 240"><path d="M50 0c-5.5 0 -10 4.5 -10 10v180c0 5.5 4.5 10 10 10h70v30c0 5.5 4.5 10 10 10h60c5.5 0 10 -4.5 10 -10v-60c0 -2.7 -1.1 -5.2 -2.9 -7.1l-20 -20c-1.9 -1.9 -4.4 -2.9 -7.1 -2.9h-40c-5.5 0 -10 4.5 -10 10v30h-60v-100h60v30c0 5.5 4.5 10 10 10h60c5.5 0 10 -4.5 10 -10v-60c0 -2.7 -1.1 -5.2 -2.9 -7.1l-20 -20c-1.9 -1.9 -4.4 -2.9 -7.1 -2.9h-40c-5.5 0 -10 4.5 -10 10v30h-60V10c0 -5.5 -4.5 -10 -10 -10ZM140 190v-30h25.9l14.1 14.1v45.9h-40v-30ZM140 70v-30h25.9l14.1 14.1v45.9h-40v-30Z"/></svg>