<svg width="200" height="200" viewBox="0 0 200 200" fill="none" xmlns="http://www.w3.org/2000/svg"><path fill-rule="evenodd" d="M25 56.25C25 52.798 27.798 50 31.25 50H168.75C172.202 50 175 52.798 175 56.25C175 59.702 172.202 62.5 168.75 62.5H31.25C27.798 62.5 25 59.702 25 56.25ZM25 100C25 96.548 27.798 93.75 31.25 93.75H168.75C172.202 93.75 175 96.548 175 100C175 103.452 172.202 106.25 168.75 106.25H31.25C27.798 106.25 25 103.452 25 100ZM31.25 137.5C27.798 137.5 25 140.298 25 143.75C25 147.202 27.798 150 31.25 150H168.75C172.202 150 175 147.202 175 143.75C175 140.298 172.202 137.5 168.75 137.5H31.25Z" fill="#FEFEFC"/></svg>