<svg xmlns="http://www.w3.org/2000/svg" width="240" height="240" viewBox="0 0 240 240"><path d="M120 10C55.5 10 0 52.7 0 110s55.5 100 120 100c10.4 0 20.4 -0.8 30.4 -3.4l55.8 22.7c3.3 1.3 7 0.8 9.8 -1.3 2.8 -2.1 4.3 -5.6 3.9 -9.1l-5.5 -47.3c15.5 -16.9 25.5 -38 25.5 -61.5 0 -57.3 -55.5 -100 -120 -100ZM196.9 160.9c-2.2 2.2 -3.2 5.2 -2.9 8.2l4.1 35.2 -43.4 -17.6c-2.1 -0.9 -4.5 -1 -6.6 -0.3 -8.8 2.6 -17.7 3.6 -28.1 3.6 -57.5 0 -100 -37.3 -100 -80S62.5 30 120 30s100 37.3 100 80c0 18.8 -8.5 36.4 -23.1 50.9ZM140 130c0 5.5 -4.5 10 -10 10h-50c-5.5 0 -10 -4.5 -10 -10s4.5 -10 10 -10h50c5.5 0 10 4.5 10 10ZM170 90c0 5.5 -4.5 10 -10 10h-80c-5.5 0 -10 -4.5 -10 -10s4.5 -10 10 -10h80c5.5 0 10 4.5 10 10Z"/></svg>