<svg xmlns="http://www.w3.org/2000/svg" width="240" height="240" viewBox="0 0 240 240"><path d="M12.9 212.9l62.9 -62.9H30c-5.5 0 -10 -4.5 -10 -10s4.5 -10 10 -10h70c1.3 0 2.6 0.3 3.8 0.8 1.2 0.5 2.3 1.2 3.2 2.1h0c1.9 2 2.9 4.5 2.9 7.1h0v70c0 5.5 -4.5 10 -10 10s-10 -4.5 -10 -10v-45.9l-62.9 62.9c-3.9 3.9 -10.2 3.9 -14.1 0 -3.9 -3.9 -3.9 -10.2 0 -14.1ZM140 20c-5.5 0 -10 4.5 -10 10v70h0c0 1.4 0.3 2.7 0.8 3.8 0.5 1.2 1.2 2.3 2.1 3.2h0c1.9 2 4.5 2.9 7 3h70c5.5 0 10 -4.5 10 -10s-4.5 -10 -10 -10h-45.9l62.9 -62.9c3.9 -3.9 3.9 -10.2 0 -14.1 -3.9 -3.9 -10.2 -3.9 -14.1 0l-62.9 62.9V30c0 -5.5 -4.5 -10 -10 -10Z"/></svg>