<svg xmlns="http://www.w3.org/2000/svg" width="240" height="240" viewBox="0 0 240 240"><path d="M2.4 1.2h16.4l10.4 29c1.2 3.6 2.3 7.3 3.4 11.2l0.2 0.8h0.4c0.1 -0.5 0.3 -1 0.4 -1.5l0.5 -1.9h0s0 0 0 0c0.8 -2.9 1.6 -5.7 2.5 -8.5L46.9 1.2h16.4v65.2h-13.5v-23.9c0 -6.4 1.2 -17.4 2 -23.8h-0.4l-5.3 17.2 -9.2 24.9h-8.6l-9.1 -24.9 -5.1 -17.2h-0.4c0.8 6.4 1.9 17.4 1.9 23.8v23.9H2.4V1.2ZM140.2 1.2v65.2h40.5v-12.4h-25.8V1.2h-14.7ZM214.8 12.7c4.3 0 8.9 1.9 13.2 5.1l7.8 -9.6c-5.6 -5.2 -13.2 -8.2 -21 -8.2 -13.6 0 -23.2 8.6 -23.2 19.4 0 9.5 6.4 15.1 13.1 17.8l8.5 3.6 1 0.4c5.2 2.2 8.4 3.5 8.4 7.4 0 4.1 -3 6.3 -9.1 6.3 -5.7 0 -12.1 -2.3 -16.7 -6.4l-7.8 9.6c6.6 6.5 15.3 9.5 24.1 9.5 15.6 0 24.6 -9.4 24.6 -20.2 0 -9.2 -5 -14.5 -12.9 -17.7l-8.4 -3.4s-0.9 -0.4 -1.3 -0.5c-4.9 -2 -8.6 -3.5 -8.6 -7.2s3.2 -5.9 8.3 -5.9ZM50 200c5.5 0 10 -4.5 10 -10s-4.5 -10 -10 -10 -10 4.5 -10 10 4.5 10 10 10ZM150 200h40c5.5 0 10 -4.5 10 -10s-4.5 -10 -10 -10h-40c-5.5 0 -10 4.5 -10 10s4.5 10 10 10ZM239.8 148c0.2 0.7 0.2 1.3 0.2 2v80c0 5.5 -4.5 10 -10 10H10c-5.5 0 -10 -4.5 -10 -10v-80s0 -0.7 0 -1c0 -0.2 0 -0.4 0 -0.6 0 -0.1 0 -0.3 0 -0.4l10.7 -54c1.1 -5.5 6.3 -9.1 11.8 -7.9 5.5 1.1 9 6.4 7.9 11.8l-8.4 42.1h195.6l-8.4 -42c-1.1 -5.5 2.4 -10.7 7.8 -11.8 5.4 -1.2 10.7 2.4 11.8 7.8l10.8 54ZM220 160H20v60h200v-60ZM101 1.2c14.3 0 25.9 5.7 25.9 21s-11.7 22.1 -25.5 22.1h-8.1v22.1h-14.7V1.2h22.4ZM100.1 12.9h-6.8v19.7h7.2c8.1 0 12 -3.6 12 -10.4s-4.4 -9.3 -12.4 -9.3Z"/></svg>