<svg xmlns="http://www.w3.org/2000/svg" width="240" height="240" viewBox="0 0 240 240"><path d="M56.3 127h0c1.1 4.6 2.2 9.1 3.6 13.9h0.4c0.9 -3.5 1.7 -6.8 2.5 -10.2 0.9 -3.6 1.7 -7.1 2.7 -10.7l8.1 -30.4h15l-20 65.2h-17.7l-19.3 -65.2h15.6l7.4 30.4c0.6 2.4 1.2 4.7 1.7 7h0ZM208.1 177.4c2.6 -4.9 0.8 -10.9 -4.1 -13.5 -4.8 -2.6 -10.9 -0.8 -13.5 4.1 -14 25.9 -41 42.1 -70.5 42.1s-56.5 -16.1 -70.5 -42.1c-2.6 -4.9 -8.7 -6.7 -13.5 -4.1 -4.9 2.6 -6.7 8.7 -4.1 13.5 17.5 32.4 51.2 52.6 88.1 52.6s70.6 -20.1 88.1 -52.6ZM122 89.6c14.3 0 25.9 5.7 25.9 21s-11.7 22.1 -25.5 22.1h-8.1v22.1h-14.7v-65.2h22.4ZM121.1 101.3h-6.8v19.7h7.2c8.1 0 12 -3.6 12 -10.4s-4.4 -9.3 -12.4 -9.3ZM176.2 122.7l16.7 32.1h15.4v-65.2h-14.1v23.1c0 6.1 0.7 13 1.4 19 0.2 1.6 0.3 3.2 0.5 4.7h-0.4c-2 -5.1 -4.1 -10.3 -6.4 -14.7l-16.7 -32.1h-15.4v65.2h14.1v-23.1c0 -6.4 -0.8 -13.6 -1.6 -20 -0.1 -1.3 -0.3 -2.5 -0.4 -3.7h0.4c2 5.1 4.2 10.3 6.5 14.7ZM20 30v39.6c0 5.5 4.5 10 10 10s10 -4.5 10 -10v-31.6l80 -17.8 80 17.8v31.6c0 5.5 4.5 10 10 10s10 -4.5 10 -10v-39.6c0 -4.7 -3.3 -8.7 -7.8 -9.8L122.2 0.2c-1.4 -0.3 -2.9 -0.3 -4.3 0L27.8 20.2c-4.6 1 -7.8 5.1 -7.8 9.8Z"/></svg>