<svg xmlns="http://www.w3.org/2000/svg" width="240" height="240" viewBox="0 0 240 240"><path d="M200 70v-30H40v100c0 5.5 -4.5 10 -10 10s-10 -4.5 -10 -10V40c0 -11 9 -20 20 -20h160c11 0 20 9 20 20v30c0 5.5 -4.5 10 -10 10s-10 -4.5 -10 -10ZM240 160v50c0 5.5 -4.5 10 -10 10h-80c-5.5 0 -10 -4.5 -10 -10v-50c0 -5.5 4.5 -10 10 -10h10v-20c0 -16.5 13.5 -30 30 -30s30 13.5 30 30v20h10c5.5 0 10 4.5 10 10ZM180 150h20v-20c0 -5.5 -4.5 -10 -10 -10s-10 4.5 -10 10v20ZM220 170h-60v30h60v-30ZM0 180c0 22.1 17.9 40 40 40h70c5.5 0 10 -4.5 10 -10s-4.5 -10 -10 -10h-70c-7.4 0 -13.9 -4 -17.3 -10h87.3c5.5 0 10 -4.5 10 -10s-4.5 -10 -10 -10H10c-5.5 0 -10 4.5 -10 10Z"/></svg>