<svg xmlns="http://www.w3.org/2000/svg" width="240" height="240" viewBox="0 0 240 240"><path d="M230 75c0 -16.5 -13.5 -30 -30 -30 -7.5 0 -14.4 2.8 -19.7 7.4l-30.7 -17.3c0.3 -1.7 0.4 -3.4 0.4 -5.2 0 -16.5 -13.5 -30 -30 -30s-30 13.5 -30 30c0 1.8 0.2 3.5 0.5 5.2l-30.7 17.3c-5.3 -4.6 -12.2 -7.5 -19.8 -7.5 -16.5 0 -30 13.5 -30 30 0 13 8.4 24.1 20 28.3v33.4c-11.6 4.1 -20 15.3 -20 28.3 0 16.5 13.5 30 30 30 7.5 0 14.5 -2.8 19.7 -7.5l30.7 17.3c-0.3 1.7 -0.5 3.4 -0.5 5.2 0 16.5 13.5 30 30 30s30 -13.5 30 -30c0 -1.7 -0.1 -3.4 -0.4 -5.1l30.8 -17.3c5.3 4.6 12.2 7.4 19.7 7.4 16.5 0 30 -13.5 30 -30 0 -13 -8.4 -24.1 -20 -28.3v-33.4c11.6 -4.1 20 -15.3 20 -28.3ZM170.4 69.9c-0.3 1.7 -0.4 3.4 -0.4 5.1s0.2 3.5 0.5 5.2l-30.7 17.3c-2.8 -2.5 -6.1 -4.5 -9.8 -5.7v-33.4c3.6 -1.3 6.9 -3.2 9.7 -5.7l30.7 17.3ZM120 20c5.5 0 10 4.5 10 10s-4.5 10 -10 10 -10 -4.5 -10 -10 4.5 -10 10 -10ZM130 120c0 5.5 -4.5 10 -10 10s-10 -4.5 -10 -10 4.5 -10 10 -10 10 4.5 10 10ZM69.6 69.9l30.8 -17.3c2.8 2.5 6.1 4.4 9.7 5.7v33.4c-3.6 1.3 -6.9 3.2 -9.7 5.7l-30.7 -17.3c0.3 -1.7 0.4 -3.4 0.4 -5.1s-0.1 -3.4 -0.4 -5.1ZM40 65c5.5 0 10 4.5 10 10s-4.5 10 -10 10 -10 -4.5 -10 -10 4.5 -10 10 -10ZM40 175c-5.5 0 -10 -4.5 -10 -10s4.5 -10 10 -10 10 4.5 10 10 -4.5 10 -10 10ZM59.7 142.4c-2.8 -2.5 -6.1 -4.4 -9.7 -5.7v-33.4c3.6 -1.3 6.9 -3.2 9.7 -5.7l30.7 17.3c-0.3 1.7 -0.4 3.4 -0.4 5.2s0.1 3.4 0.4 5.1l-30.8 17.3ZM69.6 170.1c0.3 -1.7 0.4 -3.4 0.4 -5.1s-0.2 -3.5 -0.5 -5.2l30.7 -17.3c2.8 2.5 6.1 4.5 9.8 5.7v33.4c-3.6 1.3 -6.9 3.2 -9.7 5.7l-30.8 -17.3ZM120 220c-5.5 0 -10 -4.5 -10 -10s4.5 -10 10 -10 10 4.5 10 10 -4.5 10 -10 10ZM139.8 187.5c-2.8 -2.5 -6.1 -4.5 -9.8 -5.8v-33.4c3.6 -1.3 6.9 -3.2 9.7 -5.7l30.7 17.3c-0.3 1.7 -0.4 3.4 -0.4 5.1s0.2 3.5 0.5 5.2l-30.7 17.3ZM180.3 142.4l-30.7 -17.3c0.3 -1.7 0.4 -3.4 0.4 -5.2s-0.2 -3.4 -0.4 -5.1l30.8 -17.3c2.8 2.5 6.1 4.4 9.7 5.7v33.4c-3.6 1.3 -6.9 3.2 -9.7 5.7ZM200 175c-5.5 0 -10 -4.5 -10 -10s4.5 -10 10 -10 10 4.5 10 10 -4.5 10 -10 10ZM200 85c-5.5 0 -10 -4.5 -10 -10s4.5 -10 10 -10 10 4.5 10 10 -4.5 10 -10 10Z"/></svg>