<svg xmlns="http://www.w3.org/2000/svg" width="240" height="240" viewBox="0 0 240 240"><path d="M220.8 19.1c-5.8 -5.8 -13.7 -9.1 -22 -9.1s-16.2 3.2 -22.2 9.1l-6.7 6.7 -12.9 -12.9c-3.9 -3.9 -10.2 -3.9 -14.1 0l-30 30.1c-3.9 3.9 -3.9 10.2 0 14.1l12.9 12.9L43 152.9c-1.2 1.2 -2 2.6 -2.5 4.1 -1.6 4.9 -3.7 10.4 -5.2 13.4 -14.3 2.2 -25.3 14.7 -25.3 29.6 0 16.5 13.5 30 30 30 14.9 0 27.3 -11 29.6 -25.3 3 -1.5 8.4 -3.6 13.4 -5.2 1.5 -0.5 2.9 -1.4 4 -2.5l82.9 -82.9 13 13c2 1.9 4.5 2.9 7.1 2.9v-0.2c2.5 0 5 -0.9 7 -2.9l30 -30c3.9 -3.9 3.9 -10.2 0 -14.1l-12.9 -12.9 6.7 -6.7c12.2 -12.1 12.2 -31.9 0 -44.1ZM74.6 181.2c-20.5 6.8 -24.6 12.1 -24.6 18.8 0 5.5 -4.5 10 -10 10s-10 -4.5 -10 -10 4.5 -10 10 -10c6.7 0 12 -4.1 18.8 -24.6l81.1 -81.3 15.9 15.9 -81.2 81.2ZM206.8 49.2l-13.8 13.8c-3.9 3.9 -3.9 10.2 0 14.1l12.9 12.9 -15.9 15.9 -13 -13 -30 -30 -12.8 -12.7 15.9 -15.9 12.9 12.9c3.9 3.9 10.2 3.9 14.1 0l13.8 -13.8c4.4 -4.4 11.5 -4.4 15.9 0 2.1 2.1 3.3 4.9 3.3 7.9s-1.2 5.8 -3.3 7.9Z"/></svg>