<svg xmlns="http://www.w3.org/2000/svg" xmlns:xlink="http://www.w3.org/1999/xlink" x="0px" y="0px" viewBox="0 0 240 240" xml:space="preserve"><path d="M210 180c0 7 -5 12 -10 15c-5 3 -12 6 -20 8c-16 4 -37 7 -60 7s-45 -3 -60 -7c-8 -2 -15 -5 -20 -8c-5 -3 -10 -8 -10 -15c0 -5 3 -10 7 -13C40 165 44 162 49 160c10 -4 24 -7 40 -9c4 0 8 3 8 7s-3 8 -7 8c-15 2 -27 4 -36 8c-4 2 -7 3 -9 5C46 179 45 180 45 180c0 0 1 1 3 2c3 2 8 4 16 6c14 4 34 6 56 6c22 0 42 -2 56 -6c7 -2 12 -4 16 -6c2 -1 3 -2 3 -2c0 0 -1 -1 -1 -1c-2 -1 -4 -3 -9 -5c-8 -3 -21 -6 -36 -8c-4 0 -7 -4 -7 -8c0 -4 4 -7 8 -7c16 2 30 5 40 9c5 2 10 4 13 7C207 170 210 175 210 180zM68 82C68 54 91 30 120 30s52 24 52 52c0 26 -20 48 -45 52v38c0 4 -3 8 -8 8s-8 -3 -8 -8v-38C87 131 68 109 68 82zM82 82c0 21 17 38 38 38c21 0 38 -17 38 -38c0 -21 -17 -38 -38 -38C99 45 82 62 82 82z"/></svg>