<svg xmlns="http://www.w3.org/2000/svg" width="240" height="240" viewBox="0 0 240 240"><path d="M120 200c5.5 0 10 -4.5 10 -10v-50.7c33.9 -4.9 60 -34 60 -69.3 0 -38.7 -31.3 -70 -70 -70s-70 31.3 -70 70c0 35.3 26.1 64.4 60 69.3v50.7c0 5.5 4.5 10 10 10ZM70 70c0 -27.6 22.4 -50 50 -50s50 22.4 50 50 -22.4 50 -50 50 -50 -22.4 -50 -50ZM240 200c0 9.4 -6.9 16 -13.2 20.1 -6.8 4.4 -15.9 7.9 -26.4 10.8 -21 5.7 -49.4 9.1 -80.4 9.1s-59.4 -3.4 -80.4 -9.1c-10.4 -2.8 -19.6 -6.4 -26.4 -10.8 -6.3 -4.1 -13.2 -10.6 -13.2 -20.1 0 -7.3 4.2 -12.9 8.7 -16.7 4.5 -3.9 10.6 -7.1 17.3 -9.7 13.5 -5.3 32 -9.2 53 -11.5 5.5 -0.6 10.4 3.4 11 8.9s-3.4 10.4 -8.9 11c-20 2.1 -36.5 5.8 -47.8 10.2 -5.7 2.2 -9.4 4.4 -11.6 6.3 -0.8 0.7 -1.2 1.2 -1.5 1.5 0.4 0.6 1.4 1.7 3.9 3.3 4.3 2.8 11.3 5.7 20.8 8.3 18.8 5.1 45.4 8.4 75.2 8.4s56.3 -3.3 75.2 -8.4c9.5 -2.6 16.4 -5.5 20.8 -8.3 2.5 -1.6 3.5 -2.7 3.9 -3.3 -0.2 -0.3 -0.7 -0.8 -1.5 -1.5 -2.2 -1.9 -5.9 -4.1 -11.6 -6.3 -11.2 -4.4 -27.8 -8.1 -47.8 -10.2 -5.5 -0.6 -9.5 -5.5 -8.9 -11 0.6 -5.5 5.5 -9.5 11 -8.9 21 2.2 39.4 6.2 53 11.5 6.7 2.6 12.8 5.8 17.3 9.7 4.5 3.8 8.7 9.4 8.7 16.7Z"/></svg>