<svg xmlns="http://www.w3.org/2000/svg" width="240" height="240" viewBox="0 0 240 240"><path d="M212.2 20.2L122.2 0.2c-1.4 -0.3 -2.9 -0.3 -4.3 0L27.8 20.2c-4.6 1 -7.8 5.1 -7.8 9.8v100c0 26.5 10.5 52 29.3 70.7 18.8 18.8 44.2 29.3 70.7 29.3s52 -10.5 70.7 -29.3c18.8 -18.8 29.3 -44.2 29.3 -70.7V30c0 -4.7 -3.3 -8.7 -7.8 -9.8ZM200 130c0 21.2 -8.4 41.6 -23.4 56.6 -15 15 -35.4 23.4 -56.6 23.4s-41.6 -8.4 -56.6 -23.4 -23.4 -35.4 -23.4 -56.6V38l80 -17.8 80 17.8v92Z"/><path d="M98.8 58.8c-5.6 5.6 -8.8 13.2 -8.8 21.2h0v20h-10c-5.5 0 -10 4.5 -10 10v50c0 5.5 4.5 10 10 10h80c5.5 0 10 -4.5 10 -10v-50c0 -5.5 -4.5 -10 -10 -10h-10v-20h0c0 -8 -3.2 -15.6 -8.8 -21.2 -5.6 -5.6 -13.2 -8.8 -21.2 -8.8h0c-7.9 0 -15.5 3.2 -21.2 8.8ZM150 120v30h-60v-30h60ZM127.1 72.9c1.9 1.9 2.9 4.4 2.9 7.1v20h-20v-20c0 -2.7 1.1 -5.2 2.9 -7.1 1.9 -1.9 4.4 -2.9 7.1 -2.9 2.6 0 5.2 1.1 7.1 2.9Z"/></svg>