<svg xmlns="http://www.w3.org/2000/svg" width="240" height="240" viewBox="0 0 240 240"><path d="M53.6 135.2c0 18.2 14.8 33 33 33h80.3c18.2 0 33 -14.8 33 -33 0 -15.2 -10.3 -28 -24.2 -31.8 -5.4 -24.1 -26.2 -41.4 -51.8 -41.4s-47.7 19 -52.3 43.6c-10.7 5.4 -18 16.9 -18 29.6ZM83.1 122.6c4.3 -1 7.5 -4.8 7.7 -9.2 0.9 -17.3 15.7 -31.3 33.1 -31.3s31.7 13.3 33.1 31c0.4 5.2 4.8 9.2 10 9.2 7.2 0 13 5.8 13 13s-5.9 13 -13 13h-80.4c-7.2 0 -13 -5.9 -13 -13 0 -6.1 4 -11.4 9.5 -12.7ZM33.3 36.9l-20.6 2.6c-5.6 0.7 -10.5 -3.2 -11.2 -8.7 -0.7 -5.5 3.2 -10.5 8.7 -11.2l58 -7.3c3.4 -0.4 6.6 0.9 8.8 3.4 2.2 2.5 3 6 2.1 9.2l-15.9 56.9c-1.2 4.4 -5.2 7.3 -9.6 7.3h-0.1c-0.9 0.1 -1.8 0 -2.7 -0.3 -5.3 -1.5 -8.4 -7 -6.9 -12.3l8.4 -30.2C19.9 76.1 9.9 125.1 31.2 165.9c12.3 23.7 33.1 41.2 58.6 49.3 25.5 8 52.5 5.7 76.2 -6.6 23.7 -12.3 41.2 -33.1 49.3 -58.6s5.7 -52.5 -6.6 -76.2c-17.3 -33.3 -51.2 -53.9 -88.7 -53.9 -5.5 0 -10 -4.5 -10 -10s4.5 -10 10 -10c45 0 85.8 24.8 106.5 64.7 14.8 28.4 17.6 60.9 7.9 91.5 -9.7 30.6 -30.7 55.5 -59.1 70.3 -17.3 9 -36.2 13.6 -55.2 13.6h0c-12.2 -0.1 -24.4 -2 -36.3 -5.8 -30.6 -9.7 -55.5 -30.7 -70.3 -59.1C-10.8 128.4 -1.2 73 33.3 36.9Z"/></svg>