<svg xmlns="http://www.w3.org/2000/svg" width="240" height="240" viewBox="0 0 240 240"><path d="M172 189.8c0 -5.5 4.5 -10 10 -10h10c5.5 0 10 4.5 10 10s-4.5 10 -10 10h-10c-5.5 0 -10 -4.5 -10 -10ZM132 199.8h10c5.5 0 10 -4.5 10 -10s-4.5 -10 -10 -10h-10c-5.5 0 -10 4.5 -10 10s4.5 10 10 10ZM48.1 199.8c5.5 0 10 -4.5 10 -10s-4.5 -10 -10 -10 -10 4.5 -10 10 4.5 10 10 10ZM186.9 47.8c2.6 0 5.1 -0.9 7 -2.9 3.9 -3.9 3.9 -10.2 0 -14.2 -19.7 -19.8 -46 -30.7 -73.9 -30.7s-54.2 10.9 -73.9 30.7c-3.9 3.9 -3.9 10.2 0 14.2 3.9 3.9 10.2 3.9 14.1 0 16 -16 37.2 -24.8 59.8 -24.8s43.8 8.7 59.8 24.8c2 1.9 4.5 2.9 7.1 2.9ZM158.3 76.4h0.1c2.6 0 5.1 -0.9 7.1 -2.9 3.9 -3.9 3.9 -10.2 0 -14.2 -12.2 -12.1 -28.2 -18.9 -45.4 -18.9s-33.3 6.7 -45.4 18.9c-3.9 3.9 -3.9 10.2 0 14.2 3.9 3.9 10.2 3.9 14.1 0 8.3 -8.3 19.4 -12.9 31.2 -12.9s22.9 4.6 31.2 12.9c2 1.9 4.5 2.9 7.1 2.9ZM0 189.8c0 -23.6 16.2 -43.4 38.1 -48.8v-50c0 -5.5 4.5 -10 10 -10s10 4.5 10 10v48.6h123.9v-48.6c0 -5.5 4.5 -10 10 -10s10 4.5 10 10v50c21.8 5.4 38 25.2 38 48.7 0 27.7 -22.4 50.2 -50 50.2H50c-27.6 0 -50 -22.5 -50 -50.2ZM20 189.8c0 16.6 13.5 30.1 30 30.1h140c16.5 0 30 -13.6 30 -30.1s-13.5 -30.1 -30 -30.1H50c-16.5 0 -30 13.6 -30 30.1ZM100 100c0 11.1 9 20.1 20 20.1s20 -9 20 -20.1 -9 -20.1 -20 -20.1 -20 9 -20 20.1Z"/></svg>