<svg width="200" height="200" viewBox="0 0 200 200" fill="none" xmlns="http://www.w3.org/2000/svg"><path fill-rule="evenodd" d="M38.636 86.364C38.636 60.005 60.005 38.636 86.364 38.636C112.723 38.636 134.091 60.005 134.091 86.364C134.091 99.429 128.841 111.269 120.335 119.888C120.257 119.958 120.181 120.031 120.106 120.106C120.031 120.181 119.958 120.257 119.888 120.334C111.269 128.84 99.429 134.091 86.364 134.091C60.005 134.091 38.636 112.723 38.636 86.364ZM124.666 134.308C114.168 142.706 100.852 147.727 86.364 147.727C52.473 147.727 25 120.254 25 86.364C25 52.473 52.473 25 86.364 25C120.254 25 147.727 52.473 147.727 86.364C147.727 100.852 142.706 114.168 134.308 124.666L173.003 163.36C175.666 166.023 175.666 170.34 173.003 173.003C170.34 175.665 166.023 175.665 163.361 173.003L124.666 134.308Z" fill="#FEFEFC"/></svg>