<svg xmlns="http://www.w3.org/2000/svg" width="240" height="240" viewBox="0 0 240 240"><path d="M220 130V30c0 -4.7 -3.2 -8.8 -7.8 -9.8L122.2 0.2c-1.4 -0.3 -2.9 -0.3 -4.3 0L27.8 20.2c-4.5 1.1 -7.8 5.1 -7.8 9.8v100c0 55.1 44.9 100 100 100 55.1 0 100 -44.9 100 -100ZM40 130V38l80 -17.8 80 17.8v92c0 44.1 -35.9 80 -80 80s-80 -35.9 -80 -80ZM146.7 135.1c0 -3.2 -0.3 -6.3 -1 -9.4l36.9 -36.9c1.8 -1.9 2.9 -4.4 2.9 -7.1v-19.4c0 -5.5 -4.5 -10 -10 -10h-24.2c-2.7 0 -5.2 1 -7.1 2.9l-36.2 36.2c-26.2 -3.4 -49.1 17.7 -49.1 43.6 0 24.2 19.7 43.9 43.9 43.9h0c24.2 0.1 43.9 -19.6 43.9 -43.8ZM78.8 135c0 -13.2 10.7 -23.9 23.9 -23.9h0c1.9 0.1 3.9 0.4 6 0.9 3.4 0.9 7.1 -0.1 9.6 -2.6l37 -37h10.1v5.2l-38.1 38.1c-2.8 2.8 -3.7 7 -2.3 10.7 1.1 2.8 1.6 5.7 1.6 8.6 0 13.2 -10.7 23.9 -23.9 23.9s-23.9 -10.7 -23.9 -23.9ZM102.7 144.7c-5.4 0 -9.7 -4.3 -9.7 -9.7s4.3 -9.7 9.7 -9.7 9.7 4.3 9.7 9.7 -4.3 9.7 -9.7 9.7Z"/></svg>