<svg xmlns="http://www.w3.org/2000/svg" width="240" height="240" viewBox="0 0 240 240"><path d="M120 190c16.6 0 30 -13.4 30 -30s-13.4 -30 -30 -30 -30 13.4 -30 30 13.4 30 30 30ZM120 150c5.5 0 10 4.5 10 10s-4.5 10 -10 10 -10 -4.5 -10 -10 4.5 -10 10 -10ZM90 60c0 -5.5 4.5 -10 10 -10h40c5.5 0 10 4.5 10 10s-4.5 10 -10 10h-40c-5.5 0 -10 -4.5 -10 -10ZM90 100c0 -5.5 4.5 -10 10 -10h40c5.5 0 10 4.5 10 10s-4.5 10 -10 10h-40c-5.5 0 -10 -4.5 -10 -10ZM40 0c-5.5 0 -10 4.5 -10 10v220c0 5.5 4.5 10 10 10h160c5.5 0 10 -4.5 10 -10V10c0 -5.5 -4.5 -10 -10 -10H40ZM190 220H50V20h140v200Z"/></svg>