<svg xmlns="http://www.w3.org/2000/svg" xmlns:xlink="http://www.w3.org/1999/xlink" x="0px" y="0px" viewBox="0 0 240 240" xml:space="preserve"><path d="M120 218c-13 0 -24 -11 -24 -24v-4c-3 -1 -5 -2 -7 -3l-3 3c-9 9 -25 9 -34 0c-5 -5 -7 -11 -7 -17s3 -13 7 -17l3 -3c-1 -2 -2 -5 -3 -7H46c-13 0 -24 -11 -24 -24c0 -13 11 -24 24 -24h4c1 -3 2 -5 3 -7L51 85c-10 -10 -10 -25 0 -34c10 -9 25 -9 34 0l3 3c2 -1 5 -2 7 -3V46c0 -13 11 -24 24 -24c13 0 24 11 24 24v4c3 1 5 2 7 3l3 -3c9 -10 25 -9 34 0c9 10 9 25 0 34l-3 3c1 2 2 5 3 7h4c13 0 24 11 24 24c0 13 -11 24 -24 24h-4c-1 3 -2 5 -3 7l3 3c9 10 9 25 0 34c-9 10 -25 10 -34 0l-3 -3c-2 1 -5 2 -7 3v4C144 207 133 218 120 218zM87 168c1 0 3 0 4 1c5 3 10 5 15 6c4 1 6 4 6 8v10c0 5 4 8 8 8c5 0 8 -4 8 -8v-10c0 -4 2 -7 6 -8c5 -1 10 -3 15 -6c3 -2 7 -1 10 1l7 7c3 3 9 3 12 0c3 -3 3 -9 0 -12l-7 -7c-3 -3 -3 -7 -1 -10c3 -5 5 -10 6 -15c1 -4 4 -6 8 -6h10c5 0 8 -4 8 -8c0 -5 -4 -8 -8 -8h-10c-4 0 -7 -2 -8 -6c-1 -5 -3 -10 -6 -15c-2 -3 -1 -7 1 -10l7 -7c3 -3 3 -9 0 -12c-3 -3 -9 -3 -12 0l-7 7c-3 3 -7 3 -10 1c-5 -3 -10 -5 -15 -6c-4 -1 -6 -4 -6 -8v-10c0 -5 -4 -8 -8 -8c-5 0 -8 4 -8 8v10c0 4 -2 7 -6 8c-5 1 -10 3 -15 6c-3 2 -7 1 -10 -1L74 62c-3 -3 -9 -3 -12 0c-3 3 -3 9 0 12l7 7c3 3 3 7 1 10c-3 5 -5 10 -6 15c-1 4 -4 6 -8 6h-10c-5 0 -8 4 -8 8c0 5 4 8 8 8h10c4 0 7 2 8 6c1 5 3 10 6 15c2 3 1 7 -1 10l-7 7C60 168 60 170 60 172c0 2 1 4 2 6c3 3 9 3 12 0l7 -7C83 169 85 168 87 168zM120 153c-18 0 -33 -15 -33 -33c0 -18 15 -33 33 -33c18 0 33 15 33 33C153 138 138 153 120 153zM120 103c-9 0 -17 7 -17 17c0 9 7 17 17 17s17 -7 17 -17C137 111 129 103 120 103zM120 153c-18 0 -33 -15 -33 -33c0 -18 15 -33 33 -33c18 0 33 15 33 33C153 138 138 153 120 153zM120 103c-9 0 -17 7 -17 17c0 9 7 17 17 17s17 -7 17 -17C137 111 129 103 120 103z"/></svg>