<svg xmlns="http://www.w3.org/2000/svg" width="240" height="240" viewBox="0 0 240 240"><path d="M10 130h10.5c1.1 11 4 21.5 8.3 31.1l-9.1 5.2c-4.8 2.8 -6.4 8.9 -3.7 13.7 2.8 4.8 8.9 6.4 13.7 3.7l9.1 -5.2c6.3 8.8 14 16.5 22.8 22.8l-5.2 9.1c-2.8 4.8 -1.1 10.9 3.7 13.7s10.9 1.1 13.7 -3.7l5.2 -9.1c9.6 4.4 20.1 7.2 31.1 8.3v10.5c0 5.5 4.5 10 10 10s10 -4.5 10 -10v-10.5c11 -1.1 21.5 -4 31.1 -8.3l5.2 9.1c2.8 4.8 8.9 6.4 13.7 3.7 4.8 -2.8 6.4 -8.9 3.7 -13.7l-5.2 -9.1c8.8 -6.3 16.4 -14 22.8 -22.8l9.1 5.2c4.8 2.8 10.9 1.1 13.7 -3.7 2.8 -4.8 1.1 -10.9 -3.7 -13.7l-9.1 -5.2c4.4 -9.7 7.2 -20.1 8.3 -31.1h10.5c5.5 0 10 -4.5 10 -10s-4.5 -10 -10 -10h-10.5c-1.1 -11 -4 -21.5 -8.3 -31.1l9.1 -5.2c4.8 -2.8 6.4 -8.9 3.7 -13.7 -2.8 -4.8 -8.9 -6.4 -13.7 -3.7l-9.1 5.2c-6.3 -8.8 -14 -16.4 -22.8 -22.8l5.2 -9.1c2.8 -4.8 1.1 -10.9 -3.7 -13.7 -4.8 -2.8 -10.9 -1.1 -13.7 3.7l-5.2 9.1c-9.6 -4.4 -20.1 -7.2 -31.1 -8.3v-10.5c0 -5.5 -4.5 -10 -10 -10s-10 4.5 -10 10v10.5c-11 1.1 -21.5 4 -31.1 8.3l-5.2 -9.1c-2.8 -4.8 -8.9 -6.4 -13.7 -3.7s-6.4 8.9 -3.7 13.7l5.2 9.1c-8.8 6.3 -16.4 14 -22.8 22.8l-9.1 -5.2c-4.8 -2.8 -10.9 -1.1 -13.7 3.7 -2.8 4.8 -1.1 10.9 3.7 13.7l9.1 5.2c-4.4 9.6 -7.2 20.1 -8.3 31.1h-10.5c-5.5 0 -10 4.5 -10 10s4.5 10 10 10ZM189.6 159.5s-0.2 0.3 -0.3 0.5c0 0.2 -0.2 0.3 -0.2 0.5 -6.9 11.8 -16.8 21.7 -28.6 28.6 -0.2 0 -0.3 0.2 -0.5 0.2 -0.2 0 -0.3 0.2 -0.5 0.3 -11.7 6.6 -25.2 10.4 -39.5 10.4 -11 0 -21.5 -2.2 -31 -6.2l36.8 -63.8h73.6c-1.3 10.6 -4.7 20.6 -9.8 29.5ZM120 40c14.4 0 27.9 3.8 39.5 10.4 0.1 0 0.3 0.2 0.5 0.3 0.2 0 0.3 0.2 0.5 0.2 11.8 6.9 21.7 16.8 28.6 28.6 0 0.2 0.2 0.3 0.2 0.5 0 0.2 0.2 0.3 0.3 0.5 5.1 8.9 8.5 18.9 9.8 29.5h-73.6l-36.8 -63.8c9.5 -4 20 -6.2 31 -6.2ZM50.4 80.5s0.2 -0.3 0.3 -0.5c0 -0.2 0.2 -0.3 0.2 -0.5 5.3 -9.1 12.4 -17 20.7 -23.3l36.8 63.7 -36.8 63.7c-8.3 -6.3 -15.4 -14.2 -20.7 -23.3 0 -0.2 -0.2 -0.3 -0.2 -0.5 0 -0.2 -0.2 -0.3 -0.3 -0.5 -6.6 -11.7 -10.4 -25.2 -10.4 -39.5s3.8 -27.9 10.4 -39.5Z"/></svg>