<svg xmlns="http://www.w3.org/2000/svg" width="240" height="240" viewBox="0 0 240 240"><path d="M237 119.3c4 4 4 10.6 0 14.6l-83 83c-2 2 -4.6 3 -7.3 3 -2.7 0 -5.2 -1.1 -7.3 -3l-44.6 -44.6c-4 -4 -4 -10.6 0 -14.6 4 -4 10.6 -4 14.6 0l37.2 37.3 75.6 -75.7c4 -4 10.6 -4 14.6 0ZM17.7 80.4c25.5 -25.5 59.5 -39.6 95.6 -39.6s70.1 14.1 95.6 39.6c2.1 2 4.6 3 7.3 3 2.7 0 5.3 -0.9 7.3 -3 4 -4 4 -10.6 0 -14.6 -29.5 -29.6 -68.6 -45.8 -110.3 -45.8S32.4 36.2 3 65.8c-4 4 -4 10.6 0 14.6 4 4 10.6 4 14.6 0ZM47 109.9c-4 4 -4 10.6 0 14.6s10.6 4 14.6 0c13.8 -13.8 32.2 -21.4 51.7 -21.4s37.9 7.6 51.7 21.4c2.1 2 4.7 3 7.4 3h0.1c2.7 0 5.3 -0.9 7.4 -3 4 -4 4 -10.6 0 -14.6 -17.7 -17.7 -41.3 -27.5 -66.4 -27.5s-48.7 9.8 -66.4 27.5Z"/></svg>