<svg xmlns="http://www.w3.org/2000/svg" width="240" height="240" viewBox="0 0 240 240"><path d="M180 119.9l-52.9 -57 50 50c1.9 1.9 2.9 4.5 2.9 7ZM10 120c0 5.5 4.5 10 10 10h125.9l-32.9 32.9c-3.9 3.9 -3.9 10.2 0 14.1 3.9 3.9 10.2 3.9 14.1 0l50 -50c1.8 -1.8 2.8 -4.2 2.9 -6.6 0 -0.2 0 -0.3 0 -0.5l-52.9 -57.1c-3.9 -3.9 -10.2 -3.9 -14.1 0s-3.9 10.2 0 14.1l32.9 32.9H20c-5.5 0 -10 4.5 -10 10ZM240 210V30c0 -8 -3.2 -15.6 -8.8 -21.2 -5.6 -5.6 -13.3 -8.8 -21.2 -8.8h-100c-5.5 0 -10 4.5 -10 10s4.5 10 10 10h100c2.7 0 5.2 1.1 7.1 2.9 1.9 1.9 2.9 4.4 2.9 7.1v180c0 2.7 -1.1 5.2 -2.9 7.1s-4.4 2.9 -7.1 2.9h-100c-5.5 0 -10 4.5 -10 10s4.5 10 10 10h100c8 0 15.6 -3.2 21.2 -8.8 5.6 -5.6 8.8 -13.3 8.8 -21.2Z"/></svg>