<svg xmlns="http://www.w3.org/2000/svg" width="240" height="240" viewBox="0 0 240 240"><path d="M90.1 230c0 -5.5 4.5 -10 10 -10h100c5.5 0 10 -4.5 10 -10V30c0 -5.5 -4.5 -10 -10 -10h-100c-5.5 0 -10 -4.5 -10 -10s4.5 -10 10 -10h100c16.5 0 30 13.5 30 30v180c0 16.5 -13.5 30 -30 30h-100c-5.5 0 -10 -4.5 -10 -10ZM180.1 120c0 -5.5 -4.5 -10 -10 -10H44.2l32.9 -32.9c3.9 -3.9 3.9 -10.2 0 -14.1 -3.9 -3.9 -10.2 -3.9 -14.1 0L13 112.9c-0.9 0.9 -1.7 2 -2.2 3.3 -1 2.4 -1 5.2 0 7.6 0.5 1.2 1.2 2.3 2.2 3.3l50 50c2 2 4.5 2.9 7.1 2.9s5.1 -1 7.1 -2.9c3.9 -3.9 3.9 -10.2 0 -14.1l-32.9 -32.9h-0.1s125.9 -0.1 125.9 -0.1c5.5 0 10 -4.5 10 -10Z"/></svg>