<svg version="1.1" id="Layer_1" xmlns="http://www.w3.org/2000/svg" xmlns:xlink="http://www.w3.org/1999/xlink" x="0px" y="0px" viewBox="0 0 240 240" style="enable-background:new 0 0 24 24;" xml:space="preserve"><style type="text/css">
	.st0{fill:#F8F8FB;}
</style><path d="M206 52v135c0 6 -2 12 -7 16c-4 4 -10 7 -16 7h-75c-4 0 -8 -3 -8 -8s3 -8 8 -8h75c2 0 4 -1 5 -2c1 -1 2 -3 2 -5V52c0 -2 -1 -4 -2 -5c-1 -1 -3 -2 -5 -2h-75c-4 0 -8 -3 -8 -8S105 30 109 30h75C190 30 195 32 200 37C204 41 206 47 206 52zM159 115l-38 -38c-3 -3 -8 -3 -11 0c-3 3 -3 8 0 11l25 25H41c-4 0 -8 3 -8 8s3 8 8 8h94l-25 25c-3 3 -3 8 0 11c3 3 8 3 11 0l38 -38c1 -1 2 -3 2 -5S160 116 159 115z"/></svg>