<svg width="240" height="240" viewBox="0 0 240 240" fill="none" xmlns="http://www.w3.org/2000/svg"><path fill-rule="evenodd" d="M120 30C74.435 30 37.5 66.935 37.5 112.5V120V157.5C37.5 169.93 47.57 180 60 180H82.5C86.642 180 90 176.642 90 172.5V120C90 115.858 86.642 112.5 82.5 112.5H52.5C52.5 75.22 82.72 45 120 45C157.28 45 187.5 75.22 187.5 112.5H157.5C153.358 112.5 150 115.858 150 120V172.5C150 176.642 153.358 180 157.5 180H180C182.63 180 185.154 179.549 187.5 178.72V180C187.5 188.285 180.785 195 172.5 195H135C130.858 195 127.5 198.358 127.5 202.5C127.5 206.642 130.858 210 135 210H172.5C189.07 210 202.5 196.57 202.5 180V157.5V120V112.5C202.5 66.935 165.565 30 120 30ZM52.5 157.5V127.5H75V165H60C55.855 165 52.5 161.645 52.5 157.5ZM180 165C184.145 165 187.5 161.645 187.5 157.5V127.5H165V165H180Z" fill="#F8F8FB"/></svg>