<svg xmlns="http://www.w3.org/2000/svg" width="240" height="240" viewBox="0 0 240 240"><path d="M10 69.9c0 -5.5 4.5 -10 10 -10h175.7l-32.8 -32.9c-3.9 -3.9 -3.9 -10.2 0 -14.1 3.9 -3.9 10.2 -3.9 14.1 0l49.1 49.1c2.4 1.8 3.9 4.7 3.9 7.9 0 3 -1.3 5.6 -3.4 7.5l-49.6 49.6c-2 2 -4.5 2.9 -7.1 2.9 -2.6 0 -5.1 -1 -7 -2.9 -3.9 -3.9 -3.9 -10.2 0 -14.1l33 -33H20c-5.5 0 -10 -4.5 -10 -10ZM230 170c0 -5.5 -4.5 -10 -10 -10H44.1l32.9 -32.9c3.9 -3.9 3.9 -10.2 0 -14.1 -3.9 -3.9 -10.2 -3.9 -14.1 0l-49.5 49.5c-0.8 0.7 -1.5 1.6 -2.1 2.6 -2.2 3.8 -1.6 8.7 1.6 12l50 50c2 1.9 4.5 2.9 7.1 2.9h-0.1c2.6 -0.1 5.1 -1 7.1 -3 3.9 -3.9 3.9 -10.2 0 -14.1l-32.9 -32.9h175.9c5.5 0 10 -4.5 10 -10Z"/></svg>