<svg xmlns="http://www.w3.org/2000/svg" width="240" height="240" viewBox="0 0 240 240"><path d="M140 190c0 -5.5 4.5 -10 10 -10h40c5.5 0 10 4.5 10 10s-4.5 10 -10 10h-40c-5.5 0 -10 -4.5 -10 -10ZM50 200c5.5 0 10 -4.5 10 -10s-4.5 -10 -10 -10 -10 4.5 -10 10 4.5 10 10 10ZM72.7 0v65.1h40.5v-12.4h-25.8V0h-14.7ZM239.8 148.1c0.2 0.7 0.2 1.3 0.2 2v79.9c0 5.5 -4.5 10 -10 10H10c-5.5 0 -10 -4.5 -10 -10v-79.9c0 -0.7 0.1 -1.4 0.2 -2l10.7 -54c1.1 -5.5 6.3 -9.1 11.8 -7.9 5.5 1.1 9 6.4 7.9 11.8l-8.4 42.1h195.6l-8.4 -42c-1.1 -5.5 2.4 -10.7 7.8 -11.8 5.4 -1.2 10.7 2.4 11.8 7.8l10.8 54ZM220 160.1H20v59.9h200v-59.9ZM122.5 56.1v9.1h44.7v-12.4h-14.2c-2.9 0 -7.3 0.4 -10.6 0.8l1.1 -1.1c10.9 -10.7 20.6 -20.2 20.6 -31.9S155.6 0.5 143.1 0.5c-8.9 0 -14.9 3.5 -21 10.4l7.7 7.6c3.2 -3.4 6.7 -6.5 11.3 -6.5 5.5 0 9 3.4 9 9.6 0 8.9 -11.6 20.3 -27.6 34.5Z"/></svg>