<svg xmlns="http://www.w3.org/2000/svg" width="240" height="240" viewBox="0 0 240 240"><path d="M40 160c0 -5.5 4.5 -10 10 -10h5c5.5 0 10 4.5 10 10s-4.5 10 -10 10h-5c-5.5 0 -10 -4.5 -10 -10ZM95 170h95c5.5 0 10 -4.5 10 -10s-4.5 -10 -10 -10h-95c-5.5 0 -10 4.5 -10 10s4.5 10 10 10ZM240 119.6s0 0.3 0 0.4v80c0 5.5 -4.5 10 -10 10H10c-5.5 0 -10 -4.5 -10 -10v-80c0 -2 0.6 -3.9 1.6 -5.4L51.5 34.7c1.8 -2.9 5 -4.7 8.5 -4.7h120c3.4 0 6.7 1.8 8.5 4.7l49.9 79.9c0.9 1.5 1.5 3.2 1.6 5ZM28 110h183.9l-37.5 -60H65.5l-37.5 60ZM220 130H20v60h200v-60Z"/></svg>