<svg xmlns="http://www.w3.org/2000/svg" width="240" height="240" viewBox="0 0 240 240"><path d="M137.2 0v40h0.4l15.4 -19.5h16.1l-17.2 20.6 18.5 29h-15.9l-11.2 -19.3 -6.1 6.9v12.4h-14.5V0h14.5ZM50 200c5.5 0 10 -4.5 10 -10s-4.5 -10 -10 -10 -10 4.5 -10 10 4.5 10 10 10ZM239.8 148.1c0.2 0.7 0.2 1.3 0.2 2v79.9c0 5.5 -4.5 10 -10 10H10c-5.5 0 -10 -4.5 -10 -10v-79.9c0 -0.7 0.1 -1.4 0.2 -2l10.7 -54c1.1 -5.5 6.3 -9.1 11.8 -7.9 5.5 1.1 9 6.4 7.9 11.8l-8.4 42.1h195.6l-8.4 -42c-1.1 -5.5 2.4 -10.7 7.8 -11.8 5.4 -1.2 10.7 2.4 11.8 7.8l10.8 54ZM220 160.1H20v59.9h200v-59.9ZM90 59.4c-5.4 0 -9.9 -2.8 -13.7 -6.3l-6.6 9.3c5 5 12 8.9 22.4 8.9 12.4 0 23.3 -8.7 23.3 -22.2s-9.3 -19.7 -20.2 -19.7c-2.6 0 -4.7 0.4 -7.1 1.5l1.1 -11.9h23.3V6.6h-36l-1.8 32.1 6.6 4.2c3.8 -2.4 5.7 -3.2 9.4 -3.2 5.9 0 10 3.3 10 9.8s-4.2 9.9 -10.7 9.9ZM150 200h40c5.5 0 10 -4.5 10 -10s-4.5 -10 -10 -10h-40c-5.5 0 -10 4.5 -10 10s4.5 10 10 10Z"/></svg>