<svg xmlns="http://www.w3.org/2000/svg" width="240" height="240" viewBox="0 0 240 240"><path d="M172.9 123.1c-3.9 3.9 -3.9 10.2 0 14.1l22.8 22.8H70c-5.5 0 -10 4.5 -10 10s4.5 10 10 10h125.9l-23 23c-3.9 3.9 -3.9 10.2 0 14.1 2 1.9 4.5 2.9 7.1 2.9h-0.1c2.6 0.1 5.1 -0.8 7.1 -2.8l40 -40s0.8 -0.9 1.2 -1.4c0.3 -0.5 0.6 -0.9 0.8 -1.4 0.4 -0.9 0.7 -1.8 0.9 -2.8 0 -0.5 0.1 -1 0.1 -1.6 0 -3.4 -1.7 -6.4 -4.3 -8.2l-38.7 -38.7c-3.9 -3.9 -10.2 -3.9 -14.1 0Z"/><path d="M52.9 117.1c2 1.9 4.5 2.9 7.1 2.9v-0.2c2.5 0 5 -0.9 7 -2.9 3.9 -3.9 3.9 -10.2 0 -14.1l-22.8 -22.8h135.8c5.5 0 10 -4.5 10 -10s-4.5 -10 -10 -10H44l23 -23c3.9 -3.9 3.9 -10.2 0 -14.1 -3.9 -3.9 -10.2 -3.9 -14.1 0l-39.5 39.6c-0.8 0.7 -1.5 1.6 -2.1 2.6 -2.2 3.8 -1.7 8.7 1.6 12l40 40Z"/></svg>