<svg xmlns="http://www.w3.org/2000/svg" width="240" height="240" viewBox="0 0 240 240"><path d="M138.4 0v40h0.4l15.4 -19.5h16.1l-17.2 20.6 18.5 29h-15.9l-11.2 -19.3 -6.1 6.9v12.4h-14.5V0h14.5ZM150 200h40c5.5 0 10 -4.5 10 -10s-4.5 -10 -10 -10h-40c-5.5 0 -10 4.5 -10 10s4.5 10 10 10ZM109.6 6.6v37.1h7.3v11.2h-7.3v15.2h-13.7v-15.2h-27.5v-10.1l23.2 -38.2h18ZM96.5 19.2h-0.4c-1.6 3.5 -3.4 7.1 -5.2 10.7l-8.4 13.8h13.4v-10.3c0 -3.2 0.2 -7.5 0.4 -11.2v-1.6s0.1 -1 0.2 -1.4ZM239.8 148c0.2 0.7 0.2 1.3 0.2 2v80c0 5.5 -4.5 10 -10 10H10c-5.5 0 -10 -4.5 -10 -10v-80c0 -0.7 0.1 -1.4 0.2 -2l10.7 -54c1.1 -5.5 6.3 -9.1 11.8 -7.9 5.5 1.1 9 6.4 7.9 11.8l-8.4 42.1h195.6l-8.4 -42c-1.1 -5.5 2.4 -10.7 7.8 -11.8 5.4 -1.2 10.7 2.4 11.8 7.8l10.8 54ZM220 160H20v60h200v-60ZM50 200c5.5 0 10 -4.5 10 -10s-4.5 -10 -10 -10 -10 4.5 -10 10 4.5 10 10 10Z"/></svg>