<svg xmlns="http://www.w3.org/2000/svg" width="240" height="240" viewBox="0 0 240 240"><path d="M209.6 7.2c-1.2 -4.2 -5.1 -7.2 -9.6 -7.2H40c-4.5 0 -8.4 2.9 -9.6 7.2L0.4 112.6c-0.3 0.9 -0.4 1.9 -0.4 2.8v114.6c0 5.5 4.5 10.1 10 10.1h220c5.5 0 10 -4.5 10 -10.1v-114.6c0 -1 -0.1 -1.9 -0.4 -2.8L209.6 7.2ZM47.6 20.1h144.9l24.2 85.2H23.4L47.6 20.1ZM220 219.9H20.1v-94.5h199.9v94.5ZM40 189.7c0 -5.5 4.5 -10.1 10 -10.1h38.5c5.5 0 10 4.5 10 10.1s-4.5 10.1 -10 10.1h-38.5c-5.5 0 -10 -4.5 -10 -10.1ZM180 189.7c0 -5.6 4.5 -10.1 10 -10.1s10 4.5 10 10.1 -4.5 10.1 -10 10.1 -10 -4.5 -10 -10.1ZM139.8 189.7c0 -5.6 4.5 -10.1 10 -10.1s10 4.5 10 10.1 -4.5 10.1 -10 10.1 -10 -4.5 -10 -10.1Z"/></svg>