<svg xmlns="http://www.w3.org/2000/svg" width="240" height="240" viewBox="0 0 240 240"><path d="M230 60H10c-5.5 0 -10 4.2 -10 9.4v101.2c0 5.2 4.5 9.4 10 9.4h220c5.5 0 10 -4.2 10 -9.4V69.4c0 -5.2 -4.5 -9.4 -10 -9.4ZM220 161.2H20V78.8h200v82.4ZM40 120c0 -5.2 4.5 -9.4 10 -9.4s10 4.2 10 9.4 -4.5 9.4 -10 9.4 -10 -4.2 -10 -9.4ZM70 120c0 -5.2 4.5 -9.4 10 -9.4s10 4.2 10 9.4 -4.5 9.4 -10 9.4 -10 -4.2 -10 -9.4ZM120 148.2h70c5.5 0 10 -4.2 10 -9.4v-37.7c0 -5.2 -4.5 -9.4 -10 -9.4h-70c-5.5 0 -10 4.2 -10 9.4v37.7c0 5.2 4.5 9.4 10 9.4ZM130 110.6h50v18.9h-50v-18.9Z"/></svg>