<svg xmlns="http://www.w3.org/2000/svg" width="240" height="240" viewBox="0 0 240 240"><path d="M40 60c0 -5.5 4.5 -10 10 -10h40c5.5 0 10 4.5 10 10s-4.5 10 -10 10h-40c-5.5 0 -10 -4.5 -10 -10ZM190 70c5.5 0 10 -4.5 10 -10s-4.5 -10 -10 -10 -10 4.5 -10 10 4.5 10 10 10ZM50 190h40c5.5 0 10 -4.5 10 -10s-4.5 -10 -10 -10h-40c-5.5 0 -10 4.5 -10 10s4.5 10 10 10ZM240 140v80c0 5.5 -4.5 10 -10 10H10c-5.5 0 -10 -4.5 -10 -10v-80c0 -5.5 4.5 -10 10 -10h220c5.5 0 10 4.5 10 10ZM220 150H20v60h200v-60ZM240 20v80c0 5.5 -4.5 10 -10 10H10c-5.5 0 -10 -4.5 -10 -10V20c0 -5.5 4.5 -10 10 -10h220c5.5 0 10 4.5 10 10ZM220 30H20v60h200V30ZM190 190c5.5 0 10 -4.5 10 -10s-4.5 -10 -10 -10 -10 4.5 -10 10 4.5 10 10 10Z"/></svg>