<svg xmlns="http://www.w3.org/2000/svg" width="240" height="240" viewBox="0 0 240 240"><path d="M140 190c0 -5.5 4.5 -10 10 -10h40c5.5 0 10 4.5 10 10s-4.5 10 -10 10h-40c-5.5 0 -10 -4.5 -10 -10ZM50 200c5.5 0 10 -4.5 10 -10s-4.5 -10 -10 -10 -10 4.5 -10 10 4.5 10 10 10ZM95.1 70c1.1 -24.8 3.7 -36.5 18.8 -54.5v-9h-44.2v12.4h28.5c-12.4 16.8 -16.7 30 -17.9 51.1h14.8ZM239.8 148.1c0.2 0.7 0.2 1.3 0.2 2v79.9c0 5.5 -4.5 10 -10 10H10c-5.5 0 -10 -4.5 -10 -10v-79.9c0 -0.7 0.1 -1.4 0.2 -2l10.7 -54c1.1 -5.5 6.3 -9.1 11.8 -7.9 5.5 1.1 9 6.4 7.9 11.8l-8.4 42.1h195.6l-8.4 -42c-1.1 -5.5 2.4 -10.7 7.8 -11.8 5.4 -1.2 10.7 2.4 11.8 7.8l10.8 54ZM220 160.1H20v59.9h200v-59.9ZM122.6 0v70h14.5v-12.4l6.1 -6.9 11.2 19.3h15.9l-18.5 -29 17.2 -20.6h-16.1l-15.4 19.5h-0.4V0h-14.5Z"/></svg>