<svg xmlns="http://www.w3.org/2000/svg" width="240" height="240" viewBox="0 0 240 240"><path d="M113.9 130.2c0 -5.5 4.5 -10 10 -10s10 4.5 10 10 -4.5 10 -10 10 -10 -4.5 -10 -10ZM153.9 200c5.5 0 10 -4.5 10 -10s-4.5 -10 -10 -10 -10 4.5 -10 10 4.5 10 10 10ZM123.9 110.3c5.5 0 10 -4.5 10 -10s-4.5 -10 -10 -10 -10 4.5 -10 10 4.5 10 10 10ZM153.9 140.2c5.5 0 10 -4.5 10 -10s-4.5 -10 -10 -10 -10 4.5 -10 10 4.5 10 10 10ZM123.9 170.1c5.5 0 10 -4.5 10 -10s-4.5 -10 -10 -10 -10 4.5 -10 10 4.5 10 10 10ZM153.9 170.1c5.5 0 10 -4.5 10 -10s-4.5 -10 -10 -10 -10 4.5 -10 10 4.5 10 10 10ZM123.9 200c5.5 0 10 -4.5 10 -10s-4.5 -10 -10 -10 -10 4.5 -10 10 4.5 10 10 10ZM193.9 240H50c-5.5 0 -10 -4.5 -10 -10V60.3c0 -1.3 0.2 -2.5 0.7 -3.7L60.7 6.3c1.5 -3.8 5.2 -6.3 9.3 -6.3h103.9c4.1 0 7.8 2.5 9.3 6.3l20 50.3c0.5 1.2 0.7 2.4 0.7 3.7v169.7c0 5.5 -4.5 10 -10 10ZM64.7 50.3h114.4l-12.1 -30.3H76.8l-12.1 30.3ZM183.9 70.3H60v149.7h123.9V70.3ZM153.9 110.3c5.5 0 10 -4.5 10 -10s-4.5 -10 -10 -10 -10 4.5 -10 10 4.5 10 10 10Z"/></svg>