<svg xmlns="http://www.w3.org/2000/svg" width="240" height="240" viewBox="0 0 240 240"><path d="M229 94.1c-1.1 -5.4 -6.4 -9 -11.8 -7.8 -5.4 1.1 -8.9 6.3 -7.8 11.8l8.4 42H22.2l8.4 -42.1c1.1 -5.4 -2.4 -10.7 -7.9 -11.8 -5.5 -1.2 -10.7 2.4 -11.8 7.9L0.2 148.1c-0.1 0.6 -0.2 1.3 -0.2 2v79.9c0 5.5 4.5 10 10 10h220c5.5 0 10 -4.5 10 -10v-79.9c0 -0.7 0 -1.3 -0.2 -2l-10.8 -54ZM220 220H20v-59.9h200v59.9ZM88.7 0v52.8h25.8v12.4h-40.5V0h14.7ZM151.3 47c0 -5.6 -3.3 -9.1 -17.1 -9.1v-10.4c11.4 0 15 -3.4 15 -8.5 0 -4.4 -2.8 -7 -7.8 -7 -4.5 0 -7.9 2.1 -11.9 5.6l-7.4 -9c5.8 -5 12.2 -8.1 20 -8.1 13.1 0 21.9 6.3 21.9 17.4 0 6.6 -3.8 11.2 -10.6 14.1v0.4c7.3 2.1 12.6 7.3 12.6 15.5 0 11.8 -10.8 18.5 -23.6 18.5 -10.3 0 -17.5 -3.6 -22.1 -9l6.8 -9.3c3.8 3.7 8.5 6.4 13.9 6.4 6.2 0 10.3 -2.7 10.3 -7.5ZM40 190c0 -5.5 4.5 -10 10 -10s10 4.5 10 10 -4.5 10 -10 10 -10 -4.5 -10 -10ZM140 190c0 -5.5 4.5 -10 10 -10h40c5.5 0 10 4.5 10 10s-4.5 10 -10 10h-40c-5.5 0 -10 -4.5 -10 -10Z"/></svg>