<svg xmlns="http://www.w3.org/2000/svg" width="240" height="240" viewBox="0 0 240 240"><path d="M107 221.3c5.8 5.8 13.5 8.8 21.2 8.8s15.4 -2.9 21.2 -8.8l71.7 -71.7c11.7 -11.7 11.7 -30.7 0 -42.4h0.1S127.1 12.9 127.1 12.9c-1.9 -1.9 -4.4 -2.9 -7.1 -2.9H20c-5.5 0 -10 4.5 -10 10v100c0 2.7 1.1 5.2 2.9 7.1l94.1 94.2ZM30 30h85.9l91.2 91.2c3.9 3.9 3.9 10.3 0 14.2l-71.7 71.7c-3.9 3.9 -10.2 3.9 -14.1 0L30 115.9V30ZM80 50c-16.5 0 -30 13.5 -30 30s13.5 30 30 30 30 -13.5 30 -30 -13.5 -30 -30 -30ZM80 90c-5.5 0 -10 -4.5 -10 -10s4.5 -10 10 -10 10 4.5 10 10 -4.5 10 -10 10Z"/></svg>