<svg xmlns="http://www.w3.org/2000/svg" width="240" height="240" viewBox="0 0 240 240"><path d="M10 240h174.3c9.5 0 18.8 -3.4 26 -9.7 7.2 -6.2 12 -14.8 13.5 -24.3h0s10.8 -70 10.8 -70h0c0.9 -5.7 0.5 -11.5 -1.1 -17.1s-4.3 -10.7 -8.1 -15.1c-3.8 -4.4 -8.4 -7.9 -13.7 -10.3 -5.2 -2.4 -10.9 -3.7 -16.7 -3.7h-65v-50c0 -10.6 -4.2 -20.8 -11.7 -28.3 -7.5 -7.5 -17.7 -11.7 -28.3 -11.7 -4.5 0 -8.5 3 -9.6 7.4l-28 102.6H10c-5.5 0 -10 4.5 -10 10v110c0 5.5 4.5 10 10 10ZM70 121.3l27.3 -100c2.6 1 4.9 2.5 6.9 4.5 3.8 3.8 5.9 8.8 5.9 14.1v60c0 5.5 4.5 10 10 10h75c2.9 0 5.7 0.6 8.4 1.8 2.6 1.2 4.9 3 6.8 5.1 1.9 2.2 3.3 4.8 4.1 7.5 0.8 2.8 1 5.7 0.5 8.5h0s-10.8 70 -10.8 70h0c-0.7 4.7 -3.1 9 -6.7 12.1 -3.6 3.1 -8.2 4.8 -13 4.8H70v-98.7ZM20 130h30v90h-30v-90Z"/></svg>