<svg xmlns="http://www.w3.org/2000/svg" width="240" height="240" viewBox="0 0 240 240"><path d="M9.6 136c3.8 4.4 8.4 7.9 13.7 10.3 5.2 2.4 10.9 3.7 16.7 3.7h65v50c0 10.6 4.2 20.8 11.7 28.3 7.5 7.5 17.7 11.7 28.3 11.7 4.5 0 8.5 -3 9.6 -7.4l28 -102.6h42.4c5.5 0 10 -4.5 10 -10V10c0 -5.5 -4.5 -10 -10 -10H50.7c-9.5 0 -18.8 3.4 -26 9.7 -7.2 6.2 -12 14.8 -13.5 24.3h0S0.5 103.9 0.5 103.9H0.5c-0.9 5.7 -0.5 11.5 1.1 17.1 1.6 5.5 4.3 10.7 8.1 15.1ZM185 20h30v90h-30V20ZM20.2 107h0s10.8 -70 10.8 -70h0c0.7 -4.7 3.1 -9 6.7 -12.1 3.6 -3.1 8.2 -4.8 13 -4.8h114.2v98.7l-27.3 100c-2.6 -1 -4.9 -2.5 -6.9 -4.5 -3.8 -3.8 -5.9 -8.8 -5.9 -14.1v-60c0 -5.5 -4.5 -10 -10 -10H40c-2.9 0 -5.7 -0.6 -8.4 -1.8 -2.6 -1.2 -4.9 -3 -6.8 -5.1 -1.9 -2.2 -3.3 -4.8 -4.1 -7.5 -0.8 -2.8 -1 -5.7 -0.5 -8.5Z"/></svg>