<svg xmlns="http://www.w3.org/2000/svg" width="240" height="240" viewBox="0 0 240 240"><path d="M10 240h40c5.5 0 10 -4.5 10 -10v-40c0 -5.5 -4.5 -10 -10 -10H10c-5.5 0 -10 4.5 -10 10v40c0 5.5 4.5 10 10 10ZM20 200h20v20h-20v-20ZM190 180c-5.5 0 -10 4.5 -10 10v40c0 5.5 4.5 10 10 10h40c5.5 0 10 -4.5 10 -10v-40c0 -5.5 -4.5 -10 -10 -10h-40ZM220 220h-20v-20h20v20ZM140 60c5.5 0 10 -4.5 10 -10V10c0 -5.5 -4.5 -10 -10 -10h-40c-5.5 0 -10 4.5 -10 10v40c0 5.5 4.5 10 10 10h40ZM110 20h20v20h-20v-20ZM30 110h80v-20c0 -5.5 4.5 -10 10 -10s10 4.5 10 10v20h80c5.5 0 10 4.5 10 10v30c0 5.5 -4.5 10 -10 10s-10 -4.5 -10 -10v-20h-70v20c0 5.5 -4.5 10 -10 10s-10 -4.5 -10 -10v-20h-70v20c0 5.5 -4.5 10 -10 10s-10 -4.5 -10 -10v-30c0 -5.5 4.5 -10 10 -10ZM100 180c-5.5 0 -10 4.5 -10 10v40c0 5.5 4.5 10 10 10h40c5.5 0 10 -4.5 10 -10v-40c0 -5.5 -4.5 -10 -10 -10h-40ZM130 220h-20v-20h20v20Z"/></svg>