<svg xmlns="http://www.w3.org/2000/svg" width="240" height="240" viewBox="0 0 240 240"><path d="M10 240h140c5.5 0 10 -4.5 10 -10 0 -44.2 -35.8 -80 -80 -80S0 185.8 0 230c0 5.5 4.5 10 10 10ZM80 170c29.7 0 54.4 21.6 59.2 50H20.8c4.8 -28.4 29.4 -50 59.2 -50ZM160 80c22.1 0 40 -17.9 40 -40s-17.9 -40 -40 -40 -40 17.9 -40 40 17.9 40 40 40ZM160 20c11 0 20 9 20 20s-9 20 -20 20 -20 -9 -20 -20 9 -20 20 -20ZM40 100c0 22.1 17.9 40 40 40s40 -17.9 40 -40 -17.9 -40 -40 -40 -40 17.9 -40 40ZM100 100c0 11 -9 20 -20 20s-20 -9 -20 -20 9 -20 20 -20 20 9 20 20ZM170 160h49.2c-4.8 -28.4 -29.4 -50 -59.2 -50 -2.9 0 -5.8 0.2 -8.6 0.6 -5.5 0.8 -10.5 -3 -11.3 -8.5 -0.8 -5.5 3 -10.5 8.5 -11.3 3.7 -0.5 7.5 -0.8 11.4 -0.8 44.2 0 80 35.8 80 80 0 5.5 -4.5 10 -10 10h-60c-5.5 0 -10 -4.5 -10 -10s4.5 -10 10 -10Z"/></svg>