<svg xmlns="http://www.w3.org/2000/svg" width="240" height="240" viewBox="0 0 240 240"><path d="M30 230h180c8 0 15.6 -3.2 21.2 -8.8 5.6 -5.6 8.8 -13.3 8.8 -21.2V40c0 -8 -3.2 -15.6 -8.8 -21.2 -5.6 -5.6 -13.3 -8.8 -21.2 -8.8H30c-8 0 -15.6 3.2 -21.2 8.8 -5.6 5.6 -8.8 13.3 -8.8 21.2v160c0 8 3.2 15.6 8.8 21.2s13.3 8.8 21.2 8.8ZM20 40c0 -2.7 1.1 -5.2 2.9 -7.1s4.4 -2.9 7.1 -2.9h180c2.7 0 5.2 1.1 7.1 2.9 1.9 1.9 2.9 4.4 2.9 7.1v160c0 2.7 -1.1 5.2 -2.9 7.1s-4.4 2.9 -7.1 2.9H30c-2.7 0 -5.2 -1.1 -7.1 -2.9 -1.9 -1.9 -2.9 -4.4 -2.9 -7.1V40ZM95.3 168.8c3.3 1.7 7.2 1.5 10.3 -0.5l60 -40c2.8 -1.9 4.5 -5 4.5 -8.3s-1.7 -6.5 -4.5 -8.3l-60 -40c-3.1 -2 -7 -2.2 -10.3 -0.5s-5.3 5.1 -5.3 8.8v80c0 3.7 2 7.1 5.3 8.8ZM110 98.7l32 21.3 -32 21.3v-42.6Z"/></svg>