<svg xmlns="http://www.w3.org/2000/svg" width="240" height="240" viewBox="0 0 240 240"><path d="M5.6 137.6c8.2 11.6 22.4 29.4 41.6 44.5 19.1 15.1 43.9 27.9 72.8 27.9s53.7 -12.8 72.8 -27.9c19.2 -15.1 33.4 -33 41.6 -44.5h0c3.6 -5.2 5.5 -11.3 5.5 -17.6s-1.9 -12.4 -5.5 -17.6h0c-8.2 -11.6 -22.4 -29.5 -41.6 -44.6 -19.1 -15.1 -43.9 -27.9 -72.8 -27.9s-53.7 12.8 -72.8 27.9c-19.2 15.1 -33.4 33 -41.6 44.5h0c-3.6 5.2 -5.5 11.3 -5.5 17.6s1.9 12.4 5.5 17.6h0ZM21.9 113.9c7.6 -10.7 20.5 -26.9 37.6 -40.3 17.1 -13.5 37.6 -23.6 60.5 -23.6s43.4 10.1 60.5 23.6c17.1 13.4 30 29.6 37.6 40.3 1.2 1.8 1.9 3.9 1.9 6.1s-0.7 4.3 -1.9 6.1c-7.6 10.7 -20.5 26.9 -37.6 40.3 -17.1 13.5 -37.6 23.6 -60.5 23.6s-43.4 -10.1 -60.5 -23.6c-17.1 -13.4 -30 -29.6 -37.6 -40.3 -1.2 -1.8 -1.9 -3.9 -1.9 -6.1s0.7 -4.3 1.9 -6.1ZM120 170c27.6 0 50 -22.4 50 -50s-22.4 -50 -50 -50 -50 22.4 -50 50 22.4 50 50 50ZM120 90c16.6 0 30 13.4 30 30s-13.4 30 -30 30 -30 -13.4 -30 -30 13.4 -30 30 -30Z"/></svg>