<svg xmlns="http://www.w3.org/2000/svg" width="240" height="240" viewBox="0 0 240 240"><path d="M120 40C66.3 40 26.3 78 7.1 100.6c-9.5 11.2 -9.5 27.5 0 38.8 19.1 22.6 59.2 60.6 112.9 60.6s93.8 -38 112.9 -60.6c9.5 -11.2 9.5 -27.5 0 -38.8 -19.1 -22.6 -59.2 -60.6 -112.9 -60.6ZM120 60c22.1 0 40 17.9 40 40s-17.9 40 -40 40 -40 -17.9 -40 -40 17.9 -40 40 -40ZM217.6 126.5c-16.9 20 -52 53.5 -97.6 53.5S39.3 146.5 22.4 126.5c-3.2 -3.8 -3.2 -9.2 0 -13 9.2 -10.8 23.7 -25.6 42.4 -36.9 -3.1 7.2 -4.8 15.1 -4.8 23.4 0 33.1 26.9 60 60 60s60 -26.9 60 -60c0 -8.3 -1.7 -16.2 -4.8 -23.4 18.7 11.3 33.2 26.1 42.4 36.9 3.2 3.8 3.2 9.2 0 13Z"/></svg>