<svg xmlns="http://www.w3.org/2000/svg" width="240" height="240" viewBox="0 0 240 240"><path d="M30 240c16.6 0 30 -13.4 30 -30s-13.4 -30 -30 -30 -30 13.4 -30 30 13.4 30 30 30ZM30 200c5.5 0 10 4.5 10 10s-4.5 10 -10 10 -10 -4.5 -10 -10 4.5 -10 10 -10Z"/><path d="M150 210c0 -16.6 -13.4 -30 -30 -30s-30 13.4 -30 30 13.4 30 30 30 30 -13.4 30 -30ZM120 220c-5.5 0 -10 -4.5 -10 -10s4.5 -10 10 -10 10 4.5 10 10 -4.5 10 -10 10Z"/><path d="M30 160c5.5 0 10 -4.5 10 -10v-20h70v20c0 5.5 4.5 10 10 10s10 -4.5 10 -10v-20h70v20c0 5.5 4.5 10 10 10s10 -4.5 10 -10v-30c0 -5.5 -4.5 -10 -10 -10h-80v-20c0 -5.5 -4.5 -10 -10 -10s-10 4.5 -10 10v20H30c-5.5 0 -10 4.5 -10 10v30c0 5.5 4.5 10 10 10Z"/><path d="M120 60c16.6 0 30 -13.4 30 -30s-13.4 -30 -30 -30 -30 13.4 -30 30 13.4 30 30 30ZM120 20c5.5 0 10 4.5 10 10s-4.5 10 -10 10 -10 -4.5 -10 -10 4.5 -10 10 -10Z"/><path d="M210 180c-16.6 0 -30 13.4 -30 30s13.4 30 30 30 30 -13.4 30 -30 -13.4 -30 -30 -30ZM210 220c-5.5 0 -10 -4.5 -10 -10s4.5 -10 10 -10 10 4.5 10 10 -4.5 10 -10 10Z"/></svg>