<svg xmlns="http://www.w3.org/2000/svg" width="240" height="240" viewBox="0 0 240 240"><path d="M219.4 48.6c0 -3.9 -3.3 -5.2 -8.4 -7.4l-1 -0.4 -8.5 -3.6c-6.7 -2.7 -13.1 -8.3 -13.1 -17.8 0 -10.8 9.6 -19.4 23.2 -19.4 7.8 0 15.4 3 21 8.2l-7.8 9.6c-4.3 -3.2 -8.9 -5.1 -13.2 -5.1 -5.1 0 -8.3 2.2 -8.3 5.9s3.6 5.2 8.6 7.2l0.7 0.3 0.6 0.3 8.4 3.4c7.9 3.2 12.9 8.5 12.9 17.7 0 10.8 -9 20.2 -24.6 20.2 -8.8 0 -17.5 -3 -24.1 -9.5l7.8 -9.6c4.6 4.1 11 6.4 16.7 6.4 6.1 0 9.1 -2.4 9.1 -6.3ZM50 200c5.5 0 10 -4.5 10 -10s-4.5 -10 -10 -10 -10 4.5 -10 10 4.5 10 10 10ZM177.5 54h-25.8V1.2h-14.7v65.1h40.5v-12.4ZM39.3 31.6c-1 3.7 -1.8 7.2 -2.7 10.7h0c-0.8 3.3 -1.6 6.7 -2.5 10.1h-0.4c-1.3 -4.8 -2.4 -9.3 -3.6 -13.9 -0.6 -2.3 -1.1 -4.6 -1.7 -7L21 1.2H5.4l19.3 65.1h17.7L62.4 1.2h-15l-8.1 30.4ZM123.7 22.2c0 15.8 -11.7 22.1 -25.5 22.1h-8.1v22.1h-14.7V1.2h22.4c14.3 0 25.9 5.2 25.9 21ZM109.3 22.2c0 -6.8 -4.4 -9.3 -12.4 -9.3h-6.8v19.7h7.2c8.1 0 12 -3.6 12 -10.4ZM150 200h40c5.5 0 10 -4.5 10 -10s-4.5 -10 -10 -10h-40c-5.5 0 -10 4.5 -10 10s4.5 10 10 10ZM239.8 148.1c0.2 0.7 0.2 1.3 0.2 2v79.9c0 5.5 -4.5 10 -10 10H10c-5.5 0 -10 -4.5 -10 -10v-79.9c0 -0.7 0.1 -1.4 0.2 -2l10.7 -54c1.1 -5.5 6.3 -9.1 11.8 -7.9 5.5 1.1 9 6.4 7.9 11.8l-8.4 42.1h195.6l-8.4 -42c-1.1 -5.5 2.4 -10.7 7.8 -11.8 5.4 -1.2 10.7 2.4 11.8 7.8l10.8 54ZM220 160.1H20v59.9h200v-59.9Z"/></svg>