<svg xmlns="http://www.w3.org/2000/svg" width="240" height="240" viewBox="0 0 240 240"><path d="M169.6 110.1h35.2c5.5 0 10 4.5 10 10s-4.5 10 -10 10h-35.2l10.2 10.2c3.9 3.9 3.9 10.2 0 14.1 -2 2 -4.5 2.9 -7.1 2.9h0.1c-2.6 0.1 -5.1 -0.9 -7.1 -2.8l-27.3 -27.3c-3.3 -3.3 -3.8 -8.2 -1.6 -12.1 0.5 -0.9 1.2 -1.8 2 -2.5l26.8 -26.8c3.9 -3.9 10.2 -3.9 14.1 0 3.9 3.9 3.9 10.2 0 14.1l-10.2 10.2ZM140 160.6l-10.1 10.1v-35.1c0 -5.5 -4.5 -10 -10 -10s-10 4.5 -10 10v35.3l-10.3 -10.3c-3.9 -3.9 -10.2 -3.9 -14.1 0 -3.9 3.9 -3.9 10.2 0 14.1l27.3 27.3c1.8 1.7 4.1 2.7 6.4 2.9 0.2 0 0.4 0 0.6 0h0c3.2 0 6.1 -1.6 7.9 -3.9l26.3 -26.3c3.9 -3.9 3.9 -10.2 0 -14.1 -3.9 -3.9 -10.2 -3.9 -14.1 0ZM204.9 35.2c22.7 22.7 35.1 52.8 35.1 84.9 0 66.1 -53.8 119.9 -120 119.9 -32.1 0 -62.2 -12.5 -84.9 -35.2S0 152 0 119.9C0 53.8 53.8 0 120 0c32.1 0 62.3 12.5 84.9 35.2ZM220 120.1c0 -26.7 -10.4 -51.8 -29.3 -70.7 -18.9 -18.9 -44 -29.3 -70.7 -29.3C64.8 20.1 20 64.9 20 120c0 26.7 10.4 51.8 29.3 70.7 18.9 18.9 44 29.3 70.7 29.3 55.2 0 100 -44.8 100 -99.9ZM99.7 79.6l10.2 -10.2v35.1c0 5.5 4.5 10 10 10s10 -4.5 10 -10v-35.1l10.2 10.2c2 1.9 4.5 2.9 7.1 2.9s5.1 -0.9 7.1 -2.9c3.9 -3.9 3.9 -10.2 0 -14.1l-26.9 -26.9c-1.8 -2.1 -4.5 -3.4 -7.5 -3.4 -3.2 0 -6.1 1.6 -7.9 3.9l-26.4 26.4c-3.9 3.9 -3.9 10.2 0 14.1 3.9 3.9 10.2 3.9 14.1 0ZM103.4 124.5c0.6 -1.3 1 -2.8 1 -4.4 0 -3.4 -1.7 -6.4 -4.3 -8.2l-26 -26c-3.9 -3.9 -10.2 -3.9 -14.1 0 -3.9 3.9 -3.9 10.2 0 14.1l10.1 10.1h-35c-5.5 0 -10 4.5 -10 10s4.5 10 10 10h35.2l-10.3 10.3c-3.9 3.9 -3.9 10.2 0 14.1 2 1.9 4.5 2.9 7.1 2.9h-0.1c2.6 0.1 5.1 -0.8 7.1 -2.8l27.3 -27.3c0.8 -0.8 1.5 -1.8 2 -2.8Z"/></svg>