<svg xmlns="http://www.w3.org/2000/svg" width="240" height="240" viewBox="0 0 240 240"><path d="M230 198.9h-80.7c-3.1 -9 -10.3 -16.2 -19.3 -19.2v-9.4c41.9 -4.9 74.6 -40.2 75.4 -83.2 0 -0.5 0.1 -1 0.1 -1.5s0 -1 -0.1 -1.5c-0.7 -46.5 -38.8 -84 -85.4 -84S34.6 38.4 34.6 85.5c0 43.7 33 79.9 75.4 84.8v9.3c-9 3.1 -16.2 10.2 -19.3 19.2H10c-5.5 0 -10 4.5 -10 10s4.5 10 10 10h80.6c4.1 12.3 15.7 21.1 29.4 21.1s25.2 -8.8 29.4 -21.1h80.6c5.5 0 10 -4.5 10 -10s-4.5 -10 -10 -10ZM146.2 145.3c7.2 -13.5 11.5 -30.4 12.6 -49.8h25.8c-3.5 22.3 -18.3 41 -38.4 49.8ZM184.6 75.5h-25.8c-1.1 -19.5 -5.5 -36.5 -12.7 -50.1 20.2 8.8 35.1 27.6 38.6 50.1ZM120 23.1c10.6 10.9 17.4 29.6 18.9 52.4h-37.8c1.5 -22.9 8.3 -41.6 18.9 -52.4ZM55.4 95.5h25.8c1.1 19.4 5.5 36.4 12.7 49.8 -20.1 -8.8 -35 -27.5 -38.5 -49.8ZM81.2 75.5h-25.8c3.4 -22.5 18.3 -41.2 38.6 -50.1 -7.2 13.5 -11.6 30.6 -12.7 50.1ZM101.1 95.5h37.8c-1.5 22.9 -8.3 41.6 -18.9 52.4 -10.6 -10.9 -17.4 -29.6 -18.9 -52.4ZM131 208.9h0c0 6.1 -5 11 -11 11s-11 -5 -11 -11 4.9 -11 11 -11 11 4.9 11 10.9h0Z"/></svg>