<svg xmlns="http://www.w3.org/2000/svg" width="240" height="240" viewBox="0 0 240 240"><path d="M199.6 78.7h0s-0.9 0 -1.3 0c-5.2 -10.1 -12.3 -19.1 -20.7 -26.6 0.7 -2.2 1 -4.6 1 -7.1 0 -13.8 -11.2 -25 -25 -25 -8.3 0 -15.7 4.1 -20.2 10.3 -5.6 -1.1 -11.4 -1.6 -17.3 -1.6 -18.4 0 -35.6 5.4 -50 14.7 -4.6 -3 -10.2 -4.7 -16.1 -4.7 -16.6 0 -30 13.4 -30 30 0 8.4 3.4 15.9 9 21.4 -3.5 9.7 -5.4 20.2 -5.4 31.1 0 33.8 18.1 63.3 45.1 79.5 0 0.8 -0.1 1.7 -0.1 2.5 0 13.8 11.2 25 25 25 10.1 0 18.7 -5.9 22.7 -14.5 47.2 0 86.1 -35.5 91.6 -81.3 11.1 -3.5 19.2 -13.9 19.2 -26.2 0 -15.2 -12.3 -27.5 -27.5 -27.5ZM153.6 35c5.5 0 10 4.5 10 10 0 5.2 -4 9.5 -9 10 -0.3 0 -0.7 0 -1 0 -4.5 0 -8.3 -3 -9.6 -7.1h0c-0.3 -0.9 -0.4 -1.9 -0.4 -2.9 0 -5.5 4.5 -10 10 -10ZM151.9 69.9c0.5 0 1 0 1.6 0 0 0 0.1 0 0.2 0 5.8 0 11.2 -2 15.5 -5.4 5.9 5.5 10.9 11.9 14.8 19 -7.1 5 -11.8 13.2 -11.8 22.6 0 0.4 0 0.8 0 1.2l-25.5 8c-2.2 -3.5 -5 -6.5 -8.3 -8.8l13.6 -36.6ZM50 53.7c8.3 0 15 6.7 15 15s-6.7 15 -15 15 -15 -6.7 -15 -15 6.7 -15 15 -15ZM93.6 213.2c-5.5 0 -10 -4.5 -10 -10 0 -3.9 2.3 -7.3 5.6 -9h0c1 -0.5 2.1 -0.8 3.3 -1 0.3 0 0.6 0 1 0h0.2c5.5 0 10 4.5 10 10s-4.5 10 -10 10ZM95.2 178.3c-0.5 0 -1.1 0 -1.6 0 -7.5 0 -14.3 3.3 -18.8 8.6 -21.7 -13.7 -36.2 -38 -36.2 -65.6 0 -8.2 1.3 -16.1 3.6 -23.5 2.5 0.7 5.1 1 7.8 1 6 0 11.6 -1.8 16.3 -4.8l27.9 24c-2 4 -3.1 8.5 -3.1 13.3 0 10.1 5 19.1 12.7 24.5l-8.6 22.5ZM76.5 82.8c2.3 -4.2 3.5 -9 3.5 -14.1s-1.3 -9.9 -3.5 -14.1c11.6 -6.9 25.1 -10.9 39.6 -10.9 4.3 0 8.4 0.3 12.5 1 0 0 0 0.2 0 0.3 0 7.9 3.6 14.9 9.3 19.5l-13.7 36.9c-1 -0.1 -2 -0.2 -3.1 -0.2 -6.4 0 -12.3 2 -17.1 5.4l-27.5 -23.7ZM118.2 198.7c-1.1 -6 -4.4 -11.3 -9 -15l8.6 -22.7c1.1 0.1 2.2 0.2 3.3 0.2 16.6 0 30 -13.4 30 -30 0 -0.5 0 -1 0 -1.5l25.8 -8.1c3.7 5.5 9.3 9.5 15.9 11.2 -5.5 36.6 -36.6 64.8 -74.5 65.8ZM199.6 118.7c-2.5 0 -4.9 -0.7 -6.8 -2h0c-3.4 -2.2 -5.7 -6.1 -5.7 -10.5 0 -1.3 0.2 -2.5 0.5 -3.7h0c1.6 -5.1 6.3 -8.8 12 -8.8 6.9 0 12.5 5.6 12.5 12.5s-5.6 12.5 -12.5 12.5Z"/></svg>