<svg xmlns="http://www.w3.org/2000/svg" width="240" height="240" viewBox="0 0 240 240"><path d="M106.2 213.5c-0.7 1.3 -2 2 -3.3 2s-2.6 -0.7 -3.3 -1.3c-2 -2 -2 -4.6 -0.7 -7.2 10.5 -11.8 15.1 -28.2 11.8 -44 -0.7 -2.6 1.3 -5.3 3.9 -5.9 2.6 -0.7 5.3 1.3 5.9 3.9 3.9 19 -1.3 38.1 -14.4 52.5ZM135.7 124.9c-2.6 -1.3 -5.3 -0.7 -6.6 2 -1.3 2.6 -0.7 5.3 2 6.6 9.2 4.6 15.1 12.5 17.1 22.3 2.6 13.8 2 27.6 -1.3 40.7 -0.7 2.6 0.7 5.3 3.3 5.9h1.3c2.6 0 4.6 -1.3 4.6 -2.6 3.9 -14.4 4.6 -30.2 1.3 -45.3 -2.6 -13.1 -10.5 -23.6 -21.7 -29.5ZM141.6 178.1c-2.6 0 -4.6 2 -5.3 4.6 -1.3 7.9 -3.3 15.8 -7.2 23.6 -0.7 2.6 0 5.3 2.6 6.6 0.7 0.7 1.3 0.7 2 0.7 2 0 3.9 -0.7 4.6 -3.3 3.9 -8.5 6.6 -17.7 7.9 -26.9 0 -2.6 -2 -4.6 -4.6 -5.3ZM132.4 159c-2 -9.8 -11.2 -15.8 -20.4 -13.8 -9.8 2 -15.8 11.2 -13.8 20.4v1.3c0.7 2 2.6 3.3 4.6 3.3 3.3 0 5.3 -2.6 5.3 -5.3v-2c-0.7 -3.9 2 -7.9 5.9 -8.5 4.6 -0.7 8.5 2 9.2 5.9 3.3 17.1 0 34.8 -9.8 49.2 -1.3 2 -0.7 5.3 1.3 6.6 0.7 0.7 2 0.7 2.6 0.7 2 0 3.3 -0.7 3.9 -1.3 11.2 -17.1 15.1 -36.8 11.2 -56.5ZM146.2 115.7c-12.5 -7.9 -26.9 -10.5 -41.4 -7.9 -7.2 1.3 -14.4 4.6 -21 9.2 -2.6 1.3 -2.6 4.6 -1.3 6.6 0 0 0 0.1 0 0.2 -2 -1.5 -4.9 -1.3 -6.7 0.5 -12.5 13.1 -17.1 30.9 -13.8 48.6l0.7 2c0 2 2 3.9 4.6 3.9 0 0 0.7 0 1.3 0.7 2.6 -0.7 4.6 -3.3 3.9 -5.9l-0.7 -2c-3.3 -14.4 1.3 -29.5 11.2 -40 1.7 -1.7 1.9 -4.4 0.7 -6.3 1.6 1 3.8 0.8 5.2 -0.2 5.3 -3.9 11.2 -6.6 17.7 -7.9 11.8 -2.6 24.3 0 34.1 6.6 10.5 6.6 17.1 17.1 19.7 28.9 0.7 3.3 0.7 6.6 0.7 9.8 0 2.6 2.6 5.3 5.3 5.3s4.6 -2 4.6 -5.3c0 -3.9 -0.7 -7.9 -1.3 -11.8 -3.3 -14.4 -11.2 -26.9 -23.6 -34.8ZM104.8 171.5c-2.6 0 -5.3 2 -5.3 4.6 -0.7 9.8 -5.3 19 -12.5 25.6 -2 2 -2 5.3 0 7.2 0.7 0.7 2 1.3 3.3 1.3s2.6 -0.7 3.9 -1.3c8.5 -8.5 14.4 -19.7 15.1 -32.2 0 -2.6 -2 -5.3 -4.6 -5.3ZM182.3 76.3v15.1h9.2c5.9 0 10.5 4.6 10.5 9.8v118.2c0 5.9 -4.6 10.5 -10.5 10.5h-67c0 0.7 -0.7 0.7 -0.7 0.7H40.5c-5.9 0 -10.5 -5.3 -10.5 -10.5v-118.2c0 -5.3 4.6 -9.8 10.5 -9.8h9.8v-15.1c0 -36.8 29.5 -67 66.3 -67s65.6 29.5 65.6 66.3ZM177.1 101.9c-2.6 0 -5.3 -2 -5.3 -5.3v-19.7c0 -30.9 -24.9 -56.5 -55.8 -56.5s-56.5 25.6 -56.5 56.5v19.7c0 2.6 -2 5.3 -5.3 5.3h-13.8v-0.7l-0.7 16.4v102.4c0 0.7 0.7 0.7 0.7 0.7h150.3l0.7 -0.7v-118.2h-14.4ZM96.3 166.2c-1.3 -5.3 0 -11.2 3.3 -15.8 3.3 -4.6 7.9 -7.2 13.1 -8.5 5.3 -1.3 10.5 -0.7 15.1 2.6 4.6 3.3 7.2 7.9 8.5 13.1l0.2 1.5c0.6 4 1.1 7.5 1.1 11.6 0 2.6 2.6 4.6 5.3 4.6s4.6 -2.6 4.6 -5.3c-0.3 -2.3 -0.7 -4.8 -1 -7.2 -0.3 -2.5 -0.7 -4.9 -1 -7.2 -1.3 -7.9 -5.9 -14.4 -12.5 -19 -7.2 -4.6 -15.1 -5.9 -23 -4.6 -7.9 1.3 -14.4 5.9 -19 12.5 -4.6 7.2 -5.9 15.1 -4.6 23 2 9.8 -1.3 19.7 -9.2 25.6 -2 2 -2.6 5.3 -0.7 7.2 1.3 1.3 2.6 2 3.9 2 0.7 0 2 0 3.3 -0.7 10.5 -8.5 15.1 -22.3 12.5 -35.5ZM69.4 92.1v-16.4c0 -12.5 5.3 -24.3 14.4 -32.8 9.2 -9.2 21.7 -13.8 34.8 -13.1 24.9 1.3 44.6 22.3 44.6 47.9v14.4c0 5.3 -3.9 9.2 -9.2 9.2h-75.5c-5.3 0 -9.2 -3.9 -9.2 -9.2ZM79.9 91.4h74.2v-13.8c0 -20.4 -15.8 -37.4 -35.4 -38.1 -10.5 -0.7 -19.7 3.3 -27.6 10.5 -7.2 7.2 -11.2 16.4 -11.2 26.9v14.4ZM84.5 168.2c-0.7 -2.6 -0.7 -4.6 -0.7 -7.2 0 -2.3 -1 -4 -2.7 -4.8 1.5 -0.4 2.7 -1.6 2.7 -3.1 3.3 -11.8 13.1 -20.4 24.9 -23 3.9 -0.7 7.9 -0.7 11.8 0 2.6 0.7 5.3 -1.3 5.9 -3.9 0.7 -2.6 -1.3 -5.3 -3.9 -5.9 -5.3 -1.3 -9.8 -1.3 -15.1 0 -15.1 3.3 -27.6 15.1 -32.2 30.2 -0.5 2.2 0.3 4.3 2 5.4 -2.5 0.6 -4 2.8 -4 5.1 0 2.6 0 5.9 0.7 8.5 1.3 5.3 -0.7 10.5 -4.6 13.8 -2 2 -2.6 5.3 -0.7 7.2 1.3 1.3 2.6 2 3.9 2 0.8 0 1.4 -0.3 2.1 -0.6 0.5 -0.2 1 -0.5 1.8 -0.7 6.6 -5.9 9.8 -14.4 7.9 -23Z"/></svg>