<svg xmlns="http://www.w3.org/2000/svg" width="240" height="240" viewBox="0 0 240 240"><path d="M17.5 125h10.3c3.6 43.7 38.5 78.6 82.2 82.2v10.3c0 4.1 3.4 7.5 7.5 7.5s7.5 -3.4 7.5 -7.5v-10.3c43.7 -3.6 78.6 -38.5 82.2 -82.2h10.3c4.1 0 7.5 -3.4 7.5 -7.5s-3.4 -7.5 -7.5 -7.5h-10.3c-3.6 -43.7 -38.5 -78.6 -82.2 -82.2v-10.3c0 -4.1 -3.4 -7.5 -7.5 -7.5s-7.5 3.4 -7.5 7.5v10.3c-43.7 3.6 -78.6 38.5 -82.2 82.2h-10.3c-4.1 0 -7.5 3.4 -7.5 7.5s3.4 7.5 7.5 7.5ZM125 192.1v-14.6s0 -0.3 0 -0.5c27.2 -3.4 48.7 -24.9 52.1 -52.1 0.2 0 0.3 0 0.5 0h14.6c-3.5 35.4 -31.7 63.6 -67.1 67.1ZM125 57.5v-14.6c35.4 3.5 63.6 31.7 67.1 67.1h-14.6s-0.3 0 -0.5 0c-3.4 -27.2 -24.9 -48.7 -52.1 -52.1 0 -0.2 0 -0.3 0 -0.5ZM117.5 71.9c25.2 0 45.6 20.4 45.6 45.6s-20.4 45.6 -45.6 45.6 -45.6 -20.4 -45.6 -45.6 20.4 -45.6 45.6 -45.6ZM110 42.9v14.6s0 0.3 0 0.5c-27.2 3.4 -48.7 24.9 -52.1 52.1 -0.2 0 -0.3 0 -0.5 0h-14.6c3.5 -35.4 31.7 -63.6 67.1 -67.1ZM57.5 125s0.3 0 0.5 0c3.4 27.2 24.9 48.7 52.1 52.1 0 0.2 0 0.3 0 0.5v14.6c-35.4 -3.5 -63.6 -31.7 -67.1 -67.1h14.6ZM118.8 142.5c13.1 0 23.8 -10.6 23.8 -23.8s-10.6 -23.8 -23.8 -23.8 -23.8 10.6 -23.8 23.8 10.6 23.8 23.8 23.8ZM118.8 110c4.8 0 8.8 3.9 8.8 8.8s-3.9 8.8 -8.8 8.8 -8.8 -3.9 -8.8 -8.8 3.9 -8.8 8.8 -8.8Z"/></svg>