<svg xmlns="http://www.w3.org/2000/svg" width="240" height="240" viewBox="0 0 240 240"><path d="M88.3 127.9c0.8 -0.7 1.3 -1.6 1.3 -2.7 0 -0.3 -0.1 -0.7 -0.2 -1 1 -1.4 2.4 -2.4 4.2 -2.4 3 0 5.3 2.3 5.3 5.6 0 3 -2.3 5.6 -5.3 5.6s-5 -2.4 -5.2 -5.3ZM126.4 98.3c-3 0 -5.3 2.7 -5.3 5.6s2.3 5.6 5.3 5.6 5.3 -2.7 5.3 -5.6c0 -3.3 -2.3 -5.6 -5.3 -5.6ZM124.7 147.1c-3.3 0 -6 2.3 -6 5.6 0 3 2.7 5.6 6 5.6s6 -2.3 6 -5.6 -2.7 -5.6 -6 -5.6ZM191 101.3c-7.6 -29.6 -37.4 -47.1 -66.6 -39.5 -2.3 2.7 -2.3 5.3 -0.7 8.6 7.6 -2.7 16.2 -3 24.5 -1.3 17.9 4 31.5 17.9 35.5 35.9 0.3 1.3 1.3 2.7 2.7 3 14.2 4.6 23.9 17.9 24.2 33.2 0 19.3 -15.2 34.5 -34.1 34.5H62.1c-2.3 2.3 -2 5 0 7.6h114.3c23.2 0 42.1 -18.9 42.1 -42.5 -0.7 -17.6 -11.6 -33.2 -27.5 -39.5ZM115.3 99.3h-61.1c-2 0 -3.6 1.7 -3.6 3.7s1.7 3.7 3.6 3.7h60.9c-0.2 -1 -0.6 -1.9 -0.6 -3 0 -1.5 0.3 -3 0.8 -4.3ZM138.3 103.6c0 7 -5.3 12.3 -11.9 12.3 -5.6 0 -10.1 -3.9 -11.4 -9.3h1.1c2 0 3.6 -1.7 3.6 -3.7s-1.7 -3.7 -3.6 -3.7h-0.8c1.7 -4.7 5.9 -8 11.1 -8 6.6 0 11.9 5.3 11.9 12.3ZM131.7 104c0 -3.3 -2.3 -5.6 -5.3 -5.6s-5.3 2.7 -5.3 5.6 2.3 5.6 5.3 5.6 5.3 -2.7 5.3 -5.6ZM119.7 103c0 -2 -1.7 -3.7 -3.6 -3.7h-0.8c-0.5 1.3 -0.8 2.8 -0.8 4.3 0 1.1 0.3 2 0.6 3h1.1c2 0 3.6 -1.7 3.6 -3.7ZM20 125.2c0 2 1.7 3.7 3.6 3.7h58.3c0 -0.6 -0.3 -1.1 -0.3 -1.7 0 -2.1 0.6 -3.9 1.5 -5.6H23.6c-2 0 -3.6 1.7 -3.6 3.7ZM89.6 125.2s-0.1 -0.7 -0.2 -1c-0.7 1 -1.1 2.1 -1.1 3.3 0 0.1 0 0.2 0 0.4 0.8 -0.7 1.3 -1.6 1.3 -2.7ZM113 148.4h-61.2c-2 0 -3.6 1.7 -3.6 3.7s1.7 3.7 3.6 3.7h60.9c-0.3 -1 -0.6 -1.9 -0.6 -3 0 -1.5 0.4 -3 0.9 -4.3ZM137.3 152.8c0 6.6 -5.6 12.3 -12.6 12.3 -5.9 0 -10.6 -4.1 -12 -9.3h1.4c2 0 3.6 -1.7 3.6 -3.7s-1.7 -3.7 -3.6 -3.7h-1.1c1.8 -4.6 6.3 -8 11.7 -8 7 0 12.6 5.6 12.6 12.3ZM130.7 152.8c0 -3.3 -2.7 -5.6 -6 -5.6s-6 2.3 -6 5.6c0 3 2.7 5.6 6 5.6s6 -2.3 6 -5.6ZM117.8 152.1c0 -2 -1.7 -3.7 -3.6 -3.7h-1.1c-0.5 1.4 -0.9 2.8 -0.9 4.3 0 1.1 0.4 2 0.6 3h1.4c2 0 3.6 -1.7 3.6 -3.7ZM89.4 124.2c1 -1.4 2.4 -2.4 4.2 -2.4 3 0 5.3 2.3 5.3 5.6 0 3 -2.3 5.6 -5.3 5.6s-5 -2.4 -5.2 -5.3c-0.6 0.6 -1.5 1 -2.4 1h-4c0.8 6.1 5.5 10.6 11.6 10.6 6.6 0 11.9 -5.3 11.9 -12.3s-5.3 -12.3 -11.9 -12.3c-4.6 0 -8.4 2.8 -10.4 6.6h2.8c1.6 0 3 1.2 3.4 2.7ZM82 128.9h4c0.9 0 1.7 -0.4 2.4 -1 0 -0.1 0 -0.2 0 -0.4 0 -1.2 0.5 -2.3 1.1 -3.3 -0.4 -1.5 -1.8 -2.7 -3.4 -2.7h-2.8c-0.9 1.7 -1.5 3.6 -1.5 5.6 0 0.6 0.2 1.1 0.3 1.7Z"/></svg>