<svg xmlns="http://www.w3.org/2000/svg" width="240" height="240" viewBox="0 0 240 240"><path d="M57 111.4c-10 5.6 -17 15.1 -17 26.5 0 18.2 17.4 31.1 37 32.1 5 5.7 11.2 10.3 18 13.5 4.5 2.1 9.2 3.6 14.1 4.5 1.6 4 5.5 6.8 10.1 6.8 6 0 10.9 -4.9 10.9 -10.9s-4.9 -10.9 -10.9 -10.9c-3.8 0 -7.2 2 -9.1 5 -3.7 -0.7 -7.3 -1.9 -10.7 -3.6 -5.7 -2.7 -10.8 -6.6 -15 -11.3v-52.6c0 -2.8 -2.2 -5 -5 -5 -0.4 0 -0.8 0 -1.2 0.1 -3.7 0 -7.3 0.6 -10.7 1.5 0.8 -5.9 2.4 -11.6 4.9 -17 3 -6.5 7.1 -12.3 12.2 -17.3l2.1 1.3h0.1c2 2 5.2 2 7.1 0 3.6 -3.7 7.9 -6.7 12.6 -8.7s9.9 -3.1 15 -3.1c5.3 0 10.5 1 15.4 3.1 4.9 2 9.3 5 13.1 8.8 1.9 2 5.1 2 7.1 0h0s2.1 -1.3 2.1 -1.3c5.1 5 9.2 10.8 12.2 17.3 2.5 5.4 4.2 11.1 4.9 17 -3.4 -0.9 -7 -1.4 -10.7 -1.5 -0.4 0 -0.8 -0.1 -1.2 -0.1 -2.8 0 -5 2.2 -5 5h0v54.3h0s0 0.1 0 0.1c0 2.8 2.2 5 5 5 20.5 0 39.3 -13.3 39.3 -32.1 0 -11.5 -6.9 -20.9 -17 -26.5 -0.4 -8.8 -2.6 -17.4 -6.3 -25.4 -3.1 -6.8 -7.3 -12.9 -12.4 -18.3h0.1s0.4 -0.3 0.6 -0.5c0.5 -0.4 0.9 -0.8 1.2 -1.2 0.4 -0.7 0.7 -1.4 0.8 -2.2 0 -0.6 0 -1.2 -0.2 -1.9 -0.2 -0.6 -0.5 -1.3 -0.9 -1.8 -0.1 -0.1 -0.2 -0.3 -0.4 -0.4 -6 -6.2 -13.3 -11.1 -21.3 -14.5 -8 -3.4 -16.6 -5.1 -25.3 -5.1h-1.7c-8.7 0 -17.3 1.7 -25.3 5.1 -8 3.4 -15.2 8.3 -21.3 14.5 -0.1 0.1 -0.3 0.3 -0.4 0.4 -0.4 0.5 -0.7 1.1 -0.9 1.7 -0.4 1.4 -0.2 2.9 0.6 4.1 0.3 0.5 0.7 0.9 1.2 1.3 0.2 0.1 0.4 0.3 0.6 0.4h0.1c-5.1 5.5 -9.3 11.7 -12.4 18.4 -3.7 8 -5.8 16.6 -6.3 25.4ZM193.7 137.9c0 10.2 -9.7 20 -24.3 21.8v-43.7c14.6 1.9 24.3 11.7 24.3 21.9ZM99.6 54.3c6.8 -2.9 14.1 -4.3 21.4 -4.3h1.7c7.4 0 14.6 1.5 21.4 4.3 4.8 2 9.2 4.7 13.3 8 -0.2 0.1 -0.4 0.3 -0.6 0.4l-2.7 1.6c-4 -3.4 -8.5 -6.1 -13.3 -8.2 -6.1 -2.5 -12.7 -3.8 -19.3 -3.8h0c-6.5 0 -13 1.3 -19 3.9 -4.7 2 -9.1 4.7 -12.9 8.1l-2.7 -1.6s-0.4 -0.3 -0.6 -0.4c4 -3.3 8.5 -5.9 13.3 -8ZM74.3 116v43.7c-14.6 -1.8 -24.3 -11.7 -24.3 -21.8s9.7 -20 24.3 -21.9Z"/></svg>