<svg xmlns="http://www.w3.org/2000/svg" width="240" height="240" viewBox="0 0 240 240"><path d="M47.8 164.7c5.1 2.5 10.7 3.7 16.3 3.6 13.4 -0.1 27.2 -8.4 38.2 -19.4 10.9 -9.9 17.7 -23.5 19.2 -38.2 0 -3.7 -0.6 -7.3 -2 -10.7 1.1 -0.4 2.3 -0.6 3.5 -0.5h0s0 0 0 0c1.2 0 2.3 0.2 3.4 0.5 -1.3 3.4 -2 7 -2 10.7 1.4 14.7 8.3 28.3 19.2 38.2 11 11 24.8 19.3 38.2 19.4 5.7 0.1 11.3 -1.1 16.3 -3.6 6.6 -3.6 11.7 -9.6 14.1 -16.8 2.6 -7.8 3.9 -16 3.6 -24.3 0.4 -11.2 -3.3 -22.2 -10.4 -31 -7.6 -8.4 -18.5 -13 -29.8 -12.6h-0.6s0 0 0 0H70.9s-0.6 0 -0.6 0c-11.3 -0.4 -22.2 4.2 -29.8 12.6 -7.1 8.7 -10.8 19.7 -10.4 31 -0.6 10.8 1.8 21.5 6.9 31 2.6 4.3 6.4 7.7 10.8 10.1ZM150.6 90.9c7.5 -1.8 15.2 -2.6 22.9 -2.6 0.8 0 1.6 0 2.4 0 8.9 -0.4 17.5 3.2 23.5 9.8 5.8 7.2 8.7 16.3 8.3 25.5 0.6 9.2 -1.4 18.4 -5.6 26.6 -1.8 3 -4.5 5.5 -7.6 7.1 -3.9 1.9 -8.2 2.8 -12.5 2.7 -9.7 0.1 -22.4 -6.9 -32.3 -17 -9.9 -10 -16.9 -22.8 -16.7 -32.3 -0.2 -3.9 0.9 -7.7 3.1 -11 3.7 -4.5 8.8 -7.6 14.6 -8.8ZM136 88.4c-1.9 1.3 -3.6 2.7 -5.1 4.4 -0.6 -0.3 -1.2 -0.6 -1.9 -0.8 -1.9 -0.6 -3.9 -0.9 -6 -0.9h0c-2.7 0 -5.3 0.5 -7.7 1.6 -0.1 0 -0.2 0.1 -0.3 0.2 -1.5 -1.7 -3.2 -3.2 -5.1 -4.5h26.1ZM46.7 98.1c6 -6.6 14.6 -10.2 23.5 -9.8 0.8 0 1.6 0 2.4 0 9.9 -0.3 19.8 1.3 29 4.7 3.4 1.4 6.3 3.7 8.5 6.6 2.2 3.2 3.2 7.1 3.1 11 0.1 9.5 -6.8 22.4 -16.7 32.3 -9.9 10 -22.6 17.1 -32.3 17 -4.3 0.1 -8.6 -0.8 -12.5 -2.7 -4.8 -2.7 -8.5 -7.1 -10.1 -12.3 -2.3 -6.9 -3.3 -14.1 -3.1 -21.3 -0.4 -9.2 2.6 -18.3 8.3 -25.5Z"/></svg>