<svg xmlns="http://www.w3.org/2000/svg" width="240" height="240" viewBox="0 0 240 240"><path d="M212.5 53.3v-0.8l-0.8 -0.8 -0.8 -0.8h-0.8c-0.8 0 -0.8 -0.8 -1.6 -0.8h-1.6L24.1 109.6c-2.5 0.8 -4.1 3.3 -4.1 5.8s2.5 5 4.9 5l51.8 5.8 12.3 50.5c0 1.7 0.8 3.3 2.5 5 1.6 0.8 3.3 0.8 4.9 0.8 0.8 0 0.8 -0.8 1.6 -0.8l32.1 -25.7 46.9 29.8c0.8 0.8 1.6 0.8 3.3 0.8h2.5c1.6 -0.8 2.5 -2.5 3.3 -4.1l27.1 -124.2v-4.1h-2.5l1.6 -0.8ZM80.9 115.4l-28.8 -3.3 93.8 -30.6 -65 34ZM102.3 129.5v1.7l-5.8 23.2 -7.4 -29.8 64.2 -34.8 -50.2 38.1 -0.8 0.8 1.6 1.7 -1.6 -0.8ZM104.7 161.8l4.9 -20.7 11.5 7.5 -16.5 13.3ZM177.1 170.1l-60.9 -38.9 83.1 -62.9 -22.2 101.9Z"/></svg>