<svg xmlns="http://www.w3.org/2000/svg" width="240" height="240" viewBox="0 0 240 240"><path d="M133.4 40.2c1 -4.2 0 -9.4 -2.1 -13.6 -2.1 -3.1 -6.3 -5.2 -10.4 -6.3 -4.2 -1 -8.4 0 -11.5 3.1 -3.1 2.1 -5.2 6.3 -6.3 10.4v6.3c-41.8 7.3 -73.1 43.9 -73.1 87.7 0 49.1 39.7 88.8 88.8 88.8s88.8 -39.7 88.8 -88.8c0 -44.9 -32.4 -81.4 -74.1 -87.7ZM111.4 35c0 -2.1 1 -3.1 2.1 -4.2 1 -1 3.1 -1 4.2 -1 2.1 0 3.1 1 4.2 2.1 1 2.1 1 4.2 0 7.3h-11.5c2.1 -2.1 1 -3.1 1 -4.2ZM118.8 207.3c-43.9 0 -79.4 -35.5 -79.4 -79.4s35.5 -79.4 79.4 -79.4 79.4 35.5 79.4 79.4 -35.5 79.4 -79.4 79.4ZM118.8 58c-38.6 0 -70 31.3 -70 70s31.3 70 70 70 70 -31.3 70 -70 -31.3 -70 -70 -70ZM164.7 133.2h13.6c-2.1 29.2 -26.1 52.2 -55.3 54.3v-12.5c0 -3.1 -2.1 -5.2 -5.2 -5.2s-5.2 2.1 -5.2 5.2v12.5c-29.2 -2.1 -52.2 -26.1 -54.3 -55.3h12.5c3.1 0 5.2 -2.1 5.2 -5.2s-2.1 -5.2 -5.2 -5.2h-12.5c2.1 -29.2 25.1 -52.2 54.3 -55.3v12.5c0 3.1 2.1 5.2 5.2 5.2s5.2 -2.1 5.2 -5.2v-11.5c29.2 2.1 53.3 25.1 55.3 55.3h-13.6c-3.1 0 -5.2 2.1 -5.2 5.2s2.1 5.2 5.2 5.2ZM154.3 92.4c-1 -2.1 -3.1 -2.1 -5.2 -1l-43.9 20.9s-1 0 -1 1l-1 1 -21.9 42.8c-1 2.1 -1 4.2 1 5.2 1 1 2.1 1 3.1 1h2.1l43.9 -21.9s1 0 1 -1l1 -1 21.9 -41.8c1 -2.1 1 -4.2 -1 -5.2ZM95.8 149.9l12.5 -25.1 12.5 12.5 -25.1 12.5ZM128.2 130l-5.2 -5.2 -7.3 -6.3 25.1 -12.5 -12.5 24Z"/></svg>