<svg xmlns="http://www.w3.org/2000/svg" width="240" height="240" viewBox="0 0 240 240"><path d="M140 100c0 5.5 -4.5 10 -10 10h-60c-5.5 0 -10 -4.5 -10 -10s4.5 -10 10 -10h60c5.5 0 10 4.5 10 10ZM227.1 227.1c-3.9 3.9 -10.2 3.9 -14.1 0l-56.8 -56.8c-15.4 12.3 -34.9 19.7 -56.2 19.7 -49.7 0 -90 -40.3 -90 -90S50.3 10 100 10s90 40.3 90 90c0 21.2 -7.4 40.8 -19.7 56.2l56.8 56.8c3.9 3.9 3.9 10.2 0 14.1ZM170 100c0 -38.7 -31.3 -70 -70 -70s-70 31.3 -70 70 31.3 70 70 70c19.2 0 36.5 -7.7 49.2 -20.2 0.1 -0.1 0.2 -0.2 0.3 -0.3 0.1 -0.1 0.2 -0.2 0.3 -0.3 12.5 -12.6 20.2 -30 20.2 -49.2Z"/></svg>