<svg xmlns="http://www.w3.org/2000/svg" width="240" height="240" viewBox="0 0 240 240"><path d="M100 190c21.2 0 40.8 -7.4 56.2 -19.7l56.8 56.8c3.9 3.9 10.2 3.9 14.1 0 3.9 -3.9 3.9 -10.2 0 -14.1l-56.8 -56.8c12.3 -15.4 19.7 -34.9 19.7 -56.2 0 -49.7 -40.3 -90 -90 -90S10 50.3 10 100s40.3 90 90 90ZM100 30c38.7 0 70 31.3 70 70 0 19.2 -7.7 36.5 -20.2 49.2 -0.1 0.1 -0.2 0.2 -0.3 0.3 -0.1 0.1 -0.2 0.2 -0.3 0.3 -12.6 12.5 -30 20.2 -49.2 20.2 -38.7 0 -70 -31.3 -70 -70s31.3 -70 70 -70ZM60 100c0 -5.5 4.5 -10 10 -10h20v-20c0 -5.5 4.5 -10 10 -10s10 4.5 10 10v20h20c5.5 0 10 4.5 10 10s-4.5 10 -10 10h-20v20c0 5.5 -4.5 10 -10 10s-10 -4.5 -10 -10v-20h-20c-5.5 0 -10 -4.5 -10 -10Z"/></svg>