<?xml version="1.0" encoding="UTF-8"?><svg id="b" xmlns="http://www.w3.org/2000/svg" width="420.57" height="87.06" viewBox="0 0 420.57 87.06"><g id="c"><path d="M42.07,37.94l-21.12-11.1L0,37.74v11.08l20.94-11.17,21.12,11.27v-10.99ZM42.07,11.1L20.94,0,0,10.9v11.08l20.94-11.17,21.12,11.27v-10.99h0Z" fill="#2d56ca" stroke-width="0"/><path d="M140.66,40.49h-10.57V8.45c0-4.44,1.06-6.13,3.59-7.82l-.07-.63h-17.68l-.07.63c2.61,1.69,3.59,3.38,3.59,7.82v32.39c0,4.44-.99,6.13-3.59,7.82l.07.63h33.95l2.82-12.82-.56-.28c-3.38,3.03-6.83,4.3-11.48,4.3ZM154.11,0l-2.68,12.18.63.35c3.1-2.54,6.2-4.01,11.27-4.01h3.87v31.97c0,4.58-1.27,6.27-4.23,8.17l.07.63h18.88l.07-.63c-2.89-1.9-4.15-3.59-4.15-8.17V8.52h3.8c5.14,0,8.24,1.48,11.27,4.01l.7-.35-2.75-12.18h-36.77ZM218.07.63l-.07-.63h-17.82l-.07.63c2.68,1.69,3.73,3.38,3.73,7.82v32.39c0,4.44-1.06,6.13-3.73,7.82l.07.63h17.82l.07-.63c-2.68-1.69-3.73-3.38-3.73-7.82V8.45c0-4.44,1.06-6.13,3.73-7.82ZM227.3,0l-2.68,12.18.63.35c3.1-2.54,6.2-4.01,11.27-4.01h3.87v31.97c0,4.58-1.27,6.27-4.23,8.17l.07.63h18.88l.07-.63c-2.89-1.9-4.16-3.59-4.16-8.17V8.52h3.8c5.14,0,8.24,1.48,11.27,4.01l.7-.35-2.75-12.18h-36.77ZM301.81,0l-.07.63c2.54,1.69,3.59,3.38,3.59,7.82v22.11c0,5.7-3.8,9.65-9.37,9.65s-9.44-3.94-9.44-9.65V8.45c0-4.44,1.06-6.13,3.59-7.82l-.07-.63h-17.68l-.07.63c2.61,1.69,3.59,3.38,3.59,7.82v22.82c0,11.13,8.17,18.73,20.14,18.73s19.93-7.61,19.93-18.73V8.45c0-4.44.99-6.13,3.59-7.82l-.07-.63h-17.68ZM348.79,0h-21.13l-.07.63c2.61,1.69,3.59,3.38,3.59,7.82v32.39c0,4.44-.99,6.13-3.59,7.82l.07.63h21.13c14.16,0,24.93-10.63,24.93-24.65S362.95,0,348.79,0ZM348.65,39.93h-6.83V9.37h6.83c8.1,0,14.23,6.55,14.23,15.28s-6.13,15.28-14.23,15.28ZM419.93,36.2c-3.45,3.03-6.83,4.3-11.41,4.3h-12.96v-12.54h9.23c3.38,0,5.14.77,6.9,2.89l.63-.07v-14.3l-.63-.07c-1.76,2.11-3.52,2.96-6.9,2.96h-9.23v-10.56h11.48c4.65,0,8.03,1.2,11.41,4.15l.63-.28L416.27,0h-34.86l-.07.63c2.61,1.69,3.59,3.38,3.59,7.82v32.39c0,4.44-.99,6.13-3.59,7.82l.07.63h36.34l2.82-12.82-.63-.28ZM104.83,41.2L89.62,0h-16.76l-.14.7c3.45,1.69,3.87,4.3,2.61,7.75l-12.26,32.75c-1.55,4.16-2.89,5.77-5,7.46v.63h16.62l.07-.63c-2.13-1.46-2.62-2.87-1.54-6.28l10.74-5.65,10.23,5.38c1.25,3.6.79,5.04-1.46,6.54l.07.63h16.97l.07-.63c-2.11-1.69-3.52-3.31-5-7.46ZM77.57,30.06l6.2-17.6,6.12,17.37-5.94-3.13-6.38,3.35Z" fill="#f8f8f6" stroke-width="0"/><path d="M59.3,66.34h7.94c1.75,0,3.09.37,4.03,1.12.95.75,1.43,1.81,1.43,3.19,0,.85-.23,1.56-.68,2.13-.44.57-1.07.97-1.89,1.19v.04c.94.19,1.66.59,2.16,1.21.51.62.77,1.42.77,2.4,0,1.41-.49,2.49-1.47,3.26-.97.75-2.35,1.12-4.16,1.12h-8.12v-15.66ZM66.67,72.8c.76,0,1.34-.15,1.74-.46.4-.32.59-.78.59-1.39s-.2-1.03-.59-1.34c-.4-.32-.98-.48-1.74-.48h-3.67v3.67h3.67ZM66.76,79.21c.84,0,1.47-.16,1.91-.48.45-.34.68-.82.68-1.45s-.23-1.14-.68-1.47c-.44-.35-1.08-.53-1.91-.53h-3.76v3.94h3.76ZM79.41,87.06c-1.2,0-2.3-.19-3.3-.57-.98-.38-1.75-.92-2.31-1.61l1.39-2.33c.45.54,1.03.97,1.72,1.28.7.31,1.45.46,2.24.46,1.09,0,1.94-.28,2.57-.84.65-.54.97-1.29.97-2.24v-.84h-.02c-.37.66-.87,1.18-1.5,1.56-.63.38-1.31.57-2.05.57-1.29,0-2.32-.41-3.08-1.23-.75-.82-1.12-1.91-1.12-3.26v-7.28h3.32v6.75c0,.69.18,1.25.53,1.67.37.41.87.62,1.52.62s1.24-.23,1.69-.68c.45-.47.68-1.06.68-1.78v-6.58h3.3l.02,10.56c0,1.17-.27,2.19-.81,3.06-.54.87-1.31,1.53-2.31,2-.98.47-2.13.7-3.45.7ZM100.36,82.55c-1.29,0-2.46-.21-3.5-.64-1.04-.43-1.88-1.03-2.53-1.83-.63-.81-1-1.76-1.1-2.86l3.39-.62c.09.92.49,1.68,1.21,2.27.72.59,1.61.88,2.66.88.91,0,1.64-.19,2.18-.57.54-.4.81-.89.81-1.5,0-.47-.21-.85-.62-1.14-.41-.29-1.07-.54-1.98-.75l-2.18-.42c-1.7-.34-2.95-.87-3.74-1.58-.78-.72-1.17-1.69-1.17-2.93,0-1.01.26-1.9.79-2.66.53-.78,1.25-1.37,2.18-1.78.94-.43,2.01-.64,3.21-.64,1.07,0,2.05.19,2.93.57.89.37,1.62.89,2.18,1.56.56.67.9,1.46,1.03,2.35l-3.32.75c-.07-.73-.37-1.32-.9-1.76-.53-.45-1.18-.68-1.96-.68s-1.37.18-1.83.55c-.45.35-.68.81-.68,1.36,0,.47.18.85.55,1.14.37.29.95.51,1.76.66l2.2.42c1.76.29,3.06.81,3.89,1.56.84.73,1.25,1.73,1.25,2.99,0,1.07-.29,2.01-.86,2.82-.56.79-1.35,1.4-2.38,1.83-1.01.43-2.18.64-3.5.64ZM114.66,82.44c-1.25,0-2.35-.25-3.3-.75-.94-.5-1.67-1.2-2.2-2.11-.51-.92-.77-1.99-.77-3.21s.26-2.28.77-3.19c.53-.92,1.26-1.64,2.2-2.13.95-.5,2.05-.75,3.3-.75s2.34.25,3.28.75c.94.5,1.66,1.21,2.18,2.13.53.91.79,1.97.79,3.19s-.26,2.29-.79,3.21c-.51.91-1.24,1.61-2.18,2.11-.94.5-2.03.75-3.28.75ZM114.66,79.67c.91,0,1.64-.29,2.18-.88.54-.6.81-1.41.81-2.42s-.27-1.82-.81-2.42c-.54-.6-1.27-.9-2.18-.9s-1.66.3-2.2.9c-.53.6-.79,1.41-.79,2.42s.26,1.82.79,2.42c.54.59,1.28.88,2.2.88ZM126.46,82.35c-1.17,0-2.09-.34-2.75-1.03-.66-.7-.99-1.67-.99-2.9v-7.68h3.3v6.73c0,.65.17,1.16.51,1.54.35.38.82.57,1.41.57.73,0,1.33-.24,1.8-.73.47-.48.7-1.12.7-1.91v-6.2h3.32v11.26h-2.79l-.51-1.91h-.02c-.44.73-1,1.3-1.67,1.69-.66.38-1.43.57-2.31.57ZM141.73,82.44c-1.33,0-2.4-.37-3.19-1.12-.79-.75-1.19-1.75-1.19-2.99v-5.08h-2.13v-2.51h2.13v-3.1l3.32-.73-.02,3.83h4.58v2.51h-4.58l.02,4.55c0,.6.16,1.09.48,1.45.32.35.74.53,1.25.53,1.03,0,1.8-.54,2.31-1.61l1.17,1.96c-.35.7-.92,1.27-1.69,1.69-.78.41-1.6.62-2.46.62ZM147.41,65.68h3.32v6.97h.02c.43-.73.97-1.29,1.63-1.67.68-.4,1.45-.59,2.33-.59,1.17,0,2.09.35,2.75,1.06.66.69.99,1.65.99,2.88v7.68h-3.3v-6.73c0-.65-.18-1.16-.53-1.54-.34-.38-.8-.57-1.39-.57-.73,0-1.33.24-1.8.73-.47.48-.7,1.12-.7,1.91v6.2h-3.32v-16.32ZM160.65,65.68h3.32v16.32h-3.32v-16.32ZM172.52,82.44c-1.29,0-2.44-.26-3.45-.77-1.01-.53-1.8-1.26-2.38-2.2-.57-.94-.86-2-.86-3.19s.26-2.21.77-3.1c.51-.91,1.23-1.61,2.13-2.11.92-.51,1.98-.77,3.17-.77s2.18.24,3.06.73c.88.48,1.56,1.17,2.02,2.05.48.87.73,1.86.73,2.97,0,.48-.04.9-.13,1.25h-8.34c.1.81.46,1.45,1.08,1.94.63.48,1.41.73,2.33.73.69,0,1.33-.14,1.94-.42.6-.28,1.06-.65,1.39-1.1l1.98,1.41c-.44.78-1.15,1.41-2.13,1.89-.98.47-2.08.7-3.3.7ZM174.34,75.31c-.06-.82-.31-1.46-.75-1.91-.43-.45-.99-.68-1.69-.68s-1.3.24-1.78.73c-.47.47-.76,1.09-.88,1.87h5.1ZM180.7,73.24h-2.13v-2.51h2.13v-1.32c0-1.26.39-2.27,1.17-3.04.79-.76,1.86-1.14,3.19-1.14.87,0,1.65.19,2.35.57.72.38,1.27.89,1.65,1.52l-1.25,1.98c-.21-.43-.51-.76-.9-1.01-.38-.26-.79-.4-1.23-.4-.5,0-.9.17-1.21.51-.29.34-.44.78-.44,1.32v1.01h4.11v2.51h-4.11v8.76h-3.3l-.02-8.76ZM195.9,82.44c-1.34,0-2.4-.37-3.19-1.12-.79-.75-1.19-1.75-1.19-2.99v-5.08h-2.13v-2.51h2.13v-3.1l3.32-.73-.02,3.83h4.58v2.51h-4.58l.02,4.55c0,.6.16,1.09.48,1.45.32.35.74.53,1.25.53,1.03,0,1.8-.54,2.31-1.61l1.17,1.96c-.35.7-.92,1.27-1.69,1.69-.78.41-1.6.62-2.46.62Z" fill="#bdb39e" stroke-width="0"/></g></svg>